<svg width="12" height="12" viewBox="0 0 12 12" fill="none" xmlns="http://www.w3.org/2000/svg">
<g clip-path="url(#clip0_7640_81539)">
<path fill-rule="evenodd" clip-rule="evenodd" d="M2.56283 5.25021H11.2501C11.449 5.25021 11.6398 5.32923 11.7804 5.46988C11.9211 5.61054 12.0001 5.8013 12.0001 6.00021C12.0001 6.19913 11.9211 6.38989 11.7804 6.53054C11.6398 6.6712 11.449 6.75021 11.2501 6.75021H2.56283L6.00608 10.1935C6.14691 10.3342 6.22607 10.5251 6.22614 10.7242C6.22621 10.9233 6.14719 11.1143 6.00646 11.2551C5.86573 11.3959 5.67482 11.4751 5.47572 11.4751C5.27663 11.4752 5.08566 11.3962 4.94483 11.2555L0.219834 6.53046C0.0792307 6.38982 0.000244141 6.19909 0.000244141 6.00021C0.000244141 5.80134 0.0792307 5.61061 0.219834 5.46996L4.94483 0.744963C5.08576 0.604233 5.27683 0.52525 5.47599 0.525391C5.67515 0.525531 5.8661 0.604784 6.00683 0.745713C6.14756 0.886643 6.22655 1.0777 6.22641 1.27687C6.22627 1.47603 6.14701 1.66698 6.00608 1.80771L2.56283 5.25021Z" fill="#374151"/>
</g>
<defs>
<clipPath id="clip0_7640_81539">
<rect width="12" height="12" fill="white"/>
</clipPath>
</defs>
</svg>
