<svg width="120" height="36" viewBox="0 0 120 36" fill="none" xmlns="http://www.w3.org/2000/svg">
<g clipPath="url(#clip0_8906_109679)">
<g clipPath="url(#clip1_8906_109679)">
<g clipPath="url(#clip2_8906_109679)">
<path d="M21.75 10.25H2.25C1.14543 10.25 0.25 11.1454 0.25 12.25V23.75C0.25 24.8546 1.14543 25.75 2.25 25.75H21.75C22.8546 25.75 23.75 24.8546 23.75 23.75V12.25C23.75 11.1454 22.8546 10.25 21.75 10.25Z" fill="white" stroke="black" stroke-opacity="0.2" stroke-width="0.5"/>
<path d="M2.78773 15.9144C2.26459 15.6275 1.66754 15.3967 1 15.2366L1.028 15.1119H3.76498C4.13596 15.1249 4.43699 15.2365 4.53495 15.6307L5.12977 18.4666L5.31198 19.3207L6.97797 15.1119H8.77679L6.10288 21.2775H4.30397L2.78773 15.9144ZM10.1 21.2841H8.39883L9.46285 15.1119H11.1639L10.1 21.2841ZM16.2668 15.2628L16.0354 16.5956L15.8816 16.53C15.5737 16.4052 15.1674 16.2805 14.6144 16.2937C13.9427 16.2937 13.6415 16.5628 13.6345 16.8255C13.6345 17.1144 13.9989 17.3048 14.5939 17.5873C15.574 18.0272 16.0286 18.5656 16.0218 19.2682C16.0081 20.5486 14.846 21.3761 13.0611 21.3761C12.2979 21.3694 11.5628 21.2181 11.1638 21.0476L11.4019 19.662L11.6259 19.7607C12.1789 19.9907 12.5428 20.089 13.222 20.089C13.7118 20.089 14.2369 19.8984 14.2436 19.4849C14.2436 19.2157 14.0199 19.0185 13.3617 18.7165C12.7178 18.4209 11.8568 17.9285 11.8708 17.042C11.8781 15.8404 13.0611 15 14.741 15C15.399 15 15.9312 15.1379 16.2668 15.2628ZM18.5278 19.0975H19.9417C19.8718 18.7889 19.5496 17.3115 19.5496 17.3115L19.4307 16.7796C19.3467 17.0094 19.1999 17.3837 19.2069 17.3706C19.2069 17.3706 18.6678 18.7429 18.5278 19.0975ZM20.6276 15.1119L22 21.284H20.4249C20.4249 21.284 20.2708 20.5748 20.2219 20.3581H18.0378C17.9746 20.5222 17.6808 21.284 17.6808 21.284H15.8958L18.4226 15.624C18.5977 15.2234 18.906 15.1119 19.3118 15.1119H20.6276Z" fill="#1434CB"/>
</g>
</g>
</g>
<g clipPath="url(#clip3_8906_109679)">
<g clipPath="url(#clip4_8906_109679)">
<g clipPath="url(#clip5_8906_109679)">
<path d="M50 10H30C28.8954 10 28 10.8954 28 12V24C28 25.1046 28.8954 26 30 26H50C51.1046 26 52 25.1046 52 24V12C52 10.8954 51.1046 10 50 10Z" fill="#252525"/>
<path d="M37 23C39.7614 23 42 20.7614 42 18C42 15.2386 39.7614 13 37 13C34.2386 13 32 15.2386 32 18C32 20.7614 34.2386 23 37 23Z" fill="#EB001B"/>
<path d="M43 23C45.7614 23 48 20.7614 48 18C48 15.2386 45.7614 13 43 13C40.2386 13 38 15.2386 38 18C38 20.7614 40.2386 23 43 23Z" fill="#F79E1B"/>
<path fillRule="evenodd" clipRule="evenodd" d="M40 14C41.2144 14.9122 42 16.3645 42 18.0004C42 19.6362 41.2144 21.0885 40 22.0007C38.7856 21.0885 38 19.6362 38 18.0004C38 16.3645 38.7856 14.9122 40 14Z" fill="#FF5F00"/>
</g>
</g>
</g>
<g clipPath="url(#clip6_8906_109679)">
<g clipPath="url(#clip7_8906_109679)">
<g clipPath="url(#clip8_8906_109679)">
<path d="M78 10H58C56.8954 10 56 10.8954 56 12V24C56 25.1046 56.8954 26 58 26H78C79.1046 26 80 25.1046 80 24V12C80 10.8954 79.1046 10 78 10Z" fill="#016FD0"/>
<path fillRule="evenodd" clipRule="evenodd" d="M69.7637 23.3948V17.6934L79.9112 17.7025V19.2774L78.7383 20.5308L79.9112 21.7956V23.4039H78.0386L77.0434 22.3058L76.0553 23.4081L69.7637 23.3948Z" fill="#FFFFFE"/>
<path fillRule="evenodd" clipRule="evenodd" d="M70.4414 22.7692V18.3203H74.2137V19.3452H71.6628V20.0409H74.1529V21.0487H71.6628V21.732H74.2137V22.7692H70.4414Z" fill="#016FD0"/>
<path fillRule="evenodd" clipRule="evenodd" d="M74.1954 22.7691L76.2827 20.5421L74.1953 18.3203H75.811L77.0865 19.7303L78.3656 18.3203H79.9117V18.3553L77.8689 20.5421L79.9117 22.706V22.7691H78.35L77.0519 21.3449L75.7671 22.7691H74.1954Z" fill="#016FD0"/>
<path fillRule="evenodd" clipRule="evenodd" d="M70.2369 12.6328H72.6829L73.5421 14.5837V12.6328H76.5619L77.0827 14.0944L77.6052 12.6328H79.9111V18.3342H67.7246L70.2369 12.6328Z" fill="#FFFFFE"/>
<path fillRule="evenodd" clipRule="evenodd" d="M70.7006 13.25L68.7266 17.6952H70.0805L70.4529 16.805H72.4708L72.843 17.6952H74.2306L72.2648 13.25H70.7006ZM70.8702 15.8074L71.4622 14.3924L72.0538 15.8074H70.8702Z" fill="#016FD0"/>
<path fillRule="evenodd" clipRule="evenodd" d="M74.2119 17.6951V13.25L76.115 13.2565L77.0943 15.9893L78.0799 13.25H79.9115V17.6951L78.7329 17.7055V14.6522L77.6204 17.6951H76.5446L75.4089 14.6417V17.6951H74.2119Z" fill="#016FD0"/>
</g>
</g>
</g>
<rect x="84" y="10" width="24" height="16" rx="2.5" fill="white"/>
<rect x="84.25" y="10.25" width="23.5" height="15.5" rx="2.25" stroke="black" stroke-opacity="0.2" stroke-width="0.5"/>
<path d="M93.7568 25.0326L106.974 21.1992V23.4826C106.974 24.3386 106.28 25.0326 105.424 25.0326H93.7568Z" fill="#FD6020"/>
<path fillRule="evenodd" clipRule="evenodd" d="M104.448 16.0739C105.175 16.0739 105.575 16.3963 105.575 17.0052C105.611 17.4708 105.284 17.8648 104.848 17.9364L105.829 19.2617H105.066L104.23 17.9722H104.157V19.2617H103.539V16.0739H104.448ZM104.157 17.5424H104.339C104.739 17.5424 104.92 17.3634 104.92 17.041C104.92 16.7544 104.739 16.5754 104.339 16.5754H104.157V17.5424ZM101.394 19.2617H103.139V18.7244H102.012V17.8648H103.103V17.3275H102.012V16.6112H103.139V16.0739H101.394V19.2617ZM99.5757 18.223L98.7395 16.0739H98.0851L99.4303 19.3333H99.7575L101.103 16.0739H100.448L99.5757 18.223ZM92.1951 17.6857C92.1951 18.5812 92.9222 19.3333 93.8312 19.3333C94.1221 19.3333 94.3766 19.2617 94.6311 19.1542V18.4379C94.4493 18.6528 94.1948 18.7961 93.9039 18.7961C93.3222 18.7961 92.8495 18.3662 92.8495 17.7932V17.7215C92.8132 17.1484 93.2858 16.647 93.8676 16.6112C94.1584 16.6112 94.4493 16.7544 94.6311 16.9693V16.253C94.4129 16.1097 94.1221 16.0739 93.8676 16.0739C92.9222 16.0023 92.1951 16.7544 92.1951 17.6857ZM91.068 17.2917C90.7044 17.1484 90.5953 17.0768 90.5953 16.8977C90.6317 16.6828 90.8135 16.5037 91.0316 16.5395C91.2134 16.5395 91.3952 16.647 91.5406 16.7903L91.8679 16.3604C91.6133 16.1455 91.2861 16.0023 90.9589 16.0023C90.4499 15.9664 90.0136 16.3604 89.9772 16.8619V16.8977C89.9772 17.3275 90.159 17.5783 90.7408 17.7573C90.8862 17.7932 91.0316 17.8648 91.1771 17.9364C91.2861 18.0081 91.3588 18.1155 91.3588 18.2588C91.3588 18.5095 91.1407 18.7244 90.9225 18.7244H90.8862C90.5953 18.7244 90.3408 18.5453 90.2317 18.2946L89.8318 18.6886C90.05 19.0826 90.4862 19.2975 90.9225 19.2975C91.5043 19.3333 91.9769 18.9035 92.0133 18.3304V18.223C91.9769 17.7932 91.7951 17.5783 91.068 17.2917ZM88.9592 19.2617H89.5773V16.0739H88.9592V19.2617ZM86.0869 16.0739H86.9959H87.1777C88.0502 16.1097 88.7411 16.8261 88.7047 17.6857C88.7047 18.1514 88.4865 18.5812 88.123 18.9035C87.7957 19.1543 87.3958 19.2975 86.9959 19.2617H86.0869V16.0739ZM86.8868 18.7244C87.1777 18.7602 87.5049 18.6528 87.723 18.4737C87.9412 18.2588 88.0503 17.9722 88.0503 17.6499C88.0503 17.3633 87.9412 17.0768 87.723 16.8619C87.5049 16.6828 87.1777 16.5753 86.8868 16.6112H86.705V18.7244H86.8868Z" fill="black"/>
<path fillRule="evenodd" clipRule="evenodd" d="M96.485 16C95.576 16 94.8125 16.7164 94.8125 17.6476C94.8125 18.5431 95.5397 19.2953 96.485 19.3311C97.4303 19.3669 98.1574 18.6147 98.1938 17.6834C98.1574 16.7522 97.4303 16 96.485 16V16Z" fill="#FD6020"/>
<defs>
<clipPath id="clip0_8906_109679">
<rect width="24" height="16" fill="white" transform="translate(0 10)"/>
</clipPath>
<clipPath id="clip1_8906_109679">
<rect width="24" height="16" fill="white" transform="translate(0 10)"/>
</clipPath>
<clipPath id="clip2_8906_109679">
<rect width="24" height="16" fill="white" transform="translate(0 10)"/>
</clipPath>
<clipPath id="clip3_8906_109679">
<rect width="24" height="16" fill="white" transform="translate(28 10)"/>
</clipPath>
<clipPath id="clip4_8906_109679">
<rect width="24" height="16" fill="white" transform="translate(28 10)"/>
</clipPath>
<clipPath id="clip5_8906_109679">
<rect width="24" height="16" fill="white" transform="translate(28 10)"/>
</clipPath>
<clipPath id="clip6_8906_109679">
<rect width="24" height="16" fill="white" transform="translate(56 10)"/>
</clipPath>
<clipPath id="clip7_8906_109679">
<rect width="24" height="16" fill="white" transform="translate(56 10)"/>
</clipPath>
<clipPath id="clip8_8906_109679">
<rect width="24" height="16" fill="white" transform="translate(56 10)"/>
</clipPath>
</defs>
</svg>
