<svg width="25" height="25" viewBox="0 0 25 25" fill="none" xmlns="http://www.w3.org/2000/svg">
<path d="M21.8077 8.23567C22.805 8.58278 23.5 9.61433 23.5 10.7987V16.0371C23.5 17.4256 22.5444 18.6038 21.2662 18.7174C20.8826 18.7504 20.499 18.781 20.1154 18.8054V22.5833L16.7308 18.9167C15.2032 18.9167 13.6914 18.8494 12.1954 18.7174C11.8697 18.6889 11.5529 18.5883 11.2646 18.4217M21.8077 8.23567C21.6334 8.17488 21.4532 8.13592 21.2707 8.11956C18.2493 7.84783 15.2123 7.84783 12.1909 8.11956C10.9149 8.23445 9.96154 9.41145 9.96154 10.7987V16.0371C9.96154 17.0601 10.4805 17.9682 11.2646 18.4217M21.8077 8.23567V5.94522C21.8077 3.964 20.508 2.24678 18.6938 1.99133C16.3594 1.66352 14.0078 1.49941 11.6538 1.5C9.26769 1.5 6.91764 1.66745 4.61385 1.99133C2.79969 2.24678 1.5 3.964 1.5 5.94522V13.5548C1.5 15.536 2.79969 17.2532 4.61385 17.5087C5.26482 17.6003 5.91918 17.6798 6.57692 17.7458V23.5L11.2646 18.4217" stroke="white" stroke-width="1.5" stroke-linecap="round" stroke-linejoin="round"/>
</svg>
