<svg width="25" height="25" viewBox="0 0 25 25" fill="none" xmlns="http://www.w3.org/2000/svg">
<path d="M1.5 23.5H23.5M3.19231 1.5V23.5M15.0385 1.5V23.5M21.8077 7V23.5M6.57692 6.08333H7.42308M6.57692 9.75H7.42308M6.57692 13.4167H7.42308M10.8077 6.08333H11.6538M10.8077 9.75H11.6538M10.8077 13.4167H11.6538M6.57692 23.5V19.375C6.57692 18.616 7.14554 18 7.84615 18H10.3846C11.0852 18 11.6538 18.616 11.6538 19.375V23.5M2.34615 1.5H15.8846M15.0385 7H22.6538M18.4231 11.5833H18.4321V11.5931H18.4231V11.5833ZM18.4231 15.25H18.4321V15.2598H18.4231V15.25ZM18.4231 18.9167H18.4321V18.9264H18.4231V18.9167Z" stroke="white" stroke-width="1.5" stroke-linecap="round" stroke-linejoin="round"/>
</svg>
