<svg width="200" height="64" viewBox="0 0 200 64" fill="none" xmlns="http://www.w3.org/2000/svg">
<path d="M32.3569 12.7998C42.9134 12.7998 51.4712 21.3962 51.4712 32C51.4711 42.4381 43.1786 50.9306 32.8501 51.1934L32.3569 51.2002H26.5161V40.5332H32.3569C37.0486 40.5332 40.8519 36.7127 40.8521 32C40.8521 27.2872 37.0487 23.4668 32.3569 23.4668C27.6652 23.4668 23.8618 27.2872 23.8618 32V51.2002H13.2427V32C13.2427 21.3961 21.8005 12.7998 32.3569 12.7998Z" fill="#002823"/>
<path d="M176.796 43.2003V24.3363H170.51V20.8003H186.757V24.3363H180.472V43.2003H176.796Z" fill="#002823"/>
<path d="M152.776 43.2003L161.075 20.8003H164.548L172.846 43.2003H168.944L167.144 38.2083H158.495L156.727 43.2003H152.776ZM159.673 34.8643H165.933L163.48 28.0963C163.417 27.915 163.342 27.7016 163.257 27.4563C163.172 27.211 163.087 26.971 163.002 26.7363C162.918 26.491 162.854 26.2723 162.811 26.0803C162.758 26.2723 162.689 26.491 162.604 26.7363C162.53 26.971 162.45 27.211 162.365 27.4563C162.28 27.7016 162.206 27.915 162.142 28.0963L159.673 34.8643Z" fill="#002823"/>
<path d="M133.025 43.2003V20.8003H136.695V29.8723H146.451V20.8003H150.121V43.2003H146.451V33.3763H136.695V43.2003H133.025Z" fill="#002823"/>
<path d="M122.66 43.6266C120.947 43.6266 119.498 43.2958 118.314 42.6342C117.129 41.9726 116.172 41.0868 115.442 39.977C114.723 38.8565 114.2 37.6132 113.872 36.2472C113.544 34.8706 113.38 33.478 113.38 32.0693C113.38 30.714 113.549 29.3534 113.888 27.9874C114.226 26.6215 114.76 25.3729 115.49 24.2417C116.22 23.1105 117.177 22.2034 118.361 21.5205C119.546 20.8268 120.979 20.48 122.66 20.48C124.046 20.48 125.241 20.7041 126.246 21.1523C127.25 21.6005 128.081 22.1768 128.736 22.8811C129.403 23.5854 129.905 24.3271 130.243 25.1061L126.975 26.6748C126.616 26.1413 126.24 25.6717 125.849 25.2662C125.458 24.8607 125.003 24.5459 124.485 24.3218C123.977 24.0976 123.369 23.9856 122.66 23.9856C121.634 23.9856 120.767 24.231 120.059 24.7219C119.35 25.2128 118.784 25.8585 118.361 26.6588C117.949 27.4592 117.647 28.3343 117.457 29.284C117.267 30.2231 117.171 31.1516 117.171 32.0693C117.171 33.0404 117.277 34.0062 117.489 34.9667C117.7 35.9164 118.028 36.7808 118.472 37.5599C118.916 38.3282 119.482 38.9472 120.17 39.4167C120.868 39.8756 121.698 40.105 122.66 40.105C123.697 40.105 124.553 39.8436 125.23 39.3207C125.918 38.7871 126.515 38.0988 127.023 37.2557L130.37 38.5203C129.926 39.4914 129.355 40.3611 128.657 41.1295C127.959 41.8979 127.113 42.5061 126.119 42.9543C125.135 43.4025 123.982 43.6266 122.66 43.6266Z" fill="#002823"/>
<path d="M103.48 43.6269C101.899 43.6269 100.522 43.3325 99.3467 42.7436C98.1719 42.1441 97.2587 41.3144 96.6072 40.2545C95.9664 39.1946 95.646 37.9741 95.646 36.5931C95.646 35.2548 95.9878 34.0986 96.6713 33.1243C97.3655 32.1394 98.284 31.4007 99.4268 30.9082C98.8928 30.6405 98.4069 30.2819 97.969 29.8322C97.5418 29.3826 97.2 28.8634 96.9437 28.2745C96.698 27.675 96.5752 27.0059 96.5752 26.2672C96.5752 25.143 96.8582 24.1367 97.4243 23.2481C97.9903 22.3595 98.786 21.6582 99.8113 21.1444C100.847 20.6305 102.07 20.3735 103.48 20.3735C104.89 20.3735 106.113 20.6305 107.149 21.1444C108.195 21.6582 109.002 22.3595 109.568 23.2481C110.134 24.1367 110.417 25.143 110.417 26.2672C110.417 26.9952 110.289 27.6589 110.032 28.2585C109.776 28.8473 109.429 29.3665 108.991 29.8162C108.553 30.2551 108.067 30.6084 107.533 30.8761C108.676 31.3686 109.6 32.1126 110.305 33.1083C111.01 34.1039 111.362 35.2655 111.362 36.5931C111.362 37.9741 111.036 39.1946 110.385 40.2545C109.733 41.3144 108.815 42.1441 107.629 42.7436C106.454 43.3325 105.071 43.6269 103.48 43.6269ZM103.48 40.2545C104.281 40.2545 104.991 40.0993 105.611 39.7888C106.241 39.4676 106.732 39.0233 107.085 38.4559C107.448 37.8885 107.629 37.2194 107.629 36.4485C107.629 35.7205 107.453 35.0675 107.101 34.4893C106.748 33.9112 106.257 33.4562 105.627 33.1243C105.007 32.7924 104.292 32.6265 103.48 32.6265C102.658 32.6265 101.937 32.7924 101.317 33.1243C100.698 33.4562 100.217 33.9112 99.8754 34.4893C99.5336 35.0675 99.3628 35.7205 99.3628 36.4485C99.3628 37.2194 99.5336 37.8885 99.8754 38.4559C100.228 39.0233 100.714 39.4676 101.333 39.7888C101.953 40.0993 102.668 40.2545 103.48 40.2545ZM103.48 29.3987C104.452 29.3987 105.237 29.131 105.835 28.5957C106.444 28.0497 106.748 27.3699 106.748 26.5562C106.748 25.6997 106.444 25.0039 105.835 24.4686C105.226 23.9333 104.441 23.6656 103.48 23.6656C102.519 23.6656 101.739 23.9333 101.141 24.4686C100.543 25.0039 100.244 25.6997 100.244 26.5562C100.244 27.3699 100.532 28.0497 101.109 28.5957C101.696 29.131 102.487 29.3987 103.48 29.3987Z" fill="#002823"/>
<path d="M79.1865 43.2003V20.8003H82.8445V39.6323H93.6284V43.2003H79.1865Z" fill="#002823"/>
<path d="M59.9663 43.2003V20.8003H69.0933C70.941 20.8003 72.4065 21.1416 73.4896 21.8243C74.5834 22.4963 75.3639 23.3656 75.8311 24.4323C76.2983 25.4883 76.5319 26.587 76.5319 27.7283C76.5319 28.5283 76.3939 29.3336 76.1178 30.1443C75.8523 30.9443 75.4223 31.6856 74.8276 32.3683C74.2329 33.051 73.4631 33.6003 72.518 34.0163C71.5729 34.4216 70.4313 34.6243 69.0933 34.6243H63.6458V43.2003H59.9663ZM63.6458 31.1683H69.2845C70.1446 31.1683 70.8295 30.9976 71.3393 30.6563C71.849 30.3043 72.2153 29.867 72.4383 29.3443C72.6613 28.811 72.7728 28.2723 72.7728 27.7283C72.7728 27.2376 72.6719 26.7256 72.4702 26.1923C72.279 25.6483 71.9286 25.1896 71.4189 24.8163C70.9092 24.443 70.1977 24.2563 69.2845 24.2563H63.6458V31.1683Z" fill="#002823"/>
</svg>
