<svg width="348" height="112" viewBox="0 0 348 112" fill="none" xmlns="http://www.w3.org/2000/svg">
<path fill-rule="evenodd" clip-rule="evenodd" d="M89.3793 55.9999C89.3793 74.5567 74.457 89.5999 56.0495 89.5999L45.8654 89.5999V70.9332L56.0495 70.9332C64.2306 70.9332 70.8627 64.2474 70.8627 55.9999C70.8627 47.7524 64.2306 41.0666 56.0495 41.0666C47.8684 41.0666 41.2363 47.7524 41.2363 55.9999V89.5999L22.7197 89.5999V55.9999C22.7197 37.4431 37.642 22.3999 56.0495 22.3999C74.457 22.3999 89.3793 37.4431 89.3793 55.9999Z" fill="#002823"/>
<path d="M307.91 75.5999V42.5879H296.95V36.3999H325.281V42.5879H314.32V75.5999H307.91Z" fill="#002823"/>
<path d="M266.027 75.5999L280.498 36.3999H286.553L301.024 75.5999H294.219L291.08 66.8639H275.999L272.916 75.5999H266.027ZM278.054 61.0119H288.969L284.692 49.1679C284.581 48.8506 284.451 48.4772 284.303 48.0479C284.155 47.6186 284.007 47.1986 283.859 46.7879C283.711 46.3586 283.6 45.9759 283.525 45.6399C283.433 45.9759 283.313 46.3586 283.164 46.7879C283.035 47.1986 282.896 47.6186 282.748 48.0479C282.6 48.4772 282.47 48.8506 282.359 49.1679L278.054 61.0119Z" fill="#002823"/>
<path d="M231.587 75.5999V36.3999H237.987V52.2759H254.998V36.3999H261.399V75.5999H254.998V58.4079H237.987V75.5999H231.587Z" fill="#002823"/>
<path d="M213.514 76.3465C210.526 76.3465 208 75.7676 205.934 74.6097C203.869 73.4518 202.2 71.9018 200.927 69.9596C199.673 67.9987 198.76 65.823 198.189 63.4326C197.617 61.0234 197.331 58.5863 197.331 56.1212C197.331 53.7494 197.626 51.3683 198.216 48.9779C198.806 46.5875 199.738 44.4025 201.01 42.4229C202.283 40.4433 203.952 38.8559 206.017 37.6607C208.083 36.4468 210.581 35.8398 213.514 35.8398C215.929 35.8398 218.013 36.232 219.765 37.0164C221.517 37.8007 222.965 38.8092 224.108 40.0418C225.27 41.2743 226.146 42.5723 226.736 43.9356L221.038 46.6808C220.411 45.7471 219.756 44.9254 219.074 44.2157C218.391 43.506 217.598 42.9551 216.695 42.5629C215.81 42.1708 214.749 41.9747 213.514 41.9747C211.725 41.9747 210.213 42.4042 208.977 43.2633C207.741 44.1223 206.755 45.2522 206.017 46.6528C205.298 48.0535 204.772 49.5848 204.44 51.2469C204.108 52.8904 203.942 54.5151 203.942 56.1212C203.942 57.8206 204.127 59.5108 204.496 61.1915C204.864 62.8536 205.436 64.3663 206.211 65.7296C206.985 67.0742 207.972 68.1574 209.171 68.9791C210.388 69.7822 211.835 70.1837 213.514 70.1837C215.321 70.1837 216.815 69.7261 217.995 68.811C219.194 67.8773 220.236 66.6727 221.121 65.1974L226.958 67.4104C226.183 69.1098 225.187 70.6319 223.97 71.9765C222.753 73.3211 221.278 74.3856 219.544 75.17C217.829 75.9543 215.819 76.3465 213.514 76.3465Z" fill="#002823"/>
<path d="M180.069 76.3467C177.313 76.3467 174.91 75.8314 172.862 74.801C170.813 73.7518 169.221 72.2998 168.085 70.445C166.967 68.5902 166.409 66.4543 166.409 64.0375C166.409 61.6956 167.005 59.6721 168.197 57.9672C169.407 56.2435 171.009 54.9508 173.001 54.089C172.07 53.6206 171.223 52.993 170.459 52.2061C169.714 51.4192 169.118 50.5105 168.671 49.4801C168.243 48.4309 168.029 47.2599 168.029 45.9672C168.029 43.9999 168.522 42.2388 169.51 40.6838C170.497 39.1287 171.884 37.9016 173.672 37.0023C175.478 36.103 177.611 35.6533 180.069 35.6533C182.527 35.6533 184.66 36.103 186.466 37.0023C188.291 37.9016 189.697 39.1287 190.684 40.6838C191.671 42.2388 192.165 43.9999 192.165 45.9672C192.165 47.2412 191.942 48.4028 191.495 49.452C191.048 50.4824 190.442 51.3911 189.679 52.178C188.915 52.9461 188.068 53.5644 187.137 54.0328C189.129 54.8946 190.74 56.1967 191.969 57.9391C193.199 59.6815 193.813 61.7143 193.813 64.0375C193.813 66.4543 193.245 68.5902 192.109 70.445C190.973 72.2998 189.371 73.7518 187.304 74.801C185.256 75.8314 182.844 76.3467 180.069 76.3467ZM180.069 70.445C181.466 70.445 182.704 70.1733 183.784 69.63C184.883 69.0679 185.74 68.2904 186.354 67.2974C186.988 66.3045 187.304 65.1335 187.304 63.7846C187.304 62.5105 186.997 61.3677 186.382 60.356C185.768 59.3443 184.911 58.548 183.812 57.9672C182.732 57.3864 181.484 57.096 180.069 57.096C178.635 57.096 177.378 57.3864 176.298 57.9672C175.218 58.548 174.38 59.3443 173.784 60.356C173.188 61.3677 172.89 62.5105 172.89 63.7846C172.89 65.1335 173.188 66.3045 173.784 67.2974C174.398 68.2904 175.246 69.0679 176.326 69.63C177.406 70.1733 178.654 70.445 180.069 70.445ZM180.069 51.4473C181.764 51.4473 183.133 50.9789 184.176 50.0421C185.237 49.0866 185.768 47.8969 185.768 46.473C185.768 44.9742 185.237 43.7564 184.176 42.8196C183.114 41.8828 181.745 41.4145 180.069 41.4145C178.393 41.4145 177.033 41.8828 175.99 42.8196C174.948 43.7564 174.426 44.9742 174.426 46.473C174.426 47.8969 174.929 49.0866 175.935 50.0421C176.959 50.9789 178.337 51.4473 180.069 51.4473Z" fill="#002823"/>
<path d="M137.708 75.5999V36.3999H144.086V69.3559H162.891V75.5999H137.708Z" fill="#002823"/>
<path d="M104.193 75.5999V36.3999H120.108C123.33 36.3999 125.885 36.9972 127.774 38.1919C129.681 39.3679 131.042 40.8892 131.857 42.7559C132.671 44.6039 133.079 46.5266 133.079 48.5239C133.079 49.9239 132.838 51.3332 132.357 52.7519C131.894 54.1519 131.144 55.4492 130.107 56.6439C129.07 57.8386 127.727 58.7999 126.079 59.5279C124.431 60.2372 122.441 60.5919 120.108 60.5919H110.609V75.5999H104.193ZM110.609 54.5439H120.441C121.941 54.5439 123.135 54.2452 124.024 53.6479C124.913 53.0319 125.552 52.2666 125.941 51.3519C126.329 50.4186 126.524 49.4759 126.524 48.5239C126.524 47.6652 126.348 46.7692 125.996 45.8359C125.663 44.8839 125.052 44.0812 124.163 43.4279C123.274 42.7746 122.034 42.4479 120.441 42.4479H110.609V54.5439Z" fill="#002823"/>
</svg>
