<svg width="124" height="28" viewBox="0 0 124 28" fill="none" xmlns="http://www.w3.org/2000/svg">
<path fill-rule="evenodd" clip-rule="evenodd" d="M27.1834 14.0004C27.1834 21.4042 21.0982 27.4061 13.5917 27.4061L9.43867 27.4061V19.9585L13.5917 19.9585C16.9279 19.9585 19.6324 17.291 19.6324 14.0004C19.6324 10.7099 16.9279 8.04233 13.5917 8.04233C10.2555 8.04233 7.55094 10.7099 7.55094 14.0004V27.4061L0 27.4061V14.0004C0 6.59666 6.0852 0.594727 13.5917 0.594727C21.0982 0.594727 27.1834 6.59666 27.1834 14.0004Z" fill="black"/>
<path d="M116.3 21.8197V8.64857H111.83V6.17969H123.383V8.64857H118.913V21.8197H116.3Z" fill="black"/>
<path d="M99.22 21.8197L105.121 6.17969H107.59L113.491 21.8197H110.716L109.436 18.3342H103.286L102.029 21.8197H99.22ZM104.124 15.9994H108.576L106.831 11.2739C106.786 11.1472 106.733 10.9983 106.673 10.827C106.612 10.6557 106.552 10.4881 106.492 10.3243C106.431 10.153 106.386 10.0003 106.356 9.86625C106.318 10.0003 106.269 10.153 106.208 10.3243C106.156 10.4881 106.099 10.6557 106.038 10.827C105.978 10.9983 105.925 11.1472 105.88 11.2739L104.124 15.9994Z" fill="black"/>
<path d="M85.1753 21.8197V6.17969H87.7852V12.5139H94.7224V6.17969H97.3323V21.8197H94.7224V14.9604H87.7852V21.8197H85.1753Z" fill="black"/>
<path d="M77.8052 22.1174C76.5869 22.1174 75.5566 21.8864 74.7143 21.4244C73.872 20.9625 73.1914 20.344 72.6725 19.5691C72.1611 18.7867 71.7889 17.9187 71.5558 16.965C71.3226 16.0038 71.2061 15.0314 71.2061 14.0479C71.2061 13.1016 71.3264 12.1516 71.567 11.1979C71.8077 10.2441 72.1875 9.37236 72.7064 8.58255C73.2253 7.79274 73.9059 7.1594 74.7482 6.68253C75.5904 6.19821 76.6094 5.95605 77.8052 5.95605C78.7904 5.95605 79.6402 6.11253 80.3546 6.42547C81.069 6.73841 81.6594 7.14077 82.1257 7.63254C82.5994 8.12431 82.9567 8.64215 83.1973 9.18608L80.8735 10.2814C80.6178 9.90883 80.3508 9.58099 80.0726 9.29785C79.7943 9.01471 79.471 8.7949 79.1025 8.63843C78.7415 8.48196 78.3091 8.40372 77.8052 8.40372C77.0757 8.40372 76.459 8.5751 75.9552 8.91784C75.4513 9.26059 75.049 9.71138 74.7482 10.2702C74.4549 10.829 74.2405 11.44 74.1052 12.1032C73.9698 12.7589 73.9021 13.4071 73.9021 14.0479C73.9021 14.7259 73.9773 15.4002 74.1277 16.0708C74.2781 16.734 74.5113 17.3375 74.8271 17.8814C75.143 18.4179 75.5453 18.8501 76.0341 19.1779C76.5305 19.4983 77.1208 19.6585 77.8052 19.6585C78.5422 19.6585 79.1513 19.476 79.6326 19.1109C80.1215 18.7383 80.5464 18.2577 80.9073 17.6691L83.2876 18.552C82.9717 19.2301 82.5656 19.8373 82.0693 20.3738C81.5729 20.9103 80.9713 21.335 80.2644 21.6479C79.565 21.9609 78.7452 22.1174 77.8052 22.1174Z" fill="black"/>
<path d="M64.1666 22.1176C63.0426 22.1176 62.0629 21.9121 61.2275 21.5009C60.3921 21.0823 59.7427 20.503 59.2795 19.763C58.8238 19.023 58.5959 18.1708 58.5959 17.2065C58.5959 16.2721 58.839 15.4648 59.325 14.7846C59.8187 14.0969 60.4718 13.5811 61.2844 13.2373C60.9047 13.0504 60.5591 12.8 60.2478 12.486C59.944 12.1721 59.701 11.8095 59.5187 11.3984C59.344 10.9798 59.2567 10.5126 59.2567 9.99684C59.2567 9.21197 59.4579 8.50931 59.8604 7.88888C60.263 7.26846 60.8287 6.77884 61.5578 6.42004C62.2945 6.06124 63.1641 5.88184 64.1666 5.88184C65.169 5.88184 66.0386 6.06124 66.7753 6.42004C67.5195 6.77884 68.0929 7.26846 68.4954 7.88888C68.898 8.50931 69.0992 9.21197 69.0992 9.99684C69.0992 10.5051 69.0081 10.9686 68.8258 11.3872C68.6435 11.7983 68.3967 12.1609 68.0853 12.4748C67.774 12.7813 67.4284 13.028 67.0487 13.2148C67.8613 13.5587 68.5182 14.0782 69.0195 14.7734C69.5207 15.4686 69.7713 16.2796 69.7713 17.2065C69.7713 18.1708 69.5397 19.023 69.0764 19.763C68.6132 20.503 67.96 21.0823 67.117 21.5009C66.2816 21.9121 65.2981 22.1176 64.1666 22.1176ZM64.1666 19.763C64.7361 19.763 65.2412 19.6546 65.6817 19.4378C66.1297 19.2136 66.4791 18.9034 66.7297 18.5072C66.9879 18.111 67.117 17.6438 67.117 17.1056C67.117 16.5973 66.9917 16.1413 66.7411 15.7377C66.4905 15.334 66.1411 15.0163 65.6931 14.7846C65.2526 14.5529 64.7437 14.437 64.1666 14.437C63.5818 14.437 63.0691 14.5529 62.6287 14.7846C62.1882 15.0163 61.8464 15.334 61.6034 15.7377C61.3604 16.1413 61.2389 16.5973 61.2389 17.1056C61.2389 17.6438 61.3604 18.111 61.6034 18.5072C61.854 18.9034 62.1996 19.2136 62.64 19.4378C63.0805 19.6546 63.5894 19.763 64.1666 19.763ZM64.1666 12.1833C64.8577 12.1833 65.4159 11.9964 65.8412 11.6227C66.274 11.2414 66.4905 10.7668 66.4905 10.1987C66.4905 9.60067 66.274 9.11479 65.8412 8.74104C65.4083 8.36729 64.8501 8.18041 64.1666 8.18041C63.483 8.18041 62.9286 8.36729 62.5033 8.74104C62.078 9.11479 61.8654 9.60067 61.8654 10.1987C61.8654 10.7668 62.0705 11.2414 62.4806 11.6227C62.8983 11.9964 63.4603 12.1833 64.1666 12.1833Z" fill="black"/>
<path d="M46.8921 21.8197V6.17969H49.4932V19.3284H57.1614V21.8197H46.8921Z" fill="black"/>
<path d="M33.2249 21.8197V6.17969H39.7149C41.0287 6.17969 42.0708 6.41801 42.841 6.89466C43.6187 7.36386 44.1737 7.97084 44.506 8.7156C44.8382 9.45291 45.0043 10.22 45.0043 11.0169C45.0043 11.5755 44.9062 12.1378 44.7098 12.7038C44.5211 13.2624 44.2152 13.78 43.7924 14.2566C43.3695 14.7333 42.8221 15.1168 42.1501 15.4073C41.478 15.6903 40.6663 15.8318 39.7149 15.8318H35.8413V21.8197H33.2249ZM35.8413 13.4188H39.8508C40.4624 13.4188 40.9495 13.2996 41.3119 13.0613C41.6744 12.8155 41.9349 12.5102 42.0934 12.1452C42.252 11.7728 42.3313 11.3967 42.3313 11.0169C42.3313 10.6743 42.2595 10.3168 42.1161 9.94445C41.9802 9.56463 41.731 9.24438 41.3685 8.98371C41.0061 8.72305 40.5002 8.59271 39.8508 8.59271H35.8413V13.4188Z" fill="black"/>
</svg>
