<svg width="147" height="32" viewBox="0 0 147 32" fill="none" xmlns="http://www.w3.org/2000/svg">
<path fill-rule="evenodd" clip-rule="evenodd" d="M32.3023 16.0004C32.3023 24.7984 25.0712 31.9306 16.1512 31.9306L11.2161 31.9306V23.0805L16.1512 23.0805C20.1156 23.0805 23.3294 19.9107 23.3294 16.0004C23.3294 12.0902 20.1156 8.92039 16.1512 8.92039C12.1867 8.92039 8.97287 12.0902 8.97287 16.0004V31.9306L0 31.9306V16.0004C0 7.20248 7.23112 0.0703125 16.1512 0.0703125C25.0712 0.0703125 32.3023 7.20248 32.3023 16.0004Z" fill="black"/>
<path d="M138.2 25.2922V9.64083H132.889V6.70703H146.618V9.64083H141.306V25.2922H138.2Z" fill="black"/>
<path d="M117.904 25.2922L124.917 6.70703H127.851L134.863 25.2922H131.565L130.045 21.1504H122.736L121.242 25.2922H117.904ZM123.732 18.3759H129.022L126.949 12.7605C126.895 12.61 126.832 12.433 126.761 12.2295C126.689 12.0259 126.617 11.8268 126.545 11.6321C126.473 11.4285 126.42 11.2471 126.384 11.0878C126.339 11.2471 126.28 11.4285 126.209 11.6321C126.146 11.8268 126.079 12.0259 126.007 12.2295C125.935 12.433 125.872 12.61 125.818 12.7605L123.732 18.3759Z" fill="black"/>
<path d="M101.215 25.2922V6.70703H104.316V14.234H112.56V6.70703H115.661V25.2922H112.56V17.1413H104.316V25.2922H101.215Z" fill="black"/>
<path d="M92.4566 25.647C91.0089 25.647 89.7845 25.3726 88.7837 24.8236C87.7828 24.2747 86.974 23.5398 86.3574 22.6189C85.7497 21.6892 85.3073 20.6577 85.0303 19.5244C84.7533 18.3822 84.6147 17.2267 84.6147 16.058C84.6147 14.9335 84.7577 13.8046 85.0437 12.6713C85.3297 11.5379 85.781 10.502 86.3976 9.56347C87.0142 8.62493 87.823 7.87233 88.8239 7.30566C89.8248 6.73014 91.0357 6.44238 92.4566 6.44238C93.6273 6.44238 94.6371 6.62832 95.4861 7.00019C96.335 7.37207 97.0366 7.85019 97.5906 8.43457C98.1536 9.01894 98.5781 9.63431 98.8641 10.2807L96.1027 11.5822C95.7988 11.1395 95.4816 10.7499 95.1509 10.4135C94.8203 10.077 94.436 9.81582 93.9981 9.62988C93.5692 9.44394 93.0553 9.35097 92.4566 9.35097C91.5897 9.35097 90.8569 9.55462 90.2582 9.96191C89.6594 10.3692 89.1813 10.9049 88.8239 11.5689C88.4753 12.233 88.2206 12.959 88.0598 13.7471C87.8989 14.5262 87.8185 15.2965 87.8185 16.058C87.8185 16.8637 87.9079 17.665 88.0866 18.4619C88.2653 19.2499 88.5424 19.9671 88.9177 20.6135C89.293 21.251 89.7711 21.7645 90.352 22.1541C90.9418 22.5348 91.6433 22.7252 92.4566 22.7252C93.3324 22.7252 94.0562 22.5082 94.6282 22.0744C95.209 21.6317 95.7139 21.0606 96.1429 20.3611L98.9713 21.4103C98.596 22.2161 98.1134 22.9377 97.5236 23.5752C96.9338 24.2127 96.2189 24.7174 95.3788 25.0892C94.5477 25.4611 93.5736 25.647 92.4566 25.647Z" fill="black"/>
<path d="M76.25 25.6467C74.9143 25.6467 73.7501 25.4024 72.7574 24.9139C71.7647 24.4164 70.9931 23.728 70.4426 22.8486C69.9011 21.9693 69.6304 20.9566 69.6304 19.8108C69.6304 18.7004 69.9192 17.7411 70.4967 16.9328C71.0833 16.1156 71.8595 15.5027 72.8251 15.0941C72.3739 14.872 71.9633 14.5744 71.5932 14.2014C71.2323 13.8283 70.9435 13.3975 70.7269 12.9089C70.5193 12.4115 70.4155 11.8563 70.4155 11.2434C70.4155 10.3107 70.6547 9.47577 71.133 8.73851C71.6113 8.00125 72.2836 7.41944 73.15 6.99307C74.0254 6.5667 75.0587 6.35352 76.25 6.35352C77.4412 6.35352 78.4746 6.5667 79.35 6.99307C80.2344 7.41944 80.9158 8.00125 81.3941 8.73851C81.8724 9.47577 82.1115 10.3107 82.1115 11.2434C82.1115 11.8474 82.0032 12.3982 81.7866 12.8956C81.57 13.3842 81.2767 13.815 80.9067 14.188C80.5367 14.5522 80.1261 14.8454 79.6749 15.0674C80.6405 15.476 81.4211 16.0934 82.0168 16.9195C82.6124 17.7455 82.9102 18.7093 82.9102 19.8108C82.9102 20.9566 82.635 21.9693 82.0844 22.8486C81.5339 23.728 80.7578 24.4164 79.7561 24.9139C78.7634 25.4024 77.5947 25.6467 76.25 25.6467ZM76.25 22.8486C76.9268 22.8486 77.527 22.7198 78.0504 22.4622C78.5829 22.1958 78.998 21.8271 79.2958 21.3564C79.6027 20.8856 79.7561 20.3304 79.7561 19.6908C79.7561 19.0868 79.6072 18.545 79.3094 18.0653C79.0115 17.5857 78.5964 17.2081 78.0639 16.9328C77.5405 16.6574 76.9359 16.5197 76.25 16.5197C75.5551 16.5197 74.9459 16.6574 74.4225 16.9328C73.899 17.2081 73.4929 17.5857 73.2041 18.0653C72.9154 18.545 72.771 19.0868 72.771 19.6908C72.771 20.3304 72.9154 20.8856 73.2041 21.3564C73.502 21.8271 73.9126 22.1958 74.436 22.4622C74.9595 22.7198 75.5641 22.8486 76.25 22.8486ZM76.25 13.8416C77.0712 13.8416 77.7345 13.6195 78.2399 13.1754C78.7543 12.7224 79.0115 12.1583 79.0115 11.4833C79.0115 10.7726 78.7543 10.1953 78.2399 9.75114C77.7255 9.307 77.0622 9.08494 76.25 9.08494C75.4378 9.08494 74.779 9.307 74.2736 9.75114C73.7682 10.1953 73.5155 10.7726 73.5155 11.4833C73.5155 12.1583 73.7592 12.7224 74.2465 13.1754C74.7429 13.6195 75.4107 13.8416 76.25 13.8416Z" fill="black"/>
<path d="M55.7222 25.2922V6.70703H58.8131V22.3318H67.9253V25.2922H55.7222Z" fill="black"/>
<path d="M39.4814 25.2922V6.70703H47.1936C48.7549 6.70703 49.9932 6.99023 50.9084 7.55664C51.8326 8.11419 52.4921 8.83548 52.8869 9.72048C53.2817 10.5966 53.4791 11.5082 53.4791 12.4552C53.4791 13.1189 53.3625 13.7871 53.1292 14.4597C52.9048 15.1235 52.5414 15.7385 52.039 16.3049C51.5365 16.8713 50.886 17.3271 50.0874 17.6723C49.2888 18.0086 48.3242 18.1767 47.1936 18.1767H42.5905V25.2922H39.4814ZM42.5905 15.3093H47.3551C48.0819 15.3093 48.6607 15.1677 49.0914 14.8845C49.5221 14.5924 49.8316 14.2296 50.0201 13.7959C50.2085 13.3534 50.3027 12.9065 50.3027 12.4552C50.3027 12.0481 50.2175 11.6232 50.047 11.1807C49.8855 10.7294 49.5894 10.3488 49.1587 10.0391C48.728 9.72933 48.1268 9.57446 47.3551 9.57446H42.5905V15.3093Z" fill="black"/>
</svg>
