<svg width="25" height="24" viewBox="0 0 25 24" fill="none" xmlns="http://www.w3.org/2000/svg">
<g id="Speakerphone">
<path id="Icon" d="M11.6667 5.88218V19.2402C11.6667 20.2121 10.8788 21 9.90693 21C9.1632 21 8.49977 20.5325 8.24963 19.8321L6.10322 13.6829M18.6667 13C20.3236 13 21.6667 11.6569 21.6667 10C21.6667 8.34315 20.3236 7 18.6667 7M6.10322 13.6829C4.67105 13.0741 3.66675 11.6543 3.66675 10C3.66675 7.79086 5.4576 6 7.66674 6H9.49883C13.5995 6 17.1236 4.7659 18.6667 3L18.6667 17C17.1236 15.2341 13.5995 14 9.49883 14L7.66672 14C7.11193 14 6.58351 13.887 6.10322 13.6829Z" stroke="white" stroke-width="2" stroke-linecap="round" stroke-linejoin="round"/>
</g>
</svg>
