<svg width="24" height="24" viewBox="0 0 24 24" fill="none" xmlns="http://www.w3.org/2000/svg">
<g id="checkmark-circle" clip-path="url(#clip0_16428_61415)">
<g id="Success Icon">
<path id="Vector" d="M12 0.674805C5.73755 0.674805 0.675049 5.7373 0.675049 11.9998C0.675049 18.2623 5.73755 23.3623 12 23.3623C18.2626 23.3623 23.3625 18.2623 23.3625 11.9998C23.3625 5.7373 18.2626 0.674805 12 0.674805ZM12 21.6748C6.67505 21.6748 2.36255 17.3248 2.36255 11.9998C2.36255 6.67481 6.67505 2.3623 12 2.3623C17.325 2.3623 21.675 6.7123 21.675 12.0373C21.675 17.3248 17.325 21.6748 12 21.6748Z" fill="#34C759"/>
<path id="Vector_2" d="M15.2251 8.51251L10.7626 12.8625L8.73761 10.875C8.40011 10.5375 7.87511 10.575 7.53761 10.875C7.20011 11.2125 7.23761 11.7375 7.53761 12.075L9.93761 14.4C10.1626 14.625 10.4626 14.7375 10.7626 14.7375C11.0626 14.7375 11.3626 14.625 11.5876 14.4L16.4251 9.75001C16.7626 9.41251 16.7626 8.88751 16.4251 8.55001C16.0876 8.21251 15.5626 8.21251 15.2251 8.51251Z" fill="#34C759"/>
</g>
</g>
<defs>
<clipPath id="clip0_16428_61415">
<rect width="24" height="24" fill="white"/>
</clipPath>
</defs>
</svg>
