<svg width="118" height="38" viewBox="0 0 118 38" fill="none" xmlns="http://www.w3.org/2000/svg">
<path d="M116.433 33.6174C116.433 35.6425 114.948 37.2828 113.111 37.2828H4.41799C2.58231 37.2828 1.09229 35.6425 1.09229 33.6174V4.38699C1.09229 2.36288 2.58231 0.716797 4.41799 0.716797H113.11C114.948 0.716797 116.432 2.36288 116.432 4.38699L116.433 33.6174Z" fill="black"/>
<path d="M112.76 0.761183C114.76 0.761183 116.388 2.55075 116.388 4.75V33.25C116.388 35.4492 114.76 37.2388 112.76 37.2388H4.76371C2.76361 37.2388 1.13611 35.4492 1.13611 33.25V4.75C1.13611 2.55075 2.76361 0.761183 4.76371 0.761183H112.76ZM112.76 -2.71589e-06H4.76371C2.38887 -2.71589e-06 0.443848 2.13868 0.443848 4.75V33.25C0.443848 35.8613 2.38887 38 4.76371 38H112.76C115.135 38 117.08 35.8613 117.08 33.25V4.75C117.08 2.13868 115.135 -2.71589e-06 112.76 -2.71589e-06Z" fill="#A6A6A6"/>
<path d="M26.4735 18.7929C26.4485 15.7311 28.7535 14.2415 28.8589 14.1721C27.5535 12.0793 25.5301 11.7933 24.819 11.7705C23.1196 11.5739 21.4711 12.8887 20.6054 12.8887C19.7224 12.8887 18.3893 11.7895 16.9525 11.8218C15.1036 11.8532 13.374 13.0302 12.4253 14.858C10.4676 18.5849 11.9277 24.0616 13.8034 27.0741C14.7416 28.5494 15.838 30.1967 17.2731 30.1388C18.677 30.0751 19.2015 29.1546 20.8957 29.1546C22.5744 29.1546 23.0669 30.1388 24.5304 30.1017C26.0372 30.0751 26.9859 28.6197 27.8913 27.1311C28.9756 25.4401 29.411 23.7747 29.4283 23.6892C29.3929 23.6759 26.502 22.4628 26.4735 18.7929Z" fill="white"/>
<path d="M23.7088 9.78885C24.4639 8.7505 24.9806 7.33785 24.8372 5.9043C23.7442 5.9575 22.3774 6.73555 21.5903 7.7511C20.894 8.646 20.2719 10.1128 20.4326 11.4922C21.6603 11.5929 22.9209 10.811 23.7088 9.78885Z" fill="white"/>
<path d="M46.7912 29.9297H44.8291L43.7543 26.2162H40.0185L38.9947 29.9297H37.0845L40.7857 17.2871H43.0718L46.7912 29.9297ZM43.4304 24.6582L42.4584 21.3569C42.3556 21.0197 42.1629 20.2255 41.8787 18.9753H41.8441C41.7309 19.513 41.5486 20.3072 41.2981 21.3569L40.3434 24.6582H43.4304Z" fill="white"/>
<path d="M56.3101 25.2601C56.3101 26.8105 55.9291 28.036 55.1671 28.9357C54.4846 29.7365 53.637 30.1365 52.6253 30.1365C51.5332 30.1365 50.7488 29.7052 50.271 28.8426H50.2364V33.6448H48.3944V23.8152C48.3944 22.8405 48.3711 21.8401 48.3262 20.8141H49.9461L50.0489 22.2591H50.0835C50.6978 21.1704 51.63 20.627 52.881 20.627C53.8591 20.627 54.6755 21.0516 55.3287 21.9019C55.9836 22.7531 56.3101 23.8722 56.3101 25.2601ZM54.4336 25.3342C54.4336 24.4469 54.2522 23.7154 53.8876 23.1397C53.4893 22.5393 52.9545 22.2391 52.284 22.2391C51.8296 22.2391 51.4166 22.4063 51.0477 22.736C50.6779 23.0685 50.436 23.5026 50.3228 24.0403C50.2658 24.2911 50.2373 24.4963 50.2373 24.6578V26.1778C50.2373 26.8409 50.4222 27.4005 50.7919 27.8574C51.1617 28.3144 51.6421 28.5424 52.2331 28.5424C52.9268 28.5424 53.4668 28.2479 53.853 27.6608C54.2401 27.0727 54.4336 26.2975 54.4336 25.3342Z" fill="white"/>
<path d="M65.8454 25.2601C65.8454 26.8105 65.4644 28.036 64.7015 28.9357C64.0198 29.7365 63.1723 30.1365 62.1606 30.1365C61.0685 30.1365 60.284 29.7052 59.8071 28.8426H59.7725V33.6448H57.9306V23.8152C57.9306 22.8405 57.9072 21.8401 57.8623 20.8141H59.4823L59.5851 22.2591H59.6196C60.233 21.1704 61.1653 20.627 62.4172 20.627C63.3943 20.627 64.2108 21.0516 64.8657 21.9019C65.518 22.7531 65.8454 23.8722 65.8454 25.2601ZM63.9689 25.3342C63.9689 24.4469 63.7866 23.7154 63.422 23.1397C63.0237 22.5393 62.4906 22.2391 61.8193 22.2391C61.364 22.2391 60.9519 22.4063 60.5821 22.736C60.2123 23.0685 59.9713 23.5026 59.8581 24.0403C59.8019 24.2911 59.7725 24.4963 59.7725 24.6578V26.1778C59.7725 26.8409 59.9574 27.4005 60.3255 27.8574C60.6953 28.3134 61.1756 28.5424 61.7683 28.5424C62.4621 28.5424 63.0021 28.2479 63.3883 27.6608C63.7753 27.0727 63.9689 26.2975 63.9689 25.3342Z" fill="white"/>
<path d="M76.5065 26.384C76.5065 27.4594 76.167 28.3344 75.4853 29.0098C74.7362 29.748 73.6934 30.1166 72.3534 30.1166C71.1162 30.1166 70.1243 29.8544 69.3735 29.329L69.8003 27.6409C70.609 28.1786 71.4963 28.4484 72.4631 28.4484C73.1569 28.4484 73.6969 28.2755 74.0848 27.9316C74.471 27.5877 74.6636 27.126 74.6636 26.5503C74.6636 26.0373 74.5047 25.605 74.1859 25.2545C73.8688 24.9039 73.3392 24.5781 72.5996 24.2769C70.5866 23.4514 69.5809 22.242 69.5809 20.6517C69.5809 19.6124 69.9334 18.7603 70.6393 18.0972C71.3425 17.4331 72.2808 17.1016 73.4541 17.1016C74.5003 17.1016 75.3695 17.302 76.0633 17.702L75.6028 19.3531C74.9548 18.9655 74.2222 18.7717 73.4022 18.7717C72.7543 18.7717 72.248 18.9474 71.8851 19.297C71.5784 19.6096 71.4246 19.9905 71.4246 20.4418C71.4246 20.9415 71.6 21.3547 71.9525 21.6796C72.2592 21.9798 72.8165 22.3047 73.6251 22.6553C74.6144 23.0932 75.341 23.6053 75.8084 24.1924C76.2741 24.7776 76.5065 25.51 76.5065 26.384Z" fill="white"/>
<path d="M82.5969 22.3325H80.5666V26.7585C80.5666 27.8843 80.9243 28.4467 81.6414 28.4467C81.9705 28.4467 82.2435 28.4153 82.4595 28.3526L82.5105 29.8907C82.1476 30.0398 81.6699 30.1149 81.078 30.1149C80.3506 30.1149 79.7821 29.8707 79.3717 29.3834C78.963 28.8951 78.7574 28.0762 78.7574 26.9257V22.3306H77.5479V20.8106H78.7574V19.1414L80.5666 18.541V20.8106H82.5969V22.3325Z" fill="white"/>
<path d="M91.7582 25.3001C91.7582 26.7014 91.3936 27.8518 90.6661 28.7515C89.9032 29.6777 88.8906 30.1394 87.6284 30.1394C86.4119 30.1394 85.4434 29.6958 84.7211 28.8085C83.9988 27.9212 83.6377 26.8011 83.6377 25.4512C83.6377 24.0385 84.0092 22.8814 84.7548 21.9818C85.4987 21.0812 86.5026 20.6309 87.7649 20.6309C88.9814 20.6309 89.9602 21.0745 90.6989 21.9628C91.4057 22.8244 91.7582 23.9369 91.7582 25.3001ZM89.8471 25.3657C89.8471 24.5249 89.6838 23.8039 89.3529 23.2025C88.9667 22.4748 88.4146 22.1119 87.6992 22.1119C86.9588 22.1119 86.3964 22.4758 86.0102 23.2025C85.6793 23.8048 85.516 24.5373 85.516 25.4037C85.516 26.2444 85.6793 26.9655 86.0102 27.5659C86.4085 28.2936 86.9649 28.6565 87.6828 28.6565C88.3861 28.6565 88.9382 28.286 89.3365 27.5469C89.676 26.9341 89.8471 26.2055 89.8471 25.3657Z" fill="white"/>
<path d="M97.7452 22.5954C97.5629 22.5583 97.3685 22.5393 97.1646 22.5393C96.5166 22.5393 96.0155 22.8082 95.663 23.3468C95.3563 23.8218 95.2025 24.4222 95.2025 25.1471V29.9303H93.3614L93.3787 23.685C93.3787 22.6343 93.3554 21.6777 93.3096 20.8151H94.914L94.9814 22.5593H95.0323C95.2267 21.9598 95.5334 21.4772 95.9533 21.1153C96.3637 20.7894 96.8069 20.627 97.2847 20.627C97.4549 20.627 97.6087 20.6403 97.7452 20.664V22.5954Z" fill="white"/>
<path d="M105.983 24.9385C105.983 25.3014 105.961 25.6073 105.915 25.8571H100.389C100.411 26.7577 100.678 27.4465 101.191 27.9215C101.657 28.3461 102.259 28.5589 102.999 28.5589C103.817 28.5589 104.563 28.4155 105.234 28.1276L105.523 29.5336C104.739 29.9098 103.812 30.097 102.744 30.097C101.458 30.097 100.449 29.6809 99.7146 28.8496C98.9819 28.0184 98.6147 26.9021 98.6147 25.5018C98.6147 24.1272 98.956 22.9824 99.6394 22.0695C100.355 21.0948 101.322 20.6074 102.538 20.6074C103.733 20.6074 104.637 21.0948 105.252 22.0695C105.738 22.8437 105.983 23.8013 105.983 24.9385ZM104.226 24.4131C104.238 23.8127 104.118 23.294 103.869 22.8561C103.55 22.2927 103.06 22.0115 102.401 22.0115C101.798 22.0115 101.309 22.2861 100.935 22.8371C100.628 23.275 100.446 23.8004 100.389 24.4122H104.226V24.4131Z" fill="white"/>
<path d="M42.8212 9.51266C42.8212 10.6308 42.5162 11.4725 41.9071 12.0378C41.343 12.5593 40.5412 12.8206 39.5027 12.8206C38.9878 12.8206 38.5471 12.7959 38.1782 12.7465V6.63701C38.6595 6.55151 39.1778 6.50781 39.7377 6.50781C40.7269 6.50781 41.4726 6.74436 41.9754 7.21746C42.5387 7.75231 42.8212 8.51706 42.8212 9.51266ZM41.8665 9.54021C41.8665 8.81536 41.692 8.25961 41.343 7.87201C40.9939 7.48536 40.4842 7.29156 39.8129 7.29156C39.5278 7.29156 39.285 7.31246 39.0837 7.35616V12.0007C39.1951 12.0197 39.399 12.0283 39.6954 12.0283C40.3883 12.0283 40.9231 11.8164 41.2998 11.3927C41.6765 10.969 41.8665 10.3515 41.8665 9.54021Z" fill="white"/>
<path d="M47.8835 10.4867C47.8835 11.1754 47.7047 11.7397 47.347 12.1824C46.972 12.6375 46.4752 12.8645 45.8549 12.8645C45.257 12.8645 44.781 12.647 44.4259 12.21C44.0716 11.7739 43.8945 11.2239 43.8945 10.5608C43.8945 9.86726 44.0768 9.29821 44.4432 8.85646C44.8095 8.41471 45.3019 8.19336 45.9223 8.19336C46.5201 8.19336 47.0005 8.41091 47.3642 8.84696C47.7098 9.27066 47.8835 9.81786 47.8835 10.4867ZM46.9444 10.519C46.9444 10.1057 46.8631 9.75136 46.7016 9.45591C46.5115 9.09871 46.2411 8.92011 45.8894 8.92011C45.5257 8.92011 45.2492 9.09871 45.0592 9.45591C44.8967 9.75136 44.8164 10.1114 44.8164 10.537C44.8164 10.9503 44.8976 11.3046 45.0592 11.6001C45.2553 11.9573 45.5283 12.1359 45.8808 12.1359C46.2264 12.1359 46.4977 11.9544 46.6929 11.5906C46.8606 11.2894 46.9444 10.9322 46.9444 10.519Z" fill="white"/>
<path d="M54.6714 8.28516L53.3971 12.7635H52.5677L52.0398 10.8188C51.9059 10.3334 51.797 9.85076 51.7123 9.37196H51.6959C51.6173 9.86406 51.5084 10.3457 51.3685 10.8188L50.8078 12.7635H49.9688L48.7705 8.28516H49.701L50.1615 10.4141C50.273 10.9176 50.3645 11.3974 50.438 11.8515H50.4544C50.5218 11.4772 50.6332 11.0003 50.7905 10.4236L51.3685 8.28611H52.1063L52.6601 10.378C52.794 10.8882 52.9029 11.3793 52.9867 11.8524H53.0117C53.0731 11.3917 53.1655 10.9005 53.2882 10.378L53.7824 8.28611H54.6714V8.28516Z" fill="white"/>
<path d="M59.3639 12.7657H58.4584V10.2007C58.4584 9.41031 58.1854 9.01511 57.6377 9.01511C57.369 9.01511 57.1521 9.12341 56.9836 9.34096C56.8169 9.55851 56.7322 9.81501 56.7322 10.1086V12.7648H55.8268V9.56706C55.8268 9.17376 55.8155 8.74721 55.7939 8.28551H56.5897L56.632 8.98566H56.6571C56.7625 8.76811 56.9197 8.58856 57.1262 8.44511C57.3716 8.27791 57.6463 8.19336 57.947 8.19336C58.3271 8.19336 58.6433 8.32826 58.8947 8.59901C59.2075 8.93056 59.3639 9.42551 59.3639 10.0829V12.7657Z" fill="white"/>
<path d="M61.8616 12.7636H60.957V6.23047H61.8616V12.7636Z" fill="white"/>
<path d="M67.1926 10.4867C67.1926 11.1754 67.0137 11.7397 66.6561 12.1824C66.2811 12.6375 65.7834 12.8645 65.164 12.8645C64.5652 12.8645 64.0892 12.647 63.735 12.21C63.3807 11.7739 63.2036 11.2239 63.2036 10.5608C63.2036 9.86726 63.3859 9.29821 63.7522 8.85646C64.1186 8.41471 64.611 8.19336 65.2305 8.19336C65.8292 8.19336 66.3087 8.41091 66.6733 8.84696C67.0189 9.27066 67.1926 9.81786 67.1926 10.4867ZM66.2526 10.519C66.2526 10.1057 66.1714 9.75136 66.0098 9.45591C65.8206 9.09871 65.5493 8.92011 65.1985 8.92011C64.8339 8.92011 64.5575 9.09871 64.3682 9.45591C64.2058 9.75136 64.1255 10.1114 64.1255 10.537C64.1255 10.9503 64.2067 11.3046 64.3682 11.6001C64.5644 11.9573 64.8374 12.1359 65.1899 12.1359C65.5355 12.1359 65.8059 11.9544 66.0012 11.5906C66.1696 11.2894 66.2526 10.9322 66.2526 10.519Z" fill="white"/>
<path d="M71.574 12.7629H70.761L70.6936 12.247H70.6686C70.3904 12.6584 69.9938 12.8645 69.4789 12.8645C69.0944 12.8645 68.7834 12.7287 68.5493 12.4589C68.3367 12.2138 68.2305 11.9088 68.2305 11.5469C68.2305 10.9997 68.4378 10.5826 68.8551 10.2938C69.2716 10.005 69.8573 9.86346 70.6116 9.87011V9.78651C70.6116 9.19656 70.3299 8.90206 69.7657 8.90206C69.364 8.90206 69.0098 9.01321 68.7039 9.23361L68.5199 8.58001C68.8983 8.32256 69.3657 8.19336 69.9169 8.19336C70.9814 8.19336 71.5153 8.81086 71.5153 10.0459V11.6951C71.5153 12.1425 71.5352 12.4988 71.574 12.7629ZM70.634 11.2239V10.5332C69.6353 10.5142 69.1359 10.8154 69.1359 11.4357C69.1359 11.6694 69.1929 11.8442 69.3096 11.9611C69.4262 12.0779 69.5748 12.1359 69.7519 12.1359C69.9506 12.1359 70.1364 12.0665 70.3057 11.9288C70.4759 11.7901 70.5805 11.6143 70.6193 11.3987C70.6289 11.3502 70.634 11.2913 70.634 11.2239Z" fill="white"/>
<path d="M76.7194 12.7636H75.9159L75.8736 12.0445H75.8485C75.5919 12.5917 75.1548 12.8653 74.5405 12.8653C74.0497 12.8653 73.6411 12.6534 73.3171 12.2297C72.9931 11.806 72.8315 11.256 72.8315 10.5805C72.8315 9.85567 73.0069 9.26857 73.3594 8.82017C73.7007 8.40217 74.1189 8.19317 74.6165 8.19317C75.1634 8.19317 75.5461 8.39552 75.7639 8.80117H75.7811V6.23047H76.6874V11.5571C76.6874 11.9932 76.6978 12.395 76.7194 12.7636ZM75.7811 10.875V10.1283C75.7811 9.99912 75.7725 9.89462 75.7561 9.81482C75.7051 9.57542 75.5954 9.37402 75.4286 9.21157C75.2602 9.04912 75.0571 8.96742 74.823 8.96742C74.4852 8.96742 74.2208 9.11467 74.0264 9.41012C73.8337 9.70557 73.7361 10.0827 73.7361 10.5435C73.7361 10.9862 73.8286 11.3453 74.0143 11.6217C74.2104 11.9162 74.4748 12.0635 74.8057 12.0635C75.1029 12.0635 75.3405 11.9409 75.5211 11.6949C75.6956 11.4678 75.7811 11.1942 75.7811 10.875Z" fill="white"/>
<path d="M84.4631 10.4867C84.4631 11.1754 84.2842 11.7397 83.9266 12.1824C83.5516 12.6375 83.0557 12.8645 82.4345 12.8645C81.8375 12.8645 81.3614 12.647 81.0055 12.21C80.6512 11.7739 80.4741 11.2239 80.4741 10.5608C80.4741 9.86726 80.6564 9.29821 81.0227 8.85646C81.3891 8.41471 81.8815 8.19336 82.5027 8.19336C83.0997 8.19336 83.581 8.41091 83.9438 8.84696C84.2894 9.27066 84.4631 9.81786 84.4631 10.4867ZM83.5248 10.519C83.5248 10.1057 83.4436 9.75136 83.282 9.45591C83.0911 9.09871 82.8215 8.92011 82.469 8.92011C82.1062 8.92011 81.8297 9.09871 81.6388 9.45591C81.4763 9.75136 81.396 10.1114 81.396 10.537C81.396 10.9503 81.4772 11.3046 81.6388 11.6001C81.8349 11.9573 82.1079 12.1359 82.4604 12.1359C82.806 12.1359 83.0781 11.9544 83.2734 11.5906C83.4401 11.2894 83.5248 10.9322 83.5248 10.519Z" fill="white"/>
<path d="M89.3318 12.7657H88.4272V10.2007C88.4272 9.41031 88.1542 9.01511 87.6055 9.01511C87.3369 9.01511 87.12 9.12341 86.9524 9.34096C86.7848 9.55851 86.701 9.81501 86.701 10.1086V12.7648H85.7947V9.56706C85.7947 9.17376 85.7843 8.74721 85.7627 8.28551H86.5575L86.5999 8.98566H86.6249C86.7312 8.76811 86.8884 8.58856 87.0941 8.44511C87.3403 8.27791 87.6142 8.19336 87.9157 8.19336C88.295 8.19336 88.6112 8.32826 88.8626 8.59901C89.1762 8.93056 89.3318 9.42551 89.3318 10.0829V12.7657Z" fill="white"/>
<path d="M95.4248 9.03292H94.4278V11.2084C94.4278 11.7613 94.6049 12.0378 94.9557 12.0378C95.1181 12.0378 95.2529 12.0226 95.3591 11.9912L95.3825 12.7465C95.2036 12.8206 94.9686 12.8576 94.6792 12.8576C94.3215 12.8576 94.0433 12.7379 93.842 12.4985C93.6398 12.2591 93.5396 11.8563 93.5396 11.2911V9.03292H92.9443V8.28717H93.5396V7.46637L94.4269 7.17188V8.28623H95.4239V9.03292H95.4248Z" fill="white"/>
<path d="M100.219 12.7636H99.3124V10.2176C99.3124 9.41487 99.0394 9.01302 98.4925 9.01302C98.0726 9.01302 97.7858 9.24577 97.6286 9.71127C97.6018 9.80912 97.5862 9.92882 97.5862 10.0694V12.7627H96.6816V6.23047H97.5862V8.92942H97.6035C97.8886 8.43827 98.2973 8.19317 98.8269 8.19317C99.2019 8.19317 99.512 8.32807 99.7583 8.59882C100.065 8.93607 100.219 9.43767 100.219 10.1008V12.7636Z" fill="white"/>
<path d="M105.163 10.3126C105.163 10.4912 105.151 10.6413 105.129 10.7638H102.414C102.426 11.2065 102.555 11.5438 102.807 11.7775C103.037 11.9865 103.333 12.091 103.696 12.091C104.098 12.091 104.464 12.0207 104.794 11.8791L104.936 12.5707C104.549 12.755 104.095 12.8472 103.569 12.8472C102.938 12.8472 102.441 12.6429 102.082 12.2344C101.721 11.8259 101.542 11.2778 101.542 10.59C101.542 9.91455 101.709 9.35215 102.045 8.90375C102.396 8.42495 102.87 8.18555 103.469 8.18555C104.054 8.18555 104.499 8.42495 104.8 8.90375C105.043 9.28375 105.163 9.754 105.163 10.3126ZM104.299 10.0551C104.306 9.7597 104.246 9.5051 104.124 9.2904C103.966 9.01395 103.727 8.87525 103.403 8.87525C103.108 8.87525 102.866 9.01015 102.682 9.2809C102.532 9.49655 102.443 9.754 102.414 10.0551H104.299Z" fill="white"/>
</svg>
