<svg width="116" height="37" viewBox="0 0 116 37" fill="none" xmlns="http://www.w3.org/2000/svg">
<path d="M115.356 32.7329C115.356 34.7047 113.879 36.3019 112.052 36.3019H3.9521C2.12643 36.3019 0.644531 34.7047 0.644531 32.7329V4.27173C0.644531 2.30089 2.12643 0.69812 3.9521 0.69812H112.052C113.879 0.69812 115.355 2.30089 115.355 4.27173L115.356 32.7329Z" fill="white"/>
<path d="M111.704 0.741158C113.693 0.741158 115.312 2.48363 115.312 4.625V32.375C115.312 34.5164 113.693 36.2588 111.704 36.2588H4.2963C2.30711 36.2588 0.688481 34.5164 0.688481 32.375V4.625C0.688481 2.48363 2.30711 0.741158 4.2963 0.741158H111.704ZM111.704 3.8147e-06H4.2963C1.93441 3.8147e-06 0 2.08241 0 4.625V32.375C0 34.9176 1.93441 37 4.2963 37H111.704C114.066 37 116 34.9176 116 32.375V4.625C116 2.08241 114.066 3.8147e-06 111.704 3.8147e-06Z" fill="#A6A6A6"/>
<path d="M25.8884 18.3002C25.8635 15.3189 28.156 13.8685 28.2608 13.801C26.9625 11.7632 24.9501 11.4848 24.2429 11.4626C22.5527 11.2711 20.9133 12.5513 20.0523 12.5513C19.1741 12.5513 17.8483 11.4811 16.4194 11.5126C14.5805 11.5431 12.8603 12.6892 11.9168 14.4689C9.96975 18.0976 11.4219 23.4303 13.2874 26.3634C14.2205 27.8 15.3109 29.4039 16.7381 29.3475C18.1344 29.2855 18.656 28.3892 20.341 28.3892C22.0106 28.3892 22.5003 29.3475 23.9559 29.3114C25.4545 29.2855 26.3979 27.8684 27.2984 26.4189C28.3768 24.7724 28.8099 23.1509 28.8271 23.0677C28.7918 23.0547 25.9167 21.8735 25.8884 18.3002Z" fill="black"/>
<path d="M23.1388 9.53306C23.8898 8.52203 24.4036 7.14656 24.261 5.75073C23.174 5.80253 21.8146 6.56011 21.0319 7.54893C20.3393 8.42028 19.7206 9.84848 19.8804 11.1916C21.1015 11.2896 22.3551 10.5284 23.1388 9.53306Z" fill="black"/>
<path d="M42.145 9.25829C42.145 10.347 41.8417 11.1666 41.2359 11.7169C40.6748 12.2248 39.8774 12.4791 38.8446 12.4791C38.3325 12.4791 37.8942 12.4551 37.5273 12.407V6.45832C38.006 6.37507 38.5215 6.33252 39.0783 6.33252C40.0622 6.33252 40.8037 6.56284 41.3038 7.02349C41.864 7.54427 42.145 8.28889 42.145 9.25829ZM41.1955 9.28512C41.1955 8.57934 41.022 8.03822 40.6748 7.66082C40.3277 7.28434 39.8207 7.09564 39.1531 7.09564C38.8695 7.09564 38.6281 7.11599 38.4278 7.15854V11.6809C38.5387 11.6994 38.7415 11.7077 39.0362 11.7077C39.7253 11.7077 40.2572 11.5014 40.6319 11.0889C41.0065 10.6763 41.1955 10.0751 41.1955 9.28512Z" fill="black"/>
<path d="M47.1781 10.2092C47.1781 10.8798 47.0003 11.4293 46.6445 11.8603C46.2716 12.3034 45.7775 12.5245 45.1606 12.5245C44.566 12.5245 44.0925 12.3127 43.7394 11.8872C43.3871 11.4626 43.2109 10.927 43.2109 10.2814C43.2109 9.60611 43.3922 9.05203 43.7566 8.62191C44.1209 8.19178 44.6107 7.97626 45.2276 7.97626C45.8222 7.97626 46.3 8.18808 46.6617 8.61266C47.0054 9.02521 47.1781 9.55801 47.1781 10.2092ZM46.2441 10.2407C46.2441 9.83828 46.1634 9.49326 46.0027 9.20558C45.8136 8.85778 45.5447 8.68388 45.195 8.68388C44.8332 8.68388 44.5583 8.85778 44.3692 9.20558C44.2077 9.49326 44.1278 9.84383 44.1278 10.2582C44.1278 10.6606 44.2085 11.0056 44.3692 11.2933C44.5643 11.6411 44.8358 11.815 45.1864 11.815C45.5301 11.815 45.7999 11.6383 45.9941 11.2841C46.1608 10.9908 46.2441 10.643 46.2441 10.2407Z" fill="black"/>
<path d="M53.9312 8.06506L52.6638 12.4255H51.8389L51.3139 10.532C51.1807 10.0594 51.0725 9.58946 50.9883 9.12326H50.9719C50.8938 9.60241 50.7855 10.0714 50.6463 10.532L50.0886 12.4255H49.2543L48.0625 8.06506H48.9879L49.4459 10.138C49.5567 10.6282 49.6478 11.0954 49.7209 11.5375H49.7372C49.8042 11.1731 49.9151 10.7087 50.0714 10.1472L50.6463 8.06599H51.3801L51.9309 10.1028C52.0641 10.5996 52.1723 11.0778 52.2557 11.5384H52.2806C52.3416 11.0898 52.4335 10.6116 52.5556 10.1028L53.0471 8.06599H53.9312V8.06506Z" fill="black"/>
<path d="M58.5973 12.4255H57.6968V9.92798C57.6968 9.15838 57.4253 8.77357 56.8805 8.77357C56.6133 8.77357 56.3976 8.87903 56.2301 9.09085C56.0642 9.30268 55.98 9.55243 55.98 9.83825V12.4246H55.0795V9.311C55.0795 8.92805 55.0684 8.51272 55.0469 8.06317H55.8382L55.8804 8.7449H55.9053C56.0101 8.53308 56.1665 8.35825 56.3718 8.21858C56.6159 8.05578 56.8891 7.97345 57.1881 7.97345C57.5662 7.97345 57.8807 8.1048 58.1307 8.36842C58.4418 8.69125 58.5973 9.17318 58.5973 9.81328V12.4255Z" fill="black"/>
<path d="M61.0832 12.4255H60.1836V6.06427H61.0832V12.4255Z" fill="black"/>
<path d="M66.3813 10.2092C66.3813 10.8798 66.2034 11.4293 65.8477 11.8603C65.4747 12.3034 64.9798 12.5245 64.3637 12.5245C63.7683 12.5245 63.2948 12.3127 62.9425 11.8872C62.5902 11.4626 62.4141 10.927 62.4141 10.2814C62.4141 9.60611 62.5954 9.05203 62.9597 8.62191C63.324 8.19178 63.8138 7.97626 64.4299 7.97626C65.0254 7.97626 65.5022 8.18808 65.8648 8.61266C66.2086 9.02521 66.3813 9.55801 66.3813 10.2092ZM65.4464 10.2407C65.4464 9.83828 65.3656 9.49326 65.2049 9.20558C65.0168 8.85778 64.747 8.68388 64.3981 8.68388C64.0355 8.68388 63.7605 8.85778 63.5723 9.20558C63.4108 9.49326 63.3309 9.84383 63.3309 10.2582C63.3309 10.6606 63.4117 11.0056 63.5723 11.2933C63.7674 11.6411 64.0389 11.815 64.3895 11.815C64.7332 11.815 65.0022 11.6383 65.1963 11.2841C65.3639 10.9908 65.4464 10.643 65.4464 10.2407Z" fill="black"/>
<path d="M70.7394 12.4255H69.9308L69.8638 11.9232H69.8389C69.5622 12.3238 69.1678 12.5245 68.6557 12.5245C68.2733 12.5245 67.964 12.3922 67.7311 12.1295C67.5198 11.8909 67.4141 11.5939 67.4141 11.2415C67.4141 10.7087 67.6203 10.3026 68.0353 10.0214C68.4495 9.74023 69.032 9.60241 69.7822 9.60888V9.52748C69.7822 8.95306 69.5021 8.66631 68.941 8.66631C68.5414 8.66631 68.1891 8.77453 67.8849 8.98913L67.7019 8.35273C68.0783 8.10206 68.5431 7.97626 69.0913 7.97626C70.1499 7.97626 70.681 8.57751 70.681 9.78001V11.3858C70.681 11.8215 70.7007 12.1684 70.7394 12.4255ZM69.8045 10.927V10.2545C68.8112 10.236 68.3146 10.5293 68.3146 11.1333C68.3146 11.3608 68.3713 11.531 68.4873 11.6448C68.6033 11.7586 68.7511 11.815 68.9272 11.815C69.1248 11.815 69.3096 11.7475 69.478 11.6134C69.6473 11.4783 69.7512 11.3072 69.7899 11.0972C69.7994 11.05 69.8045 10.9927 69.8045 10.927Z" fill="black"/>
<path d="M75.8588 12.4255H75.0597L75.0176 11.7253H74.9927C74.7375 12.2581 74.3027 12.5245 73.6918 12.5245C73.2037 12.5245 72.7973 12.3182 72.4751 11.9056C72.1529 11.4931 71.9922 10.9575 71.9922 10.2998C71.9922 9.59407 72.1666 9.02242 72.5172 8.58582C72.8566 8.17882 73.2725 7.97532 73.7674 7.97532C74.3113 7.97532 74.692 8.17234 74.9085 8.56732H74.9257V6.06427H75.8271V11.2507C75.8271 11.6753 75.8374 12.0666 75.8588 12.4255ZM74.9257 10.5866V9.85954C74.9257 9.73374 74.9171 9.63199 74.9008 9.5543C74.8501 9.3212 74.741 9.12509 74.5751 8.96692C74.4076 8.80874 74.2056 8.72919 73.9728 8.72919C73.6368 8.72919 73.3739 8.87257 73.1805 9.16024C72.9889 9.44792 72.8918 9.81514 72.8918 10.2638C72.8918 10.6948 72.9838 11.0445 73.1685 11.3136C73.3636 11.6004 73.6265 11.7438 73.9556 11.7438C74.2512 11.7438 74.4875 11.6244 74.6671 11.3849C74.8406 11.1638 74.9257 10.8974 74.9257 10.5866Z" fill="black"/>
<path d="M83.5609 10.2092C83.5609 10.8798 83.3831 11.4293 83.0273 11.8603C82.6544 12.3034 82.1612 12.5245 81.5434 12.5245C80.9497 12.5245 80.4762 12.3127 80.1222 11.8872C79.7699 11.4626 79.5938 10.927 79.5938 10.2814C79.5938 9.60611 79.7751 9.05203 80.1394 8.62191C80.5037 8.19178 80.9935 7.97626 81.6113 7.97626C82.205 7.97626 82.6836 8.18808 83.0445 8.61266C83.3882 9.02521 83.5609 9.55801 83.5609 10.2092ZM82.6278 10.2407C82.6278 9.83828 82.547 9.49326 82.3863 9.20558C82.1964 8.85778 81.9284 8.68388 81.5778 8.68388C81.2169 8.68388 80.9419 8.85778 80.752 9.20558C80.5905 9.49326 80.5106 9.84383 80.5106 10.2582C80.5106 10.6606 80.5913 11.0056 80.752 11.2933C80.9471 11.6411 81.2186 11.815 81.5692 11.815C81.9129 11.815 82.1836 11.6383 82.3777 11.2841C82.5436 10.9908 82.6278 10.643 82.6278 10.2407Z" fill="black"/>
<path d="M88.4012 12.4255H87.5015V9.92798C87.5015 9.15838 87.23 8.77357 86.6844 8.77357C86.4171 8.77357 86.2015 8.87903 86.0348 9.09085C85.8681 9.30268 85.7847 9.55243 85.7847 9.83825V12.4246H84.8834V9.311C84.8834 8.92805 84.873 8.51272 84.8516 8.06317H85.6421L85.6842 8.7449H85.7091C85.8148 8.53308 85.9712 8.35825 86.1757 8.21858C86.4206 8.05578 86.693 7.97345 86.9928 7.97345C87.3701 7.97345 87.6845 8.1048 87.9346 8.36842C88.2465 8.69125 88.4012 9.17318 88.4012 9.81328V12.4255Z" fill="black"/>
<path d="M94.463 8.7912H93.4714V10.9095C93.4714 11.4478 93.6476 11.717 93.9964 11.717C94.158 11.717 94.292 11.7022 94.3977 11.6717L94.4209 12.407C94.2431 12.4792 94.0093 12.5153 93.7215 12.5153C93.3657 12.5153 93.0891 12.3987 92.8889 12.1656C92.6878 11.9325 92.5881 11.5403 92.5881 10.9899V8.7912H91.9961V8.06508H92.5881V7.26588L93.4706 6.97913V8.06415H94.4622V8.7912H94.463Z" fill="black"/>
<path d="M99.2288 12.4255H98.3274V9.9465C98.3274 9.16487 98.0559 8.77359 97.512 8.77359C97.0944 8.77359 96.8091 9.00022 96.6527 9.45347C96.6261 9.54875 96.6106 9.6653 96.6106 9.8022V12.4246H95.7109V6.06427H96.6106V8.6922H96.6278C96.9113 8.21397 97.3178 7.97532 97.8445 7.97532C98.2174 7.97532 98.5259 8.10667 98.7708 8.3703C99.0758 8.69867 99.2288 9.18707 99.2288 9.83272V12.4255Z" fill="black"/>
<path d="M104.148 10.039C104.148 10.2129 104.136 10.359 104.115 10.4783H101.414C101.426 10.9094 101.555 11.2378 101.805 11.4653C102.033 11.6688 102.328 11.7706 102.689 11.7706C103.089 11.7706 103.453 11.7021 103.781 11.5643L103.922 12.2377C103.538 12.4171 103.086 12.5069 102.563 12.5069C101.935 12.5069 101.441 12.308 101.084 11.9102C100.725 11.5125 100.547 10.9788 100.547 10.3091C100.547 9.6514 100.713 9.1038 101.047 8.6672C101.396 8.201 101.868 7.9679 102.463 7.9679C103.046 7.9679 103.488 8.201 103.787 8.6672C104.029 9.0372 104.148 9.49507 104.148 10.039ZM103.289 9.78829C103.296 9.50062 103.236 9.25272 103.114 9.04367C102.958 8.7745 102.72 8.63945 102.398 8.63945C102.104 8.63945 101.864 8.7708 101.681 9.03442C101.532 9.2444 101.443 9.49507 101.414 9.78829H103.289Z" fill="black"/>
<path d="M46.0952 29.1412H44.1438L43.0749 25.5254H39.3594L38.3412 29.1412H36.4414L40.1225 16.8313H42.3961L46.0952 29.1412ZM42.7527 24.0084L41.786 20.794C41.6837 20.4656 41.4921 19.6923 41.2094 18.475H41.1751C41.0625 18.9986 40.8812 19.7719 40.632 20.794L39.6825 24.0084H42.7527Z" fill="black"/>
<path d="M55.5615 24.5939C55.5615 26.1035 55.1826 27.2968 54.4247 28.1728C53.7459 28.9525 52.903 29.342 51.8968 29.342C50.8107 29.342 50.0305 28.922 49.5553 28.0821H49.5209V32.758H47.689V23.187C47.689 22.238 47.6658 21.2639 47.6211 20.2649H49.2322L49.3345 21.6719H49.3688C49.9798 20.6118 50.9069 20.0827 52.1511 20.0827C53.1238 20.0827 53.9358 20.4962 54.5854 21.3241C55.2367 22.1529 55.5615 23.2425 55.5615 24.5939ZM53.6952 24.6661C53.6952 23.8021 53.5148 23.0899 53.1521 22.5293C52.756 21.9447 52.2241 21.6524 51.5574 21.6524C51.1054 21.6524 50.6947 21.8152 50.3278 22.1362C49.96 22.46 49.7194 22.8827 49.6068 23.4062C49.5501 23.6504 49.5218 23.8502 49.5218 24.0075V25.4875C49.5218 26.1331 49.7057 26.678 50.0734 27.1229C50.4412 27.5678 50.9189 27.7898 51.5067 27.7898C52.1966 27.7898 52.7337 27.5031 53.1178 26.9314C53.5027 26.3588 53.6952 25.604 53.6952 24.6661Z" fill="black"/>
<path d="M65.045 24.5939C65.045 26.1035 64.6661 27.2968 63.9074 28.1728C63.2294 28.9525 62.3865 29.342 61.3803 29.342C60.2942 29.342 59.514 28.922 59.0397 28.0821H59.0053V32.758H57.1734V23.187C57.1734 22.238 57.1502 21.2639 57.1055 20.2649H58.7166L58.8188 21.6719H58.8532C59.4633 20.6118 60.3904 20.0827 61.6355 20.0827C62.6073 20.0827 63.4193 20.4962 64.0706 21.3241C64.7194 22.1529 65.045 23.2425 65.045 24.5939ZM63.1787 24.6661C63.1787 23.8021 62.9974 23.0899 62.6348 22.5293C62.2387 21.9447 61.7085 21.6524 61.0409 21.6524C60.588 21.6524 60.1782 21.8152 59.8104 22.1362C59.4427 22.46 59.2029 22.8827 59.0904 23.4062C59.0345 23.6504 59.0053 23.8502 59.0053 24.0075V25.4875C59.0053 26.1331 59.1892 26.678 59.5552 27.1229C59.923 27.5669 60.4007 27.7898 60.9902 27.7898C61.6802 27.7898 62.2172 27.5031 62.6013 26.9314C62.9862 26.3588 63.1787 25.604 63.1787 24.6661Z" fill="black"/>
<path d="M75.6487 25.6891C75.6487 26.7362 75.311 27.5881 74.6331 28.2458C73.8881 28.9645 72.851 29.3234 71.5183 29.3234C70.2878 29.3234 69.3014 29.0681 68.5547 28.5566L68.9792 26.9129C69.7834 27.4364 70.6659 27.6991 71.6274 27.6991C72.3174 27.6991 72.8544 27.5308 73.2402 27.1959C73.6243 26.8611 73.8159 26.4115 73.8159 25.851C73.8159 25.3515 73.6578 24.9306 73.3408 24.5893C73.0254 24.248 72.4987 23.9307 71.7632 23.6375C69.7611 22.8336 68.7609 21.6561 68.7609 20.1077C68.7609 19.0957 69.1115 18.266 69.8135 17.6203C70.5129 16.9738 71.4461 16.6509 72.613 16.6509C73.6535 16.6509 74.5179 16.8461 75.2079 17.2355L74.7499 18.8432C74.1055 18.4658 73.3769 18.2771 72.5614 18.2771C71.917 18.2771 71.4134 18.4482 71.0526 18.7886C70.7475 19.0929 70.5946 19.4639 70.5946 19.9032C70.5946 20.3898 70.769 20.7922 71.1196 21.1085C71.4246 21.4008 71.9788 21.7172 72.7831 22.0585C73.767 22.4849 74.4896 22.9835 74.9545 23.5551C75.4176 24.1249 75.6487 24.8381 75.6487 25.6891Z" fill="black"/>
<path d="M81.7051 21.7449H79.6858V26.0545C79.6858 27.1506 80.0416 27.6982 80.7548 27.6982C81.0821 27.6982 81.3537 27.6677 81.5685 27.6066L81.6192 29.1042C81.2583 29.2494 80.7831 29.3225 80.1945 29.3225C79.471 29.3225 78.9056 29.0848 78.4975 28.6102C78.0911 28.1348 77.8866 27.3374 77.8866 26.2173V21.743H76.6836V20.263H77.8866V18.6378L79.6858 18.0532V20.263H81.7051V21.7449Z" fill="black"/>
<path d="M90.8145 24.63C90.8145 25.9944 90.4519 27.1145 89.7284 27.9905C88.9696 28.8924 87.9626 29.3419 86.7072 29.3419C85.4974 29.3419 84.5341 28.91 83.8158 28.046C83.0974 27.1821 82.7383 26.0915 82.7383 24.7771C82.7383 23.4016 83.1078 22.2749 83.8493 21.399C84.5891 20.5221 85.5876 20.0836 86.843 20.0836C88.0528 20.0836 89.0263 20.5156 89.761 21.3805C90.4639 22.2194 90.8145 23.3026 90.8145 24.63ZM88.9138 24.6938C88.9138 23.8752 88.7514 23.1731 88.4223 22.5876C88.0382 21.879 87.4891 21.5257 86.7777 21.5257C86.0413 21.5257 85.4819 21.88 85.0978 22.5876C84.7687 23.174 84.6063 23.8872 84.6063 24.7308C84.6063 25.5494 84.7687 26.2515 85.0978 26.8361C85.4939 27.5447 86.0473 27.898 86.7613 27.898C87.4608 27.898 88.0098 27.5373 88.406 26.8176C88.7436 26.221 88.9138 25.5115 88.9138 24.6938Z" fill="black"/>
<path d="M96.7708 21.9993C96.5895 21.9632 96.3962 21.9447 96.1934 21.9447C95.549 21.9447 95.0506 22.2065 94.7 22.731C94.395 23.1935 94.242 23.7781 94.242 24.4839V29.1412H92.4109L92.4281 23.0603C92.4281 22.0372 92.4049 21.1058 92.3594 20.2659H93.955L94.022 21.9642H94.0727C94.2661 21.3805 94.5711 20.9106 94.9887 20.5582C95.3969 20.2409 95.8377 20.0827 96.3128 20.0827C96.4821 20.0827 96.6351 20.0957 96.7708 20.1188V21.9993Z" fill="black"/>
<path d="M104.964 24.2831C104.964 24.6365 104.943 24.9343 104.897 25.1776H99.4016C99.4231 26.0545 99.6886 26.7251 100.199 27.1876C100.662 27.6011 101.261 27.8083 101.997 27.8083C102.81 27.8083 103.553 27.6686 104.22 27.3883L104.507 28.7573C103.727 29.1236 102.806 29.3059 101.743 29.3059C100.465 29.3059 99.4609 28.9007 98.7306 28.0913C98.0019 27.282 97.6367 26.1951 97.6367 24.8316C97.6367 23.4932 97.9761 22.3785 98.6558 21.4896C99.3673 20.5406 100.329 20.066 101.539 20.066C102.727 20.066 103.627 20.5406 104.238 21.4896C104.721 22.2435 104.964 23.1759 104.964 24.2831ZM103.218 23.7716C103.23 23.187 103.11 22.6819 102.862 22.2555C102.545 21.707 102.058 21.4332 101.402 21.4332C100.803 21.4332 100.316 21.7005 99.9438 22.237C99.6388 22.6634 99.4575 23.175 99.4016 23.7707H103.218V23.7716Z" fill="black"/>
</svg>
