<svg width="116" height="37" viewBox="0 0 116 37" fill="none" xmlns="http://www.w3.org/2000/svg">
<path d="M115.356 32.7324C115.356 34.7042 113.879 36.3014 112.052 36.3014H3.9521C2.12643 36.3014 0.644531 34.7042 0.644531 32.7324V4.27121C0.644531 2.30036 2.12643 0.697598 3.9521 0.697598H112.052C113.879 0.697598 115.355 2.30036 115.355 4.27121L115.356 32.7324Z" fill="black"/>
<path d="M111.704 0.741188C113.693 0.741188 115.312 2.48366 115.312 4.62503V32.375C115.312 34.5164 113.693 36.2589 111.704 36.2589H4.2963C2.30711 36.2589 0.688481 34.5164 0.688481 32.375V4.62503C0.688481 2.48366 2.30711 0.741188 4.2963 0.741188H111.704ZM111.704 3.2473e-05H4.2963C1.93441 3.2473e-05 0 2.08244 0 4.62503V32.375C0 34.9176 1.93441 37 4.2963 37H111.704C114.066 37 116 34.9176 116 32.375V4.62503C116 2.08244 114.066 3.2473e-05 111.704 3.2473e-05Z" fill="#A6A6A6"/>
<path d="M25.8884 18.2963C25.8635 15.315 28.156 13.8646 28.2608 13.7971C26.9625 11.7593 24.9501 11.4809 24.2429 11.4587C22.5527 11.2672 20.9133 12.5474 20.0523 12.5474C19.1741 12.5474 17.8483 11.4772 16.4194 11.5086C14.5805 11.5392 12.8603 12.6852 11.9168 14.4649C9.96975 18.0937 11.4219 23.4263 13.2874 26.3595C14.2205 27.796 15.3109 29.4 16.7381 29.3436C18.1344 29.2816 18.656 28.3853 20.341 28.3853C22.0106 28.3853 22.5003 29.3436 23.9559 29.3075C25.4545 29.2816 26.3979 27.8645 27.2984 26.415C28.3768 24.7685 28.8099 23.147 28.8271 23.0637C28.7918 23.0508 25.9167 21.8696 25.8884 18.2963Z" fill="white"/>
<path d="M23.1388 9.52914C23.8898 8.51812 24.4036 7.14264 24.261 5.74682C23.174 5.79862 21.8146 6.55619 21.0319 7.54502C20.3393 8.41637 19.7206 9.84457 19.8804 11.1877C21.1015 11.2857 22.3551 10.5244 23.1388 9.52914Z" fill="white"/>
<path d="M46.0952 29.1427H44.1438L43.0749 25.5269H39.3594L38.3412 29.1427H36.4414L40.1225 16.8328H42.3961L46.0952 29.1427ZM42.7527 24.0099L41.786 20.7955C41.6837 20.4671 41.4921 19.6938 41.2094 18.4765H41.1751C41.0625 19.0001 40.8812 19.7734 40.632 20.7955L39.6825 24.0099H42.7527Z" fill="white"/>
<path d="M55.5615 24.5967C55.5615 26.1063 55.1826 27.2996 54.4247 28.1756C53.7459 28.9553 52.903 29.3448 51.8968 29.3448C50.8107 29.3448 50.0305 28.9248 49.5553 28.0849H49.5209V32.7608H47.689V23.1898C47.689 22.2408 47.6658 21.2667 47.6211 20.2677H49.2322L49.3345 21.6747H49.3688C49.9798 20.6146 50.9069 20.0855 52.1511 20.0855C53.1238 20.0855 53.9358 20.499 54.5854 21.3269C55.2367 22.1557 55.5615 23.2453 55.5615 24.5967ZM53.6952 24.6689C53.6952 23.8049 53.5148 23.0927 53.1521 22.5321C52.756 21.9475 52.2241 21.6552 51.5574 21.6552C51.1054 21.6552 50.6947 21.818 50.3278 22.139C49.96 22.4628 49.7194 22.8855 49.6068 23.409C49.5501 23.6532 49.5218 23.853 49.5218 24.0103V25.4903C49.5218 26.1359 49.7057 26.6808 50.0734 27.1257C50.4412 27.5706 50.9189 27.7926 51.5067 27.7926C52.1966 27.7926 52.7337 27.5059 53.1178 26.9342C53.5027 26.3616 53.6952 25.6068 53.6952 24.6689Z" fill="white"/>
<path d="M65.045 24.5967C65.045 26.1063 64.6661 27.2996 63.9074 28.1756C63.2294 28.9553 62.3865 29.3448 61.3803 29.3448C60.2942 29.3448 59.514 28.9248 59.0397 28.0849H59.0053V32.7608H57.1734V23.1898C57.1734 22.2408 57.1502 21.2667 57.1055 20.2677H58.7166L58.8188 21.6747H58.8532C59.4633 20.6146 60.3904 20.0855 61.6355 20.0855C62.6073 20.0855 63.4193 20.499 64.0706 21.3269C64.7194 22.1557 65.045 23.2453 65.045 24.5967ZM63.1787 24.6689C63.1787 23.8049 62.9974 23.0927 62.6348 22.5321C62.2387 21.9475 61.7085 21.6552 61.0409 21.6552C60.588 21.6552 60.1782 21.818 59.8104 22.139C59.4427 22.4628 59.2029 22.8855 59.0904 23.409C59.0345 23.6532 59.0053 23.853 59.0053 24.0103V25.4903C59.0053 26.1359 59.1892 26.6808 59.5552 27.1257C59.923 27.5697 60.4007 27.7926 60.9902 27.7926C61.6802 27.7926 62.2172 27.5059 62.6013 26.9342C62.9862 26.3616 63.1787 25.6068 63.1787 24.6689Z" fill="white"/>
<path d="M75.6487 25.6904C75.6487 26.7375 75.311 27.5894 74.6331 28.2471C73.8881 28.9658 72.851 29.3247 71.5183 29.3247C70.2878 29.3247 69.3014 29.0694 68.5547 28.5579L68.9792 26.9142C69.7834 27.4377 70.6659 27.7004 71.6274 27.7004C72.3174 27.7004 72.8544 27.5321 73.2402 27.1972C73.6243 26.8624 73.8159 26.4128 73.8159 25.8523C73.8159 25.3528 73.6578 24.9319 73.3408 24.5906C73.0254 24.2492 72.4987 23.932 71.7632 23.6387C69.7611 22.8349 68.7609 21.6574 68.7609 20.1089C68.7609 19.097 69.1115 18.2673 69.8135 17.6216C70.5129 16.975 71.4461 16.6522 72.613 16.6522C73.6535 16.6522 74.5179 16.8474 75.2079 17.2368L74.7499 18.8445C74.1055 18.4671 73.3769 18.2784 72.5614 18.2784C71.917 18.2784 71.4134 18.4495 71.0526 18.7899C70.7475 19.0942 70.5946 19.4651 70.5946 19.9045C70.5946 20.3911 70.769 20.7934 71.1196 21.1098C71.4246 21.4021 71.9788 21.7184 72.7831 22.0598C73.767 22.4862 74.4896 22.9848 74.9545 23.5564C75.4176 24.1262 75.6487 24.8394 75.6487 25.6904Z" fill="white"/>
<path d="M81.7051 21.746H79.6858V26.0556C79.6858 27.1517 80.0416 27.6993 80.7548 27.6993C81.0821 27.6993 81.3537 27.6688 81.5685 27.6078L81.6192 29.1053C81.2583 29.2506 80.7831 29.3236 80.1945 29.3236C79.471 29.3236 78.9056 29.0859 78.4975 28.6114C78.0911 28.1359 77.8866 27.3386 77.8866 26.2184V21.7442H76.6836V20.2642H77.8866V18.639L79.6858 18.0544V20.2642H81.7051V21.746Z" fill="white"/>
<path d="M90.8184 24.6351C90.8184 25.9994 90.4558 27.1196 89.7323 27.9956C88.9735 28.8975 87.9665 29.347 86.7111 29.347C85.5013 29.347 84.538 28.915 83.8197 28.0511C83.1014 27.1871 82.7422 26.0966 82.7422 24.7821C82.7422 23.4067 83.1117 22.28 83.8532 21.404C84.593 20.5271 85.5915 20.0887 86.8469 20.0887C88.0567 20.0887 89.0302 20.5207 89.7649 21.3855C90.4678 22.2245 90.8184 23.3077 90.8184 24.6351ZM88.9177 24.6989C88.9177 23.8803 88.7553 23.1782 88.4262 22.5927C88.0421 21.8841 87.493 21.5308 86.7816 21.5308C86.0452 21.5308 85.4858 21.885 85.1017 22.5927C84.7726 23.1791 84.6102 23.8923 84.6102 24.7359C84.6102 25.5545 84.7726 26.2566 85.1017 26.8412C85.4978 27.5497 86.0512 27.9031 86.7652 27.9031C87.4647 27.9031 88.0137 27.5423 88.4099 26.8227C88.7475 26.2261 88.9177 25.5166 88.9177 24.6989Z" fill="white"/>
<path d="M96.7708 22.0021C96.5895 21.966 96.3962 21.9475 96.1934 21.9475C95.549 21.9475 95.0506 22.2093 94.7 22.7338C94.395 23.1963 94.242 23.7809 94.242 24.4867V29.144H92.4109L92.4281 23.0631C92.4281 22.04 92.4049 21.1086 92.3594 20.2687H93.955L94.022 21.967H94.0727C94.2661 21.3833 94.5711 20.9134 94.9887 20.561C95.3969 20.2437 95.8377 20.0855 96.3128 20.0855C96.4821 20.0855 96.6351 20.0985 96.7708 20.1216V22.0021Z" fill="white"/>
<path d="M104.964 24.2836C104.964 24.6369 104.943 24.9348 104.897 25.1781H99.4016C99.4231 26.055 99.6886 26.7256 100.199 27.1881C100.662 27.6016 101.261 27.8087 101.997 27.8087C102.81 27.8087 103.553 27.6691 104.22 27.3888L104.507 28.7578C103.727 29.1241 102.806 29.3063 101.743 29.3063C100.465 29.3063 99.4609 28.9012 98.7306 28.0918C98.0019 27.2824 97.6367 26.1955 97.6367 24.8321C97.6367 23.4936 97.9761 22.379 98.6558 21.4901C99.3673 20.541 100.329 20.0665 101.539 20.0665C102.727 20.0665 103.627 20.541 104.238 21.4901C104.721 22.244 104.964 23.1764 104.964 24.2836ZM103.218 23.772C103.23 23.1874 103.11 22.6824 102.862 22.256C102.545 21.7075 102.058 21.4337 101.402 21.4337C100.803 21.4337 100.316 21.701 99.9438 22.2375C99.6388 22.6639 99.4575 23.1754 99.4016 23.7711H103.218V23.772Z" fill="white"/>
<path d="M42.145 9.26371C42.145 10.3524 41.8417 11.172 41.2359 11.7224C40.6748 12.2302 39.8774 12.4846 38.8446 12.4846C38.3325 12.4846 37.8942 12.4605 37.5273 12.4124V6.46373C38.006 6.38048 38.5215 6.33793 39.0783 6.33793C40.0622 6.33793 40.8037 6.56826 41.3038 7.02891C41.864 7.54968 42.145 8.29431 42.145 9.26371ZM41.1955 9.29053C41.1955 8.58476 41.022 8.04363 40.6748 7.66623C40.3277 7.28976 39.8207 7.10106 39.1531 7.10106C38.8695 7.10106 38.6281 7.12141 38.4278 7.16396V11.6863C38.5387 11.7048 38.7415 11.7131 39.0362 11.7131C39.7253 11.7131 40.2572 11.5068 40.6319 11.0943C41.0065 10.6817 41.1955 10.0805 41.1955 9.29053Z" fill="white"/>
<path d="M47.1781 10.2107C47.1781 10.8813 47.0003 11.4308 46.6445 11.8618C46.2716 12.3049 45.7775 12.526 45.1606 12.526C44.566 12.526 44.0925 12.3141 43.7394 11.8886C43.3871 11.4641 43.2109 10.9285 43.2109 10.2828C43.2109 9.60759 43.3922 9.05352 43.7566 8.62339C44.1209 8.19327 44.6107 7.97775 45.2276 7.97775C45.8222 7.97775 46.3 8.18957 46.6617 8.61414C47.0054 9.02669 47.1781 9.55949 47.1781 10.2107ZM46.2441 10.2421C46.2441 9.83977 46.1634 9.49474 46.0027 9.20707C45.8136 8.85927 45.5447 8.68537 45.195 8.68537C44.8332 8.68537 44.5583 8.85927 44.3692 9.20707C44.2077 9.49474 44.1278 9.84532 44.1278 10.2597C44.1278 10.6621 44.2085 11.0071 44.3692 11.2948C44.5643 11.6426 44.8358 11.8165 45.1864 11.8165C45.5301 11.8165 45.7999 11.6398 45.9941 11.2855C46.1608 10.9923 46.2441 10.6445 46.2441 10.2421Z" fill="white"/>
<path d="M53.9351 8.06805L52.6677 12.4285H51.8428L51.3178 10.535C51.1847 10.0624 51.0764 9.59245 50.9922 9.12625H50.9759C50.8977 9.6054 50.7894 10.0744 50.6502 10.535L50.0925 12.4285H49.2582L48.0664 8.06805H48.9918L49.4498 10.141C49.5607 10.6312 49.6517 11.0984 49.7248 11.5405H49.7411C49.8081 11.1761 49.919 10.7117 50.0754 10.1502L50.6502 8.06898H51.384L51.9348 10.1058C52.068 10.6026 52.1762 11.0808 52.2596 11.5414H52.2845C52.3455 11.0928 52.4375 10.6146 52.5595 10.1058L53.051 8.06898H53.9351V8.06805Z" fill="white"/>
<path d="M58.6012 12.4298H57.7007V9.93227C57.7007 9.16267 57.4292 8.77787 56.8844 8.77787C56.6172 8.77787 56.4015 8.88332 56.234 9.09515C56.0681 9.30697 55.9839 9.55672 55.9839 9.84255V12.4288H55.0834V9.3153C55.0834 8.93235 55.0723 8.51702 55.0508 8.06747H55.8422L55.8843 8.7492H55.9092C56.014 8.53737 56.1704 8.36255 56.3758 8.22287C56.6198 8.06007 56.893 7.97775 57.192 7.97775C57.5701 7.97775 57.8846 8.1091 58.1347 8.37272C58.4457 8.69555 58.6012 9.17747 58.6012 9.81757V12.4298Z" fill="white"/>
<path d="M61.0793 12.4282H60.1797V6.06701H61.0793V12.4282Z" fill="white"/>
<path d="M66.3813 10.2107C66.3813 10.8813 66.2034 11.4308 65.8477 11.8618C65.4747 12.3049 64.9798 12.526 64.3637 12.526C63.7683 12.526 63.2948 12.3141 62.9425 11.8886C62.5902 11.4641 62.4141 10.9285 62.4141 10.2828C62.4141 9.60759 62.5954 9.05352 62.9597 8.62339C63.324 8.19327 63.8138 7.97775 64.4299 7.97775C65.0254 7.97775 65.5022 8.18957 65.8648 8.61414C66.2086 9.02669 66.3813 9.55949 66.3813 10.2107ZM65.4464 10.2421C65.4464 9.83977 65.3656 9.49474 65.2049 9.20707C65.0168 8.85927 64.7469 8.68537 64.3981 8.68537C64.0355 8.68537 63.7605 8.85927 63.5723 9.20707C63.4108 9.49474 63.3309 9.84532 63.3309 10.2597C63.3309 10.6621 63.4117 11.0071 63.5723 11.2948C63.7674 11.6426 64.0389 11.8165 64.3895 11.8165C64.7332 11.8165 65.0022 11.6398 65.1963 11.2855C65.3639 10.9923 65.4464 10.6445 65.4464 10.2421Z" fill="white"/>
<path d="M70.7394 12.427H69.9308L69.8638 11.9247H69.8389C69.5622 12.3252 69.1678 12.526 68.6557 12.526C68.2733 12.526 67.964 12.3937 67.7311 12.131C67.5198 11.8923 67.4141 11.5954 67.4141 11.243C67.4141 10.7102 67.6203 10.3041 68.0353 10.0229C68.4495 9.74172 69.032 9.60389 69.7822 9.61037V9.52897C69.7822 8.95454 69.5021 8.6678 68.941 8.6678C68.5414 8.6678 68.1891 8.77602 67.8849 8.99062L67.7019 8.35422C68.0783 8.10354 68.5431 7.97775 69.0913 7.97775C70.1499 7.97775 70.681 8.57899 70.681 9.78149V11.3873C70.681 11.823 70.7007 12.1698 70.7394 12.427ZM69.8045 10.9285V10.256C68.8112 10.2375 68.3146 10.5307 68.3146 11.1348C68.3146 11.3623 68.3713 11.5325 68.4873 11.6463C68.6033 11.7601 68.7511 11.8165 68.9272 11.8165C69.1248 11.8165 69.3096 11.749 69.478 11.6148C69.6473 11.4798 69.7512 11.3087 69.7899 11.0987C69.7994 11.0515 69.8045 10.9942 69.8045 10.9285Z" fill="white"/>
<path d="M75.8588 12.4282H75.0597L75.0176 11.728H74.9927C74.7375 12.2608 74.3027 12.5272 73.6918 12.5272C73.2037 12.5272 72.7973 12.3209 72.4751 11.9084C72.1529 11.4958 71.9922 10.9603 71.9922 10.3026C71.9922 9.59681 72.1666 9.02516 72.5172 8.58856C72.8566 8.18156 73.2725 7.97806 73.7674 7.97806C74.3113 7.97806 74.692 8.17508 74.9085 8.57006H74.9257V6.06701H75.8271V11.2535C75.8271 11.6781 75.8374 12.0693 75.8588 12.4282ZM74.9257 10.5893V9.86228C74.9257 9.73648 74.9171 9.63473 74.9008 9.55703C74.8501 9.32393 74.741 9.12783 74.5751 8.96966C74.4076 8.81148 74.2056 8.73193 73.9728 8.73193C73.6368 8.73193 73.3739 8.87531 73.1805 9.16298C72.9889 9.45066 72.8918 9.81788 72.8918 10.2665C72.8918 10.6976 72.9838 11.0472 73.1685 11.3164C73.3636 11.6031 73.6265 11.7465 73.9556 11.7465C74.2512 11.7465 74.4875 11.6272 74.6671 11.3876C74.8406 11.1665 74.9257 10.9001 74.9257 10.5893Z" fill="white"/>
<path d="M83.5609 10.2107C83.5609 10.8813 83.3831 11.4308 83.0273 11.8618C82.6544 12.3049 82.1612 12.526 81.5434 12.526C80.9497 12.526 80.4762 12.3141 80.1222 11.8886C79.7699 11.4641 79.5938 10.9285 79.5938 10.2828C79.5938 9.60759 79.7751 9.05352 80.1394 8.62339C80.5037 8.19327 80.9935 7.97775 81.6113 7.97775C82.205 7.97775 82.6836 8.18957 83.0445 8.61414C83.3882 9.02669 83.5609 9.55949 83.5609 10.2107ZM82.6278 10.2421C82.6278 9.83977 82.547 9.49474 82.3863 9.20707C82.1964 8.85927 81.9284 8.68537 81.5778 8.68537C81.2169 8.68537 80.9419 8.85927 80.752 9.20707C80.5905 9.49474 80.5106 9.84532 80.5106 10.2597C80.5106 10.6621 80.5913 11.0071 80.752 11.2948C80.9471 11.6426 81.2186 11.8165 81.5692 11.8165C81.9129 11.8165 82.1836 11.6398 82.3778 11.2855C82.5436 10.9923 82.6278 10.6445 82.6278 10.2421Z" fill="white"/>
<path d="M88.4051 12.4298H87.5054V9.93227C87.5054 9.16267 87.2339 8.77787 86.6883 8.77787C86.421 8.77787 86.2054 8.88332 86.0387 9.09515C85.872 9.30697 85.7886 9.55672 85.7886 9.84255V12.4288H84.8873V9.3153C84.8873 8.93235 84.877 8.51702 84.8555 8.06747H85.646L85.6881 8.7492H85.713C85.8187 8.53737 85.9751 8.36255 86.1796 8.22287C86.4245 8.06007 86.6969 7.97775 86.9967 7.97775C87.374 7.97775 87.6884 8.1091 87.9385 8.37272C88.2504 8.69555 88.4051 9.17747 88.4051 9.81757V12.4298Z" fill="white"/>
<path d="M94.463 8.79643H93.4714V10.9147C93.4714 11.453 93.6476 11.7222 93.9964 11.7222C94.158 11.7222 94.292 11.7074 94.3977 11.6769L94.4209 12.4123C94.2431 12.4844 94.0093 12.5205 93.7215 12.5205C93.3657 12.5205 93.0891 12.4039 92.8889 12.1708C92.6878 11.9377 92.5881 11.5455 92.5881 10.9952V8.79643H91.9961V8.0703H92.5881V7.2711L93.4706 6.98435V8.06938H94.4622V8.79643H94.463Z" fill="white"/>
<path d="M99.2327 12.4282H98.3313V9.94923C98.3313 9.16761 98.0598 8.77633 97.5159 8.77633C97.0983 8.77633 96.813 9.00296 96.6566 9.45621C96.63 9.55148 96.6145 9.66803 96.6145 9.80493V12.4273H95.7148V6.06701H96.6145V8.69493H96.6317C96.9152 8.21671 97.3217 7.97806 97.8484 7.97806C98.2213 7.97806 98.5298 8.10941 98.7747 8.37303C99.0797 8.70141 99.2327 9.18981 99.2327 9.83546V12.4282Z" fill="white"/>
<path d="M104.148 10.0425C104.148 10.2164 104.136 10.3625 104.115 10.4819H101.414C101.426 10.9129 101.555 11.2413 101.805 11.4688C102.033 11.6723 102.328 11.7741 102.689 11.7741C103.089 11.7741 103.453 11.7056 103.781 11.5678L103.922 12.2412C103.538 12.4207 103.086 12.5104 102.563 12.5104C101.935 12.5104 101.441 12.3115 101.084 11.9138C100.725 11.516 100.547 10.9823 100.547 10.3126C100.547 9.65491 100.713 9.10731 101.047 8.67071C101.396 8.20451 101.868 7.97141 102.463 7.97141C103.046 7.97141 103.488 8.20451 103.787 8.67071C104.029 9.04071 104.148 9.49858 104.148 10.0425ZM103.289 9.79181C103.296 9.50413 103.236 9.25623 103.114 9.04718C102.958 8.77801 102.72 8.64296 102.398 8.64296C102.104 8.64296 101.864 8.77431 101.681 9.03793C101.532 9.24791 101.443 9.49858 101.414 9.79181H103.289Z" fill="white"/>
</svg>
