<svg width="140" height="47" viewBox="0 0 140 47" fill="none" xmlns="http://www.w3.org/2000/svg">
<path d="M139.223 41.0438C139.223 43.4745 137.44 45.4434 135.236 45.4434H4.77021C2.56682 45.4434 0.77832 43.4745 0.77832 41.0438V5.95811C0.77832 3.52855 2.56682 1.55273 4.77021 1.55273H135.235C137.441 1.55273 139.222 3.52855 139.222 5.95811L139.223 41.0438Z" fill="black"/>
<path d="M134.815 1.60648C137.216 1.60648 139.169 3.75452 139.169 6.39431V40.6032C139.169 43.243 137.216 45.391 134.815 45.391H5.18518C2.78444 45.391 0.830926 43.243 0.830926 40.6032V6.39431C0.830926 3.75452 2.78444 1.60648 5.18518 1.60648H134.815ZM134.815 0.692823H5.18518C2.33463 0.692823 0 3.25992 0 6.39431V40.6032C0 43.7376 2.33463 46.3047 5.18518 46.3047H134.815C137.665 46.3047 140 43.7376 140 40.6032V6.39431C140 3.25992 137.665 0.692823 134.815 0.692823Z" fill="#A6A6A6"/>
<path d="M31.2438 23.2497C31.2137 19.5745 33.9805 17.7865 34.1071 17.7033C32.5401 15.1912 30.1114 14.848 29.2579 14.8206C27.218 14.5846 25.2394 16.1628 24.2002 16.1628C23.1404 16.1628 21.5402 14.8434 19.8156 14.8822C17.5964 14.9198 15.5202 16.3327 14.3816 18.5266C12.0317 23 13.7842 29.5738 16.0357 33.1897C17.1619 34.9605 18.4779 36.9378 20.2004 36.8683C21.8856 36.7919 22.5151 35.6869 24.5487 35.6869C26.5637 35.6869 27.1548 36.8683 28.9115 36.8238C30.7201 36.7919 31.8588 35.0449 32.9456 33.2581C34.2471 31.2284 34.7697 29.2294 34.7905 29.1268C34.7479 29.1108 31.278 27.6547 31.2438 23.2497Z" fill="white"/>
<path d="M27.9253 12.442C28.8316 11.1956 29.4518 9.5 29.2796 7.7793C27.9678 7.84315 26.3272 8.77706 25.3825 9.99603C24.5466 11.0702 23.7999 12.8308 23.9928 14.4865C25.4665 14.6074 26.9795 13.6689 27.9253 12.442Z" fill="white"/>
<path d="M55.6316 36.6184H53.2765L51.9864 32.161H47.5022L46.2734 36.6184H43.9805L48.4231 21.4434H51.1671L55.6316 36.6184ZM51.5975 30.2909L50.4308 26.3284C50.3074 25.9236 50.0762 24.9703 49.735 23.4697H49.6935C49.5577 24.1151 49.3388 25.0684 49.0381 26.3284L47.8922 30.2909H51.5975Z" fill="white"/>
<path d="M67.0569 31.0143C67.0569 32.8753 66.5996 34.3463 65.6849 35.4262C64.8656 36.3874 63.8483 36.8675 62.6339 36.8675C61.3231 36.8675 60.3815 36.3498 59.808 35.3144H59.7665V41.0786H57.5556V29.28C57.5556 28.11 57.5276 26.9093 57.4736 25.6778H59.4181L59.5415 27.4122H59.583C60.3203 26.1054 61.4393 25.4531 62.9409 25.4531C64.1148 25.4531 65.0948 25.9628 65.8788 26.9834C66.6649 28.0051 67.0569 29.3484 67.0569 31.0143ZM64.8044 31.1033C64.8044 30.0383 64.5867 29.1602 64.149 28.4692C63.671 27.7485 63.029 27.3882 62.2243 27.3882C61.6788 27.3882 61.1831 27.5889 60.7403 27.9846C60.2964 28.3837 60.0061 28.9048 59.8702 29.5502C59.8018 29.8512 59.7676 30.0976 59.7676 30.2914V32.1159C59.7676 32.9118 59.9895 33.5834 60.4333 34.1319C60.8772 34.6804 61.4538 34.9541 62.1631 34.9541C62.9959 34.9541 63.644 34.6006 64.1076 33.8959C64.5721 33.19 64.8044 32.2596 64.8044 31.1033Z" fill="white"/>
<path d="M78.5021 31.0143C78.5021 32.8753 78.0448 34.3463 77.1291 35.4262C76.3109 36.3874 75.2936 36.8675 74.0792 36.8675C72.7684 36.8675 71.8267 36.3498 71.2543 35.3144H71.2128V41.0786H69.0019V29.28C69.0019 28.11 68.9738 26.9093 68.9199 25.6778H70.8644L70.9878 27.4122H71.0293C71.7655 26.1054 72.8845 25.4531 74.3872 25.4531C75.5601 25.4531 76.5401 25.9628 77.3261 26.9834C78.1091 28.0051 78.5021 29.3484 78.5021 31.0143ZM76.2497 31.1033C76.2497 30.0383 76.0309 29.1602 75.5933 28.4692C75.1152 27.7485 74.4753 27.3882 73.6696 27.3882C73.123 27.3882 72.6284 27.5889 72.1845 27.9846C71.7407 28.3837 71.4513 28.9048 71.3155 29.5502C71.2481 29.8512 71.2128 30.0976 71.2128 30.2914V32.1159C71.2128 32.9118 71.4347 33.5834 71.8765 34.1319C72.3204 34.6793 72.897 34.9541 73.6084 34.9541C74.4411 34.9541 75.0893 34.6006 75.5528 33.8959C76.0174 33.19 76.2497 32.2596 76.2497 31.1033Z" fill="white"/>
<path d="M91.2991 32.3625C91.2991 33.6534 90.8915 34.7036 90.0733 35.5143C89.1742 36.4003 87.9225 36.8428 86.314 36.8428C84.829 36.8428 83.6385 36.528 82.7373 35.8975L83.2496 33.8712C84.2203 34.5166 85.2853 34.8404 86.4458 34.8404C87.2785 34.8404 87.9266 34.6329 88.3923 34.2201C88.8558 33.8073 89.0871 33.2531 89.0871 32.5621C89.0871 31.9463 88.8963 31.4275 88.5136 31.0067C88.133 30.586 87.4973 30.1948 86.6096 29.8334C84.1933 28.8424 82.9862 27.3908 82.9862 25.482C82.9862 24.2345 83.4093 23.2117 84.2566 22.4157C85.1007 21.6187 86.2269 21.2207 87.6352 21.2207C88.8911 21.2207 89.9343 21.4613 90.7671 21.9414L90.2143 23.9232C89.4366 23.458 88.5572 23.2253 87.573 23.2253C86.7952 23.2253 86.1875 23.4363 85.752 23.8559C85.3838 24.2311 85.1992 24.6883 85.1992 25.23C85.1992 25.8298 85.4097 26.3258 85.8329 26.7158C86.201 27.0761 86.8699 27.4661 87.8406 27.8869C89.028 28.4126 89.9001 29.0272 90.4612 29.7319C91.0201 30.4343 91.2991 31.3135 91.2991 32.3625Z" fill="white"/>
<path d="M98.6093 27.5001H96.1722V32.8128C96.1722 34.164 96.6016 34.8391 97.4623 34.8391C97.8574 34.8391 98.1851 34.8015 98.4444 34.7262L98.5056 36.5723C98.07 36.7514 97.4965 36.8415 96.7862 36.8415C95.913 36.8415 95.2306 36.5484 94.738 35.9634C94.2475 35.3773 94.0007 34.3944 94.0007 33.0135V27.4979H92.5488V25.6734H94.0007V23.6699L96.1722 22.9492V25.6734H98.6093V27.5001Z" fill="white"/>
<path d="M109.606 31.0616C109.606 32.7435 109.168 34.1244 108.295 35.2043C107.379 36.3161 106.164 36.8703 104.648 36.8703C103.188 36.8703 102.026 36.3377 101.159 35.2727C100.292 34.2077 99.8584 32.8633 99.8584 31.2429C99.8584 29.5473 100.304 28.1584 101.199 27.0785C102.092 25.9975 103.297 25.457 104.812 25.457C106.272 25.457 107.447 25.9896 108.334 27.0557C109.182 28.09 109.606 29.4253 109.606 31.0616ZM107.312 31.1403C107.312 30.1311 107.116 29.2656 106.718 28.5438C106.255 27.6703 105.592 27.2348 104.734 27.2348C103.845 27.2348 103.17 27.6715 102.706 28.5438C102.309 29.2668 102.113 30.1459 102.113 31.1859C102.113 32.195 102.309 33.0605 102.706 33.7812C103.184 34.6547 103.852 35.0903 104.714 35.0903C105.558 35.0903 106.221 34.6455 106.699 33.7584C107.106 33.0229 107.312 32.1483 107.312 31.1403Z" fill="white"/>
<path d="M116.792 27.8158C116.573 27.7713 116.34 27.7485 116.095 27.7485C115.317 27.7485 114.716 28.0712 114.293 28.7178C113.925 29.2879 113.74 30.0086 113.74 30.8787V36.6201H111.53L111.551 29.1237C111.551 27.8626 111.523 26.7143 111.468 25.6789H113.394L113.474 27.7725H113.536C113.769 27.053 114.137 26.4737 114.641 26.0392C115.134 25.6481 115.666 25.4531 116.239 25.4531C116.443 25.4531 116.628 25.4691 116.792 25.4976V27.8158Z" fill="white"/>
<path d="M126.68 30.6283C126.68 31.0639 126.654 31.4311 126.599 31.731H119.966C119.992 32.812 120.312 33.6387 120.928 34.2088C121.487 34.7185 122.21 34.974 123.098 34.974C124.08 34.974 124.976 34.8018 125.782 34.4563L126.128 36.1439C125.186 36.5955 124.075 36.8201 122.792 36.8201C121.249 36.8201 120.038 36.3207 119.156 35.3229C118.277 34.3251 117.836 32.9853 117.836 31.3045C117.836 29.6545 118.246 28.2804 119.066 27.1846C119.925 26.0147 121.085 25.4297 122.545 25.4297C123.979 25.4297 125.065 26.0147 125.802 27.1846C126.386 28.1139 126.68 29.2634 126.68 30.6283ZM124.571 29.9977C124.586 29.277 124.442 28.6544 124.142 28.1288C123.759 27.4526 123.171 27.115 122.38 27.115C121.657 27.115 121.069 27.4446 120.62 28.106C120.252 28.6316 120.033 29.2622 119.966 29.9966H124.571V29.9977Z" fill="white"/>
<path d="M50.866 12.1107C50.866 13.4528 50.4999 14.4631 49.7688 15.1416C49.0916 15.7676 48.1293 16.0812 46.8827 16.0812C46.2647 16.0812 45.7358 16.0515 45.293 15.9922V8.65899C45.8706 8.55636 46.4928 8.50391 47.1648 8.50391C48.3522 8.50391 49.2472 8.78784 49.8508 9.35571C50.5269 9.99769 50.866 10.9156 50.866 12.1107ZM49.7201 12.1437C49.7201 11.2737 49.5106 10.6066 49.0916 10.1414C48.6727 9.67727 48.0608 9.44465 47.255 9.44465C46.9128 9.44465 46.6214 9.46974 46.3798 9.52219V15.0971C46.5136 15.1199 46.7583 15.1302 47.114 15.1302C47.9457 15.1302 48.5876 14.8759 49.0398 14.3673C49.4919 13.8587 49.7201 13.1175 49.7201 12.1437Z" fill="white"/>
<path d="M56.9423 13.2781C56.9423 14.1048 56.7276 14.7821 56.2983 15.3135C55.8482 15.8597 55.2519 16.1322 54.5073 16.1322C53.7897 16.1322 53.2183 15.8711 52.7921 15.3466C52.3669 14.8232 52.1543 14.1629 52.1543 13.367C52.1543 12.5346 52.3731 11.8516 52.8128 11.3213C53.2525 10.7911 53.8436 10.5254 54.5882 10.5254C55.3059 10.5254 55.8824 10.7865 56.319 11.3099C56.7339 11.8185 56.9423 12.4753 56.9423 13.2781ZM55.815 13.3168C55.815 12.8208 55.7176 12.3955 55.5236 12.0408C55.2955 11.6121 54.9709 11.3977 54.5488 11.3977C54.1122 11.3977 53.7804 11.6121 53.5522 12.0408C53.3573 12.3955 53.2608 12.8276 53.2608 13.3385C53.2608 13.8345 53.3583 14.2599 53.5522 14.6145C53.7876 15.0432 54.1153 15.2576 54.5384 15.2576C54.9533 15.2576 55.2789 15.0398 55.5133 14.6031C55.7144 14.2416 55.815 13.8129 55.815 13.3168Z" fill="white"/>
<path d="M65.0898 10.6367L63.5602 16.0121H62.5646L61.931 13.6779C61.7702 13.0952 61.6396 12.5159 61.5379 11.9412H61.5182C61.4239 12.5319 61.2932 13.11 61.1252 13.6779L60.4522 16.0121H59.4452L58.0068 10.6367H59.1237L59.6765 13.1921C59.8102 13.7965 59.9202 14.3723 60.0083 14.9174H60.028C60.1089 14.4681 60.2427 13.8957 60.4314 13.2035L61.1252 10.6379H62.0108L62.6756 13.1488C62.8363 13.7611 62.967 14.3507 63.0676 14.9185H63.0976C63.1713 14.3655 63.2822 13.776 63.4295 13.1488L64.0227 10.6379H65.0898V10.6367Z" fill="white"/>
<path d="M70.7225 16.0136H69.6357V12.9348C69.6357 11.9861 69.308 11.5117 68.6505 11.5117C68.328 11.5117 68.0677 11.6417 67.8655 11.9029C67.6653 12.164 67.5637 12.4719 67.5637 12.8242V16.0125H66.4769V12.1743C66.4769 11.7022 66.4634 11.1902 66.4375 10.636H67.3926L67.4434 11.4764H67.4735C67.6 11.2153 67.7888 10.9998 68.0366 10.8276C68.3311 10.6269 68.6609 10.5254 69.0218 10.5254C69.4781 10.5254 69.8576 10.6873 70.1594 11.0123C70.5348 11.4103 70.7225 12.0044 70.7225 12.7934V16.0136Z" fill="white"/>
<path d="M73.7205 16.0117H72.6348V8.16992H73.7205V16.0117Z" fill="white"/>
<path d="M80.1191 13.2781C80.1191 14.1048 79.9044 14.7821 79.4751 15.3135C79.025 15.8597 78.4277 16.1322 77.6841 16.1322C76.9654 16.1322 76.394 15.8711 75.9688 15.3466C75.5436 14.8232 75.3311 14.1629 75.3311 13.367C75.3311 12.5346 75.5499 11.8516 75.9896 11.3213C76.4293 10.7911 77.0204 10.5254 77.7639 10.5254C78.4826 10.5254 79.0582 10.7865 79.4958 11.3099C79.9106 11.8185 80.1191 12.4753 80.1191 13.2781ZM78.9908 13.3168C78.9908 12.8208 78.8933 12.3955 78.6994 12.0408C78.4722 11.6121 78.1466 11.3977 77.7256 11.3977C77.2879 11.3977 76.9561 11.6121 76.729 12.0408C76.534 12.3955 76.4376 12.8276 76.4376 13.3385C76.4376 13.8345 76.5351 14.2599 76.729 14.6145C76.9644 15.0432 77.2921 15.2576 77.7152 15.2576C78.13 15.2576 78.4546 15.0398 78.689 14.6031C78.8912 14.2416 78.9908 13.8129 78.9908 13.3168Z" fill="white"/>
<path d="M85.3786 16.0102H84.4027L84.3218 15.391H84.2917C83.9578 15.8848 83.4818 16.1322 82.8638 16.1322C82.4023 16.1322 82.0289 15.9692 81.7479 15.6453C81.4928 15.3511 81.3652 14.9851 81.3652 14.5506C81.3652 13.8938 81.6141 13.3932 82.115 13.0466C82.6149 12.6999 83.318 12.53 84.2233 12.538V12.4377C84.2233 11.7295 83.8852 11.3761 83.208 11.3761C82.7258 11.3761 82.3006 11.5095 81.9335 11.774L81.7126 10.9895C82.1669 10.6805 82.7279 10.5254 83.3895 10.5254C84.6672 10.5254 85.308 11.2666 85.308 12.749V14.7285C85.308 15.2656 85.3319 15.6932 85.3786 16.0102ZM84.2503 14.1629V13.3339C83.0515 13.3111 82.4521 13.6726 82.4521 14.4172C82.4521 14.6977 82.5205 14.9075 82.6605 15.0478C82.8005 15.1881 82.9789 15.2576 83.1915 15.2576C83.43 15.2576 83.6529 15.1744 83.8562 15.009C84.0605 14.8426 84.186 14.6316 84.2326 14.3728C84.244 14.3146 84.2503 14.2439 84.2503 14.1629Z" fill="white"/>
<path d="M91.5544 16.0117H90.5899L90.5391 15.1485H90.509C90.201 15.8053 89.6763 16.1338 88.9389 16.1338C88.3499 16.1338 87.8594 15.8795 87.4705 15.3709C87.0816 14.8623 86.8877 14.2021 86.8877 13.3913C86.8877 12.5213 87.0982 11.8166 87.5213 11.2784C87.931 10.7766 88.4329 10.5258 89.0302 10.5258C89.6866 10.5258 90.1461 10.7687 90.4074 11.2556H90.4281V8.16992H91.516V14.5636C91.516 15.087 91.5284 15.5693 91.5544 16.0117ZM90.4281 13.7448V12.8486C90.4281 12.6935 90.4178 12.568 90.3981 12.4723C90.3369 12.1849 90.2052 11.9432 90.005 11.7482C89.8028 11.5532 89.5591 11.4551 89.2781 11.4551C88.8726 11.4551 88.5552 11.6319 88.3219 11.9865C88.0907 12.3411 87.9735 12.7938 87.9735 13.3469C87.9735 13.8782 88.0844 14.3093 88.3074 14.6411C88.5428 14.9946 88.8601 15.1713 89.2573 15.1713C89.6141 15.1713 89.8992 15.0242 90.116 14.7289C90.3255 14.4564 90.4281 14.128 90.4281 13.7448Z" fill="white"/>
<path d="M100.85 13.2781C100.85 14.1048 100.635 14.7821 100.206 15.3135C99.7554 15.8597 99.1602 16.1322 98.4146 16.1322C97.698 16.1322 97.1266 15.8711 96.6993 15.3466C96.2741 14.8232 96.0615 14.1629 96.0615 13.367C96.0615 12.5346 96.2803 11.8516 96.72 11.3213C97.1597 10.7911 97.7509 10.5254 98.4965 10.5254C99.2131 10.5254 99.7907 10.7865 100.226 11.3099C100.641 11.8185 100.85 12.4753 100.85 13.2781ZM99.7233 13.3168C99.7233 12.8208 99.6258 12.3955 99.4319 12.0408C99.2027 11.6121 98.8792 11.3977 98.456 11.3977C98.0205 11.3977 97.6886 11.6121 97.4594 12.0408C97.2645 12.3955 97.168 12.8276 97.168 13.3385C97.168 13.8345 97.2655 14.2599 97.4594 14.6145C97.6949 15.0432 98.0226 15.2576 98.4457 15.2576C98.8605 15.2576 99.1872 15.0398 99.4215 14.6031C99.6217 14.2416 99.7233 13.8129 99.7233 13.3168Z" fill="white"/>
<path d="M106.693 16.0136H105.607V12.9348C105.607 11.9861 105.28 11.5117 104.621 11.5117C104.299 11.5117 104.038 11.6417 103.837 11.9029C103.636 12.164 103.535 12.4719 103.535 12.8242V16.0125H102.448V12.1743C102.448 11.7022 102.435 11.1902 102.409 10.636H103.363L103.414 11.4764H103.444C103.572 11.2153 103.76 10.9998 104.007 10.8276C104.303 10.6269 104.632 10.5254 104.993 10.5254C105.449 10.5254 105.828 10.6873 106.13 11.0123C106.507 11.4103 106.693 12.0044 106.693 12.7934V16.0136Z" fill="white"/>
<path d="M114.007 11.5346H112.81V14.1459C112.81 14.8096 113.022 15.1414 113.444 15.1414C113.638 15.1414 113.8 15.1231 113.928 15.0855L113.956 15.992C113.741 16.081 113.459 16.1255 113.112 16.1255C112.682 16.1255 112.348 15.9818 112.107 15.6944C111.864 15.4071 111.744 14.9236 111.744 14.2451V11.5346H111.029V10.6395H111.744V9.65427L112.809 9.30078V10.6383H114.006V11.5346H114.007Z" fill="white"/>
<path d="M119.761 16.0117H118.673V12.9557C118.673 11.9922 118.346 11.5098 117.689 11.5098C117.185 11.5098 116.841 11.7892 116.652 12.348C116.62 12.4654 116.601 12.6091 116.601 12.7779V16.0106H115.516V8.16992H116.601V11.4095H116.622C116.964 10.82 117.455 10.5258 118.091 10.5258C118.541 10.5258 118.913 10.6877 119.209 11.0127C119.577 11.4175 119.761 12.0196 119.761 12.8155V16.0117Z" fill="white"/>
<path d="M125.696 13.0707C125.696 13.2851 125.681 13.4652 125.655 13.6123H122.396C122.411 14.1437 122.566 14.5485 122.868 14.829C123.144 15.0799 123.499 15.2053 123.935 15.2053C124.417 15.2053 124.857 15.121 125.253 14.9511L125.423 15.7812C124.96 16.0024 124.414 16.113 123.782 16.113C123.025 16.113 122.429 15.8678 121.998 15.3775C121.564 14.8872 121.35 14.2292 121.35 13.4037C121.35 12.5929 121.55 11.9179 121.953 11.3796C122.374 10.8049 122.944 10.5176 123.662 10.5176C124.365 10.5176 124.899 10.8049 125.26 11.3796C125.552 11.8358 125.696 12.4002 125.696 13.0707ZM124.659 12.7617C124.667 12.407 124.596 12.1014 124.448 11.8437C124.26 11.5119 123.972 11.3454 123.583 11.3454C123.229 11.3454 122.939 11.5074 122.718 11.8323C122.538 12.0912 122.431 12.4002 122.396 12.7617H124.659Z" fill="white"/>
</svg>
