<svg width="90" height="26" viewBox="0 0 90 26" fill="none" xmlns="http://www.w3.org/2000/svg">
<path d="M89.5 23.0014C89.5 24.387 88.3543 25.5093 86.9371 25.5093H3.06622C1.64975 25.5093 0.5 24.387 0.5 23.0014V3.00166C0.5 1.61675 1.64975 0.490479 3.06622 0.490479H86.9365C88.3543 0.490479 89.4993 1.61675 89.4993 3.00166L89.5 23.0014Z" fill="white"/>
<path d="M86.6667 0.520813C88.21 0.520813 89.4658 1.74525 89.4658 3.25V22.75C89.4658 24.2548 88.21 25.4792 86.6667 25.4792H3.33333C1.79 25.4792 0.534166 24.2548 0.534166 22.75V3.25C0.534166 1.74525 1.79 0.520813 3.33333 0.520813H86.6667ZM86.6667 1.90735e-06H3.33333C1.50083 1.90735e-06 0 1.46331 0 3.25V22.75C0 24.5367 1.50083 26 3.33333 26H86.6667C88.4992 26 90 24.5367 90 22.75V3.25C90 1.46331 88.4992 1.90735e-06 86.6667 1.90735e-06Z" fill="#A6A6A6"/>
<path d="M20.0867 12.8596C20.0674 10.7646 21.846 9.74541 21.9274 9.69796C20.92 8.26601 19.3587 8.07036 18.81 8.05476C17.4987 7.92021 16.2267 8.81981 15.5587 8.81981C14.8774 8.81981 13.8487 8.06776 12.74 8.08986C11.3134 8.11131 9.97869 8.91666 9.24669 10.1673C7.73603 12.7172 8.86269 16.4645 10.31 18.5256C11.034 19.5351 11.88 20.6622 12.9874 20.6225C14.0707 20.579 14.4754 19.9491 15.7827 19.9491C17.078 19.9491 17.458 20.6225 18.5874 20.5972C19.75 20.579 20.482 19.5832 21.1807 18.5646C22.0174 17.4076 22.3534 16.2682 22.3667 16.2097C22.3394 16.2006 20.1087 15.3705 20.0867 12.8596Z" fill="black"/>
<path d="M17.9534 6.69887C18.536 5.98842 18.9347 5.02187 18.824 4.04102C17.9807 4.07742 16.926 4.60977 16.3187 5.30462C15.7814 5.91692 15.3014 6.92052 15.4254 7.86432C16.3727 7.93322 17.3454 7.39827 17.9534 6.69887Z" fill="black"/>
<path d="M32.6999 6.5059C32.6999 7.27095 32.4645 7.84685 31.9945 8.2336C31.5592 8.59045 30.9405 8.7692 30.1392 8.7692C29.7419 8.7692 29.4019 8.7523 29.1172 8.7185V4.53835C29.4885 4.47985 29.8885 4.44995 30.3205 4.44995C31.0839 4.44995 31.6592 4.6118 32.0472 4.9355C32.4819 5.30145 32.6999 5.8247 32.6999 6.5059ZM31.9632 6.52475C31.9632 6.0288 31.8285 5.64855 31.5592 5.38335C31.2899 5.1188 30.8965 4.9862 30.3785 4.9862C30.1585 4.9862 29.9712 5.0005 29.8159 5.0304V8.20825C29.9019 8.22125 30.0592 8.2271 30.2879 8.2271C30.8225 8.2271 31.2352 8.08215 31.5259 7.79225C31.8165 7.50235 31.9632 7.07985 31.9632 6.52475Z" fill="black"/>
<path d="M36.6053 7.17408C36.6053 7.64533 36.4673 8.03143 36.1913 8.33433C35.902 8.64568 35.5187 8.80103 35.04 8.80103C34.5787 8.80103 34.2113 8.65218 33.9373 8.35318C33.664 8.05483 33.5273 7.67848 33.5273 7.22478C33.5273 6.75028 33.668 6.36093 33.9507 6.05868C34.2333 5.75643 34.6133 5.60498 35.092 5.60498C35.5533 5.60498 35.924 5.75383 36.2047 6.05218C36.4713 6.34208 36.6053 6.71648 36.6053 7.17408ZM35.8807 7.19618C35.8807 6.91343 35.818 6.67098 35.6933 6.46883C35.5467 6.22443 35.338 6.10223 35.0667 6.10223C34.786 6.10223 34.5727 6.22443 34.426 6.46883C34.3007 6.67098 34.2387 6.91733 34.2387 7.20853C34.2387 7.49128 34.3013 7.73373 34.426 7.93588C34.5773 8.18028 34.788 8.30248 35.06 8.30248C35.3267 8.30248 35.536 8.17833 35.6867 7.92938C35.816 7.72333 35.8807 7.47893 35.8807 7.19618Z" fill="black"/>
<path d="M41.8424 5.66748L40.8591 8.73158H40.2191L39.8117 7.40103C39.7084 7.06888 39.6244 6.73868 39.5591 6.41108H39.5464C39.4857 6.74778 39.4017 7.07733 39.2937 7.40103L38.8611 8.73158H38.2137L37.2891 5.66748H38.0071L38.3624 7.12413C38.4484 7.46863 38.5191 7.79688 38.5757 8.10758H38.5884C38.6404 7.85148 38.7264 7.52518 38.8477 7.13063L39.2937 5.66813H39.8631L40.2904 7.09943C40.3937 7.44848 40.4777 7.78453 40.5424 8.10823H40.5617C40.6091 7.79298 40.6804 7.45693 40.7751 7.09943L41.1564 5.66813H41.8424V5.66748Z" fill="black"/>
<path d="M45.4656 8.73148H44.7669V6.97648C44.7669 6.43568 44.5563 6.16528 44.1336 6.16528C43.9263 6.16528 43.7589 6.23938 43.6289 6.38823C43.5003 6.53708 43.4349 6.71258 43.4349 6.91343V8.73083H42.7363V6.54293C42.7363 6.27383 42.7276 5.98198 42.7109 5.66608H43.3249L43.3576 6.14513H43.3769C43.4583 5.99628 43.5796 5.87343 43.7389 5.77528C43.9283 5.66088 44.1403 5.60303 44.3723 5.60303C44.6656 5.60303 44.9096 5.69533 45.1036 5.88058C45.3449 6.10743 45.4656 6.44608 45.4656 6.89588V8.73148Z" fill="black"/>
<path d="M47.3914 8.73152H46.6934V4.26147H47.3914V8.73152Z" fill="black"/>
<path d="M51.5057 7.17408C51.5057 7.64533 51.3677 8.03143 51.0917 8.33433C50.8024 8.64568 50.4184 8.80103 49.9404 8.80103C49.4784 8.80103 49.1111 8.65218 48.8377 8.35318C48.5644 8.05483 48.4277 7.67848 48.4277 7.22478C48.4277 6.75028 48.5684 6.36093 48.8511 6.05868C49.1337 5.75643 49.5137 5.60498 49.9917 5.60498C50.4537 5.60498 50.8237 5.75383 51.1051 6.05218C51.3717 6.34208 51.5057 6.71648 51.5057 7.17408ZM50.7804 7.19618C50.7804 6.91343 50.7177 6.67098 50.5931 6.46883C50.4471 6.22443 50.2377 6.10223 49.9671 6.10223C49.6857 6.10223 49.4724 6.22443 49.3264 6.46883C49.2011 6.67098 49.1391 6.91733 49.1391 7.20853C49.1391 7.49128 49.2017 7.73373 49.3264 7.93588C49.4777 8.18028 49.6884 8.30248 49.9604 8.30248C50.2271 8.30248 50.4357 8.17833 50.5864 7.92938C50.7164 7.72333 50.7804 7.47893 50.7804 7.19618Z" fill="black"/>
<path d="M54.8866 8.73148H54.2593L54.2073 8.37853H54.188C53.9733 8.65998 53.6673 8.80103 53.27 8.80103C52.9733 8.80103 52.7333 8.70808 52.5526 8.52348C52.3886 8.35578 52.3066 8.14713 52.3066 7.89948C52.3066 7.52508 52.4666 7.23973 52.7886 7.04213C53.11 6.84453 53.562 6.74768 54.144 6.75223V6.69503C54.144 6.29138 53.9266 6.08988 53.4913 6.08988C53.1813 6.08988 52.908 6.16593 52.672 6.31673L52.53 5.86953C52.822 5.69338 53.1826 5.60498 53.608 5.60498C54.4293 5.60498 54.8413 6.02748 54.8413 6.87248V8.00088C54.8413 8.30703 54.8566 8.55078 54.8866 8.73148ZM54.1613 7.67848V7.20593C53.3906 7.19293 53.0053 7.39898 53.0053 7.82343C53.0053 7.98333 53.0493 8.10293 53.1393 8.18288C53.2293 8.26283 53.344 8.30248 53.4806 8.30248C53.634 8.30248 53.7773 8.25503 53.908 8.16078C54.0393 8.06588 54.12 7.94563 54.15 7.79808C54.1573 7.76493 54.1613 7.72463 54.1613 7.67848Z" fill="black"/>
<path d="M58.8574 8.73152H58.2374L58.2048 8.23947H58.1854C57.9874 8.61387 57.6501 8.80107 57.1761 8.80107C56.7974 8.80107 56.4821 8.65613 56.2321 8.36623C55.9821 8.07633 55.8574 7.69998 55.8574 7.23783C55.8574 6.74187 55.9928 6.34017 56.2648 6.03337C56.5281 5.74737 56.8508 5.60437 57.2348 5.60437C57.6568 5.60437 57.9521 5.74282 58.1201 6.02037H58.1334V4.26147H58.8328V7.90603C58.8328 8.20438 58.8408 8.47932 58.8574 8.73152ZM58.1334 7.43932V6.92843C58.1334 6.84003 58.1268 6.76853 58.1141 6.71393C58.0748 6.55013 57.9901 6.41232 57.8614 6.30117C57.7314 6.19002 57.5748 6.13412 57.3941 6.13412C57.1334 6.13412 56.9294 6.23487 56.7794 6.43702C56.6308 6.63917 56.5554 6.89722 56.5554 7.21247C56.5554 7.51537 56.6268 7.76108 56.7701 7.95022C56.9214 8.15173 57.1254 8.25248 57.3808 8.25248C57.6101 8.25248 57.7934 8.16862 57.9328 8.00027C58.0674 7.84492 58.1334 7.65772 58.1334 7.43932Z" fill="black"/>
<path d="M64.8319 7.17408C64.8319 7.64533 64.6939 8.03143 64.4179 8.33433C64.1286 8.64568 63.7459 8.80103 63.2666 8.80103C62.8059 8.80103 62.4386 8.65218 62.1639 8.35318C61.8906 8.05483 61.7539 7.67848 61.7539 7.22478C61.7539 6.75028 61.8946 6.36093 62.1772 6.05868C62.4599 5.75643 62.8399 5.60498 63.3192 5.60498C63.7799 5.60498 64.1512 5.75383 64.4312 6.05218C64.6979 6.34208 64.8319 6.71648 64.8319 7.17408ZM64.1079 7.19618C64.1079 6.91343 64.0452 6.67098 63.9206 6.46883C63.7732 6.22443 63.5652 6.10223 63.2932 6.10223C63.0132 6.10223 62.7999 6.22443 62.6526 6.46883C62.5272 6.67098 62.4652 6.91733 62.4652 7.20853C62.4652 7.49128 62.5279 7.73373 62.6526 7.93588C62.8039 8.18028 63.0146 8.30248 63.2866 8.30248C63.5532 8.30248 63.7632 8.17833 63.9139 7.92938C64.0426 7.72333 64.1079 7.47893 64.1079 7.19618Z" fill="black"/>
<path d="M68.588 8.73148H67.89V6.97648C67.89 6.43568 67.6793 6.16528 67.256 6.16528C67.0487 6.16528 66.8813 6.23938 66.752 6.38823C66.6226 6.53708 66.558 6.71258 66.558 6.91343V8.73083H65.8587V6.54293C65.8587 6.27383 65.8507 5.98198 65.834 5.66608H66.4473L66.48 6.14513H66.4993C66.5813 5.99628 66.7026 5.87343 66.8613 5.77528C67.0513 5.66088 67.2627 5.60303 67.4953 5.60303C67.788 5.60303 68.032 5.69533 68.226 5.88058C68.468 6.10743 68.588 6.44608 68.588 6.89588V8.73148Z" fill="black"/>
<path d="M73.2909 6.17765H72.5216V7.66615C72.5216 8.04445 72.6583 8.2336 72.9289 8.2336C73.0543 8.2336 73.1583 8.2232 73.2403 8.20175L73.2583 8.7185C73.1203 8.7692 72.9389 8.79455 72.7156 8.79455C72.4396 8.79455 72.2249 8.71265 72.0696 8.54885C71.9136 8.38505 71.8363 8.10945 71.8363 7.7227V6.17765H71.377V5.6674H71.8363V5.1058L72.5209 4.9043V5.66675H73.2903V6.17765H73.2909Z" fill="black"/>
<path d="M76.9891 8.73152H76.2898V6.98952C76.2898 6.44027 76.0791 6.16532 75.6571 6.16532C75.3331 6.16532 75.1118 6.32457 74.9904 6.64307C74.9698 6.71002 74.9578 6.79192 74.9578 6.88812V8.73088H74.2598V4.26147H74.9578V6.10812H74.9711C75.1911 5.77207 75.5064 5.60437 75.9151 5.60437C76.2044 5.60437 76.4438 5.69667 76.6338 5.88192C76.8704 6.11267 76.9891 6.45587 76.9891 6.90957V8.73152Z" fill="black"/>
<path d="M80.8038 7.05447C80.8038 7.17667 80.7944 7.27937 80.7778 7.36322H78.6824C78.6918 7.66612 78.7918 7.89687 78.9858 8.05677C79.1631 8.19977 79.3918 8.27127 79.6718 8.27127C79.9818 8.27127 80.2644 8.22317 80.5191 8.12632L80.6284 8.59952C80.3304 8.72562 79.9798 8.78867 79.5738 8.78867C79.0871 8.78867 78.7038 8.64892 78.4264 8.36942C78.1478 8.08992 78.0098 7.71487 78.0098 7.24427C78.0098 6.78212 78.1384 6.39732 78.3978 6.09052C78.6684 5.76292 79.0344 5.59912 79.4964 5.59912C79.9484 5.59912 80.2918 5.76292 80.5238 6.09052C80.7111 6.35052 80.8038 6.67227 80.8038 7.05447ZM80.1371 6.87832C80.1424 6.67617 80.0964 6.50197 80.0018 6.35507C79.8804 6.16592 79.6958 6.07102 79.4458 6.07102C79.2178 6.07102 79.0318 6.16332 78.8898 6.34857C78.7738 6.49612 78.7051 6.67227 78.6824 6.87832H80.1371Z" fill="black"/>
<path d="M35.7634 20.4776H34.2494L33.4201 17.9367H30.5374L29.7474 20.4776H28.2734L31.1294 11.8274H32.8934L35.7634 20.4776ZM33.1701 16.8707L32.4201 14.612C32.3408 14.3812 32.1921 13.8378 31.9728 12.9824H31.9461C31.8588 13.3503 31.7181 13.8937 31.5248 14.612L30.7881 16.8707H33.1701Z" fill="black"/>
<path d="M43.1079 17.2824C43.1079 18.3432 42.8139 19.1817 42.2259 19.7972C41.6993 20.3452 41.0453 20.6188 40.2646 20.6188C39.4219 20.6188 38.8166 20.3237 38.4479 19.7335H38.4213V23.0193H36.9999V16.2937C36.9999 15.6268 36.9819 14.9424 36.9473 14.2404H38.1973L38.2766 15.229H38.3033C38.7773 14.4841 39.4966 14.1123 40.4619 14.1123C41.2166 14.1123 41.8466 14.4029 42.3506 14.9846C42.8559 15.567 43.1079 16.3327 43.1079 17.2824ZM41.6599 17.3331C41.6599 16.726 41.5199 16.2255 41.2386 15.8316C40.9313 15.4208 40.5186 15.2154 40.0013 15.2154C39.6506 15.2154 39.3319 15.3298 39.0473 15.5553C38.7619 15.7828 38.5753 16.0799 38.4879 16.4478C38.4439 16.6194 38.4219 16.7598 38.4219 16.8703V17.9103C38.4219 18.364 38.5646 18.7468 38.8499 19.0595C39.1353 19.3721 39.5059 19.5281 39.9619 19.5281C40.4973 19.5281 40.9139 19.3266 41.2119 18.9249C41.5106 18.5226 41.6599 17.9922 41.6599 17.3331Z" fill="black"/>
<path d="M50.4666 17.2824C50.4666 18.3432 50.1726 19.1817 49.584 19.7972C49.058 20.3452 48.404 20.6188 47.6233 20.6188C46.7806 20.6188 46.1753 20.3237 45.8073 19.7335H45.7806V23.0193H44.3593V16.2937C44.3593 15.6268 44.3413 14.9424 44.3066 14.2404H45.5566L45.636 15.229H45.6626C46.136 14.4841 46.8553 14.1123 47.8213 14.1123C48.5753 14.1123 49.2053 14.4029 49.7106 14.9846C50.214 15.567 50.4666 16.3327 50.4666 17.2824ZM49.0186 17.3331C49.0186 16.726 48.878 16.2255 48.5966 15.8316C48.2893 15.4208 47.878 15.2154 47.36 15.2154C47.0086 15.2154 46.6906 15.3298 46.4053 15.5553C46.12 15.7828 45.934 16.0799 45.8466 16.4478C45.8033 16.6194 45.7806 16.7598 45.7806 16.8703V17.9103C45.7806 18.364 45.9233 18.7468 46.2073 19.0595C46.4926 19.3715 46.8633 19.5281 47.3206 19.5281C47.856 19.5281 48.2726 19.3266 48.5706 18.9249C48.8693 18.5226 49.0186 17.9922 49.0186 17.3331Z" fill="black"/>
<path d="M58.6935 18.0518C58.6935 18.7876 58.4315 19.3863 57.9055 19.8484C57.3275 20.3535 56.5228 20.6057 55.4888 20.6057C54.5341 20.6057 53.7688 20.4263 53.1895 20.0668L53.5188 18.9118C54.1428 19.2797 54.8275 19.4643 55.5735 19.4643C56.1088 19.4643 56.5255 19.346 56.8248 19.1107C57.1228 18.8754 57.2715 18.5595 57.2715 18.1656C57.2715 17.8146 57.1488 17.5188 56.9028 17.279C56.6581 17.0391 56.2495 16.8162 55.6788 16.6101C54.1255 16.0453 53.3495 15.2178 53.3495 14.1297C53.3495 13.4186 53.6215 12.8356 54.1661 12.3819C54.7088 11.9275 55.4328 11.7007 56.3381 11.7007C57.1455 11.7007 57.8161 11.8378 58.3515 12.1115L57.9961 13.2412C57.4961 12.976 56.9308 12.8434 56.2981 12.8434C55.7981 12.8434 55.4075 12.9636 55.1275 13.2028C54.8908 13.4167 54.7721 13.6773 54.7721 13.9861C54.7721 14.328 54.9075 14.6107 55.1795 14.833C55.4161 15.0384 55.8461 15.2607 56.4701 15.5006C57.2335 15.8002 57.7941 16.1506 58.1548 16.5523C58.5141 16.9527 58.6935 17.4538 58.6935 18.0518Z" fill="black"/>
<path d="M63.3921 15.2802H61.8254V18.3085C61.8254 19.0788 62.1014 19.4636 62.6548 19.4636C62.9088 19.4636 63.1194 19.4421 63.2861 19.3992L63.3254 20.4516C63.0454 20.5536 62.6768 20.605 62.2201 20.605C61.6588 20.605 61.2201 20.4379 60.9034 20.1045C60.5881 19.7704 60.4294 19.2101 60.4294 18.4229V15.2789H59.4961V14.2389H60.4294V13.0968L61.8254 12.686V14.2389H63.3921V15.2802Z" fill="black"/>
<path d="M70.4613 17.3075C70.4613 18.2663 70.18 19.0534 69.6186 19.669C69.03 20.3027 68.2486 20.6186 67.2746 20.6186C66.336 20.6186 65.5886 20.3151 65.0313 19.708C64.474 19.1009 64.1953 18.3345 64.1953 17.4109C64.1953 16.4443 64.482 15.6526 65.0573 15.0371C65.6313 14.4209 66.406 14.1128 67.38 14.1128C68.3186 14.1128 69.074 14.4163 69.644 15.0241C70.1893 15.6136 70.4613 16.3748 70.4613 17.3075ZM68.9866 17.3524C68.9866 16.7771 68.8606 16.2838 68.6053 15.8723C68.3073 15.3744 67.8813 15.1261 67.3293 15.1261C66.758 15.1261 66.324 15.3751 66.026 15.8723C65.7706 16.2844 65.6446 16.7856 65.6446 17.3784C65.6446 17.9536 65.7706 18.447 66.026 18.8578C66.3333 19.3557 66.7626 19.604 67.3166 19.604C67.8593 19.604 68.2853 19.3505 68.5926 18.8448C68.8546 18.4255 68.9866 17.927 68.9866 17.3524Z" fill="black"/>
<path d="M75.0809 15.4591C74.9402 15.4338 74.7902 15.4208 74.6329 15.4208C74.1329 15.4208 73.7462 15.6047 73.4742 15.9733C73.2375 16.2983 73.1189 16.7091 73.1189 17.205V20.4778H71.6982L71.7115 16.2047C71.7115 15.4858 71.6935 14.8312 71.6582 14.241H72.8962L72.9482 15.4344H72.9875C73.1375 15.0243 73.3742 14.6941 73.6982 14.4464C74.0149 14.2235 74.3569 14.1123 74.7255 14.1123C74.8569 14.1123 74.9756 14.1214 75.0809 14.1377V15.4591Z" fill="black"/>
<path d="M81.4373 17.0639C81.4373 17.3122 81.4206 17.5215 81.3853 17.6925H77.1213C77.138 18.3087 77.344 18.7799 77.74 19.1049C78.0993 19.3955 78.564 19.5411 79.1346 19.5411C79.766 19.5411 80.3419 19.4429 80.8599 19.246L81.0826 20.208C80.4773 20.4654 79.7626 20.5934 78.9379 20.5934C77.9459 20.5934 77.1673 20.3087 76.6006 19.74C76.0353 19.1712 75.752 18.4075 75.752 17.4494C75.752 16.5088 76.0153 15.7256 76.5426 15.1009C77.0946 14.434 77.8406 14.1006 78.7793 14.1006C79.7013 14.1006 80.3993 14.434 80.8733 15.1009C81.2486 15.6307 81.4373 16.2859 81.4373 17.0639ZM80.0819 16.7045C80.0913 16.2937 79.9986 15.9388 79.8059 15.6391C79.5599 15.2537 79.182 15.0613 78.6733 15.0613C78.2086 15.0613 77.8306 15.2491 77.542 15.6261C77.3053 15.9258 77.1646 16.2852 77.1213 16.7038H80.0819V16.7045Z" fill="black"/>
</svg>
