<svg width="110" height="32" viewBox="0 0 110 32" fill="none" xmlns="http://www.w3.org/2000/svg">
<path d="M109.389 28.3098C109.389 30.0151 107.989 31.3965 106.257 31.3965H3.74781C2.01658 31.3965 0.611328 30.0151 0.611328 28.3098V3.69469C0.611328 1.99018 2.01658 0.604004 3.74781 0.604004H106.256C107.989 0.604004 109.388 1.99018 109.388 3.69469L109.389 28.3098Z" fill="white"/>
<path d="M105.926 0.641001C107.812 0.641001 109.347 2.148 109.347 4V28C109.347 29.852 107.812 31.359 105.926 31.359H4.07407C2.18778 31.359 0.65287 29.852 0.65287 28V4C0.65287 2.148 2.18778 0.641001 4.07407 0.641001H105.926ZM105.926 1.90735e-06H4.07407C1.83435 1.90735e-06 0 1.801 0 4V28C0 30.199 1.83435 32 4.07407 32H105.926C108.166 32 110 30.199 110 28V4C110 1.801 108.166 1.90735e-06 105.926 1.90735e-06Z" fill="#A6A6A6"/>
<path d="M24.5495 15.8272C24.5259 13.2488 26.6998 11.9944 26.7992 11.936C25.5681 10.1736 23.6598 9.93283 22.9892 9.91363C21.3864 9.74803 19.8318 10.8552 19.0153 10.8552C18.1826 10.8552 16.9253 9.92963 15.5703 9.95683C13.8266 9.98323 12.1953 10.9744 11.3006 12.5136C9.45428 15.652 10.8313 20.264 12.6003 22.8008C13.4852 24.0432 14.5192 25.4304 15.8726 25.3816C17.1966 25.328 17.6912 24.5528 19.2891 24.5528C20.8723 24.5528 21.3367 25.3816 22.717 25.3504C24.1381 25.328 25.0327 24.1024 25.8866 22.8488C26.9092 21.4248 27.3199 20.0224 27.3362 19.9504C27.3028 19.9392 24.5764 18.9176 24.5495 15.8272Z" fill="black"/>
<path d="M21.9421 8.24483C22.6543 7.37043 23.1415 6.18083 23.0063 4.97363C21.9755 5.01843 20.6865 5.67363 19.9442 6.52883C19.2875 7.28243 18.7008 8.51763 18.8524 9.67923C20.0102 9.76403 21.199 9.10563 21.9421 8.24483Z" fill="black"/>
<path d="M39.9667 8.00696C39.9667 8.94856 39.6791 9.65736 39.1046 10.1334C38.5726 10.5726 37.8164 10.7926 36.837 10.7926C36.3514 10.7926 35.9358 10.7718 35.5879 10.7302V5.58536C36.0417 5.51336 36.5306 5.47656 37.0586 5.47656C37.9916 5.47656 38.6948 5.67576 39.169 6.07416C39.7003 6.52456 39.9667 7.16856 39.9667 8.00696ZM39.0663 8.03016C39.0663 7.41976 38.9017 6.95176 38.5726 6.62536C38.2434 6.29976 37.7626 6.13656 37.1295 6.13656C36.8606 6.13656 36.6317 6.15416 36.4418 6.19096V10.1022C36.5469 10.1182 36.7392 10.1254 37.0187 10.1254C37.6722 10.1254 38.1766 9.94696 38.5318 9.59016C38.8871 9.23336 39.0663 8.71336 39.0663 8.03016Z" fill="black"/>
<path d="M44.7405 8.82964C44.7405 9.40964 44.5719 9.88484 44.2345 10.2576C43.8809 10.6408 43.4124 10.832 42.8273 10.832C42.2635 10.832 41.8145 10.6488 41.4796 10.2808C41.1456 9.91364 40.9785 9.45044 40.9785 8.89204C40.9785 8.30804 41.1504 7.82884 41.4959 7.45684C41.8414 7.08484 42.3059 6.89844 42.8909 6.89844C43.4547 6.89844 43.9078 7.08164 44.2508 7.44884C44.5767 7.80564 44.7405 8.26644 44.7405 8.82964ZM43.8548 8.85684C43.8548 8.50884 43.7782 8.21044 43.6259 7.96164C43.4466 7.66084 43.1916 7.51044 42.8599 7.51044C42.5169 7.51044 42.2561 7.66084 42.0769 7.96164C41.9237 8.21044 41.8479 8.51364 41.8479 8.87204C41.8479 9.22004 41.9245 9.51844 42.0769 9.76724C42.2619 10.068 42.5193 10.2184 42.8518 10.2184C43.1777 10.2184 43.4336 10.0656 43.6177 9.75924C43.7758 9.50564 43.8548 9.20484 43.8548 8.85684Z" fill="black"/>
<path d="M51.1414 6.9751L49.9395 10.7463H49.1573L48.6594 9.1087C48.5331 8.6999 48.4305 8.2935 48.3506 7.8903H48.3351C48.261 8.3047 48.1583 8.7103 48.0263 9.1087L47.4975 10.7463H46.7063L45.5762 6.9751H46.4537L46.888 8.7679C46.9931 9.1919 47.0795 9.5959 47.1488 9.9783H47.1642C47.2278 9.6631 47.3329 9.2615 47.4812 8.7759L48.0263 6.9759H48.7222L49.2445 8.7375C49.3708 9.1671 49.4734 9.5807 49.5525 9.9791H49.5761C49.6339 9.5911 49.7211 9.1775 49.8368 8.7375L50.3029 6.9759H51.1414V6.9751Z" fill="black"/>
<path d="M55.568 10.7464H54.7141V8.5864C54.7141 7.9208 54.4566 7.588 53.94 7.588C53.6866 7.588 53.4821 7.6792 53.3232 7.8624C53.1659 8.0456 53.0861 8.2616 53.0861 8.5088V10.7456H52.2321V8.0528C52.2321 7.7216 52.2215 7.3624 52.2012 6.9736H52.9516L52.9915 7.5632H53.0152C53.1146 7.38 53.2629 7.2288 53.4576 7.108C53.689 6.9672 53.9481 6.896 54.2317 6.896C54.5902 6.896 54.8884 7.0096 55.1255 7.2376C55.4205 7.5168 55.568 7.9336 55.568 8.4872V10.7464Z" fill="black"/>
<path d="M57.9234 10.7462H57.0703V5.24463H57.9234V10.7462Z" fill="black"/>
<path d="M62.9515 8.82964C62.9515 9.40964 62.7828 9.88484 62.4455 10.2576C62.0918 10.6408 61.6225 10.832 61.0383 10.832C60.4736 10.832 60.0246 10.6488 59.6906 10.2808C59.3565 9.91364 59.1895 9.45044 59.1895 8.89204C59.1895 8.30804 59.3614 7.82884 59.7069 7.45684C60.0523 7.08484 60.5168 6.89844 61.101 6.89844C61.6657 6.89844 62.1179 7.08164 62.4617 7.44884C62.7877 7.80564 62.9515 8.26644 62.9515 8.82964ZM62.0649 8.85684C62.0649 8.50884 61.9883 8.21044 61.836 7.96164C61.6575 7.66084 61.4017 7.51044 61.0709 7.51044C60.727 7.51044 60.4663 7.66084 60.2878 7.96164C60.1346 8.21044 60.0589 8.51364 60.0589 8.87204C60.0589 9.22004 60.1355 9.51844 60.2878 9.76724C60.4728 10.068 60.7303 10.2184 61.0627 10.2184C61.3886 10.2184 61.6437 10.0656 61.8278 9.75924C61.9867 9.50564 62.0649 9.20484 62.0649 8.85684Z" fill="black"/>
<path d="M67.083 10.7464H66.3163L66.2527 10.312H66.2291C65.9667 10.6584 65.5927 10.832 65.1071 10.832C64.7445 10.832 64.4512 10.7176 64.2304 10.4904C64.0299 10.284 63.9297 10.0272 63.9297 9.72244C63.9297 9.26164 64.1252 8.91044 64.5188 8.66724C64.9115 8.42404 65.464 8.30484 66.1753 8.31044V8.24004C66.1753 7.74324 65.9097 7.49524 65.3776 7.49524C64.9987 7.49524 64.6647 7.58884 64.3762 7.77444L64.2026 7.22404C64.5595 7.00724 65.0004 6.89844 65.5202 6.89844C66.5241 6.89844 67.0276 7.41844 67.0276 8.45844V9.84724C67.0276 10.224 67.0464 10.524 67.083 10.7464ZM66.1965 9.45044V8.86884C65.2546 8.85284 64.7836 9.10644 64.7836 9.62884C64.7836 9.82564 64.8374 9.97284 64.9474 10.0712C65.0574 10.1696 65.1975 10.2184 65.3646 10.2184C65.552 10.2184 65.7272 10.16 65.8869 10.044C66.0474 9.92724 66.146 9.77924 66.1826 9.59764C66.1916 9.55684 66.1965 9.50724 66.1965 9.45044Z" fill="black"/>
<path d="M71.9362 10.7462H71.1784L71.1385 10.1406H71.1149C70.8729 10.6014 70.4606 10.8318 69.8812 10.8318C69.4184 10.8318 69.033 10.6534 68.7275 10.2966C68.4219 9.93983 68.2695 9.47663 68.2695 8.90783C68.2695 8.29743 68.4349 7.80303 68.7674 7.42543C69.0892 7.07343 69.4836 6.89743 69.9529 6.89743C70.4687 6.89743 70.8297 7.06783 71.035 7.40943H71.0513V5.24463H71.906V9.73023C71.906 10.0974 71.9158 10.4358 71.9362 10.7462ZM71.0513 9.15583V8.52703C71.0513 8.41823 71.0432 8.33023 71.0277 8.26303C70.9796 8.06143 70.8761 7.89183 70.7189 7.75503C70.56 7.61823 70.3685 7.54943 70.1477 7.54943C69.8291 7.54943 69.5797 7.67343 69.3964 7.92223C69.2147 8.17103 69.1226 8.48863 69.1226 8.87663C69.1226 9.24943 69.2098 9.55183 69.385 9.78463C69.57 10.0326 69.8193 10.1566 70.1314 10.1566C70.4117 10.1566 70.6358 10.0534 70.806 9.84623C70.9706 9.65503 71.0513 9.42463 71.0513 9.15583Z" fill="black"/>
<path d="M79.2386 8.82964C79.2386 9.40964 79.0699 9.88484 78.7326 10.2576C78.3789 10.6408 77.9112 10.832 77.3254 10.832C76.7623 10.832 76.3134 10.6488 75.9777 10.2808C75.6436 9.91364 75.4766 9.45044 75.4766 8.89204C75.4766 8.30804 75.6485 7.82884 75.994 7.45684C76.3395 7.08484 76.8039 6.89844 77.3897 6.89844C77.9528 6.89844 78.4066 7.08164 78.7489 7.44884C79.0748 7.80564 79.2386 8.26644 79.2386 8.82964ZM78.3537 8.85684C78.3537 8.50884 78.2771 8.21044 78.1247 7.96164C77.9446 7.66084 77.6904 7.51044 77.358 7.51044C77.0158 7.51044 76.755 7.66084 76.5749 7.96164C76.4217 8.21044 76.346 8.51364 76.346 8.87204C76.346 9.22004 76.4226 9.51844 76.5749 9.76724C76.7599 10.068 77.0174 10.2184 77.3498 10.2184C77.6757 10.2184 77.9324 10.0656 78.1166 9.75924C78.2738 9.50564 78.3537 9.20484 78.3537 8.85684Z" fill="black"/>
<path d="M83.8308 10.7464H82.9777V8.5864C82.9777 7.9208 82.7202 7.588 82.2028 7.588C81.9494 7.588 81.7449 7.6792 81.5868 7.8624C81.4288 8.0456 81.3497 8.2616 81.3497 8.5088V10.7456H80.495V8.0528C80.495 7.7216 80.4852 7.3624 80.4648 6.9736H81.2145L81.2544 7.5632H81.278C81.3783 7.38 81.5265 7.2288 81.7205 7.108C81.9527 6.9672 82.211 6.896 82.4954 6.896C82.8531 6.896 83.1513 7.0096 83.3884 7.2376C83.6842 7.5168 83.8308 7.9336 83.8308 8.4872V10.7464Z" fill="black"/>
<path d="M89.5776 7.60284H88.6373V9.43484C88.6373 9.90044 88.8043 10.1332 89.1352 10.1332C89.2883 10.1332 89.4155 10.1204 89.5157 10.094L89.5377 10.73C89.369 10.7924 89.1474 10.8236 88.8744 10.8236C88.5371 10.8236 88.2747 10.7228 88.0849 10.5212C87.8942 10.3196 87.7997 9.98044 87.7997 9.50444V7.60284H87.2383V6.97484H87.7997V6.28364L88.6365 6.03564V6.97404H89.5768V7.60284H89.5776Z" fill="black"/>
<path d="M94.0976 10.7462H93.2428V8.60223C93.2428 7.92623 92.9854 7.58783 92.4696 7.58783C92.0736 7.58783 91.8031 7.78383 91.6548 8.17583C91.6295 8.25823 91.6148 8.35903 91.6148 8.47743V10.7454H90.7617V5.24463H91.6148V7.51743H91.6311C91.9 7.10383 92.2854 6.89743 92.7849 6.89743C93.1385 6.89743 93.4311 7.01103 93.6633 7.23903C93.9525 7.52303 94.0976 7.94543 94.0976 8.50383V10.7462Z" fill="black"/>
<path d="M98.7606 8.68231C98.7606 8.83271 98.7492 8.95911 98.7288 9.06231H96.1679C96.1793 9.43511 96.3015 9.71911 96.5386 9.91591C96.7553 10.0919 97.0348 10.1799 97.377 10.1799C97.7559 10.1799 98.1014 10.1207 98.4127 10.0015L98.5463 10.5839C98.1821 10.7391 97.7535 10.8167 97.2573 10.8167C96.6624 10.8167 96.1939 10.6447 95.855 10.3007C95.5144 9.95671 95.3457 9.49511 95.3457 8.91591C95.3457 8.34711 95.503 7.87351 95.8199 7.49591C96.1507 7.09271 96.5981 6.89111 97.1627 6.89111C97.7152 6.89111 98.1348 7.09271 98.4184 7.49591C98.6473 7.81591 98.7606 8.21191 98.7606 8.68231ZM97.9458 8.46551C97.9523 8.21671 97.8961 8.00231 97.7804 7.82151C97.6321 7.58871 97.4064 7.47191 97.1008 7.47191C96.8221 7.47191 96.5948 7.58551 96.4213 7.81351C96.2795 7.99511 96.1956 8.21191 96.1679 8.46551H97.9458Z" fill="black"/>
<path d="M43.7111 25.203H41.8606L40.847 22.0758H37.3238L36.3582 25.203H34.5566L38.0473 14.5566H40.2033L43.7111 25.203ZM40.5415 20.7638L39.6248 17.9838C39.5278 17.6998 39.3461 17.031 39.078 15.9782H39.0455C38.9387 16.431 38.7668 17.0998 38.5305 17.9838L37.6301 20.7638H40.5415Z" fill="black"/>
<path d="M52.6879 21.2703C52.6879 22.5759 52.3286 23.6079 51.6099 24.3655C50.9662 25.0399 50.1669 25.3767 49.2127 25.3767C48.1828 25.3767 47.4429 25.0135 46.9924 24.2871H46.9598V28.3311H45.2226V20.0535C45.2226 19.2327 45.2006 18.3903 45.1582 17.5263H46.686L46.7829 18.7431H46.8155C47.3949 17.8263 48.2741 17.3687 49.4539 17.3687C50.3763 17.3687 51.1463 17.7263 51.7623 18.4423C52.3799 19.1591 52.6879 20.1015 52.6879 21.2703ZM50.9181 21.3327C50.9181 20.5855 50.747 19.9695 50.4032 19.4847C50.0275 18.9791 49.5232 18.7263 48.8909 18.7263C48.4623 18.7263 48.0728 18.8671 47.7249 19.1447C47.3761 19.4247 47.148 19.7903 47.0412 20.2431C46.9875 20.4543 46.9606 20.6271 46.9606 20.7631V22.0431C46.9606 22.6015 47.1349 23.0727 47.4837 23.4575C47.8324 23.8423 48.2855 24.0343 48.8428 24.0343C49.4971 24.0343 50.0064 23.7863 50.3706 23.2919C50.7356 22.7967 50.9181 22.1439 50.9181 21.3327Z" fill="black"/>
<path d="M61.6812 21.2703C61.6812 22.5759 61.3219 23.6079 60.6024 24.3655C59.9595 25.0399 59.1602 25.3767 58.206 25.3767C57.1761 25.3767 56.4363 25.0135 55.9865 24.2871H55.9539V28.3311H54.2167V20.0535C54.2167 19.2327 54.1947 18.3903 54.1523 17.5263H55.6801L55.7771 18.7431H55.8097C56.3882 17.8263 57.2674 17.3687 58.4481 17.3687C59.3696 17.3687 60.1396 17.7263 60.7572 18.4423C61.3724 19.1591 61.6812 20.1015 61.6812 21.2703ZM59.9115 21.3327C59.9115 20.5855 59.7395 19.9695 59.3957 19.4847C59.02 18.9791 58.5173 18.7263 57.8842 18.7263C57.4548 18.7263 57.0661 18.8671 56.7174 19.1447C56.3686 19.4247 56.1413 19.7903 56.0346 20.2431C55.9816 20.4543 55.9539 20.6271 55.9539 20.7631V22.0431C55.9539 22.6015 56.1283 23.0727 56.4754 23.4575C56.8241 23.8415 57.2772 24.0343 57.8361 24.0343C58.4904 24.0343 58.9997 23.7863 59.3639 23.2919C59.7289 22.7967 59.9115 22.1439 59.9115 21.3327Z" fill="black"/>
<path d="M71.7349 22.2177C71.7349 23.1233 71.4147 23.8601 70.7718 24.4289C70.0654 25.0505 69.0819 25.3609 67.8181 25.3609C66.6513 25.3609 65.7159 25.1401 65.0078 24.6977L65.4103 23.2761C66.173 23.7289 67.0098 23.9561 67.9216 23.9561C68.5759 23.9561 69.0851 23.8105 69.451 23.5209C69.8152 23.2313 69.9969 22.8425 69.9969 22.3577C69.9969 21.9257 69.847 21.5617 69.5463 21.2665C69.2473 20.9713 68.7478 20.6969 68.0503 20.4433C66.1518 19.7481 65.2034 18.7297 65.2034 17.3905C65.2034 16.5153 65.5358 15.7977 66.2015 15.2393C66.8648 14.6801 67.7497 14.4009 68.8562 14.4009C69.8429 14.4009 70.6626 14.5697 71.3169 14.9065L70.8826 16.2969C70.2715 15.9705 69.5806 15.8073 68.8073 15.8073C68.1962 15.8073 67.7187 15.9553 67.3765 16.2497C67.0872 16.5129 66.9422 16.8337 66.9422 17.2137C66.9422 17.6345 67.1076 17.9825 67.44 18.2561C67.7293 18.5089 68.2549 18.7825 69.0175 19.0777C69.9505 19.4465 70.6357 19.8777 71.0766 20.3721C71.5157 20.8649 71.7349 21.4817 71.7349 22.2177Z" fill="black"/>
<path d="M77.4786 18.8066H75.5638V22.5338C75.5638 23.4818 75.9011 23.9554 76.5774 23.9554C76.8878 23.9554 77.1453 23.929 77.349 23.8762L77.3971 25.1714C77.0549 25.297 76.6043 25.3602 76.0461 25.3602C75.3601 25.3602 74.8239 25.1546 74.4369 24.7442C74.0515 24.333 73.8575 23.6434 73.8575 22.6746V18.805H72.7168V17.525H73.8575V16.1194L75.5638 15.6138V17.525H77.4786V18.8066Z" fill="black"/>
<path d="M86.1194 21.3016C86.1194 22.4816 85.7755 23.4504 85.0895 24.208C84.37 24.988 83.415 25.3768 82.2246 25.3768C81.0773 25.3768 80.1639 25.0032 79.4827 24.256C78.8015 23.5088 78.4609 22.5656 78.4609 21.4288C78.4609 20.2392 78.8113 19.2648 79.5145 18.5072C80.216 17.7488 81.1629 17.3696 82.3533 17.3696C83.5006 17.3696 84.4237 17.7432 85.1204 18.4912C85.7869 19.2168 86.1194 20.1536 86.1194 21.3016ZM84.317 21.3568C84.317 20.6488 84.163 20.0416 83.8509 19.5352C83.4867 18.9224 82.966 18.6168 82.2914 18.6168C81.5931 18.6168 81.0626 18.9232 80.6984 19.5352C80.3863 20.0424 80.2323 20.6592 80.2323 21.3888C80.2323 22.0968 80.3863 22.704 80.6984 23.2096C81.074 23.8224 81.5988 24.128 82.2759 24.128C82.9392 24.128 83.4598 23.816 83.8355 23.1936C84.1557 22.6776 84.317 22.064 84.317 21.3568Z" fill="black"/>
<path d="M91.7653 19.0263C91.5934 18.9951 91.41 18.9791 91.2178 18.9791C90.6066 18.9791 90.134 19.2055 89.8016 19.6591C89.5123 20.0591 89.3673 20.5647 89.3673 21.1751V25.2031H87.6309L87.6472 19.9439C87.6472 19.0591 87.6252 18.2535 87.582 17.5271H89.0952L89.1587 18.9959H89.2068C89.3901 18.4911 89.6794 18.0847 90.0754 17.7799C90.4624 17.5055 90.8804 17.3687 91.331 17.3687C91.4915 17.3687 91.6366 17.3799 91.7653 17.3999V19.0263Z" fill="black"/>
<path d="M99.5347 21.0017C99.5347 21.3073 99.5143 21.5649 99.4711 21.7753H94.2596C94.2799 22.5337 94.5317 23.1137 95.0157 23.5137C95.4549 23.8713 96.0228 24.0505 96.7203 24.0505C97.4919 24.0505 98.1959 23.9297 98.829 23.6873L99.1012 24.8713C98.3613 25.1881 97.4879 25.3457 96.4799 25.3457C95.2675 25.3457 94.3158 24.9953 93.6232 24.2953C92.9322 23.5953 92.5859 22.6553 92.5859 21.4761C92.5859 20.3185 92.9078 19.3545 93.5523 18.5857C94.227 17.7649 95.1387 17.3545 96.286 17.3545C97.4129 17.3545 98.266 17.7649 98.8453 18.5857C99.3041 19.2377 99.5347 20.0441 99.5347 21.0017ZM97.8782 20.5593C97.8896 20.0537 97.7763 19.6169 97.5408 19.2481C97.2402 18.7737 96.7782 18.5369 96.1565 18.5369C95.5885 18.5369 95.1265 18.7681 94.7737 19.2321C94.4845 19.6009 94.3125 20.0433 94.2596 20.5585H97.8782V20.5593Z" fill="black"/>
</svg>
