<svg width="18" height="18" viewBox="0 0 18 18" fill="none" xmlns="http://www.w3.org/2000/svg">
<path d="M15.3462 6.0925C16.0262 6.32917 16.5 7.0325 16.5 7.84V11.4117C16.5 12.3583 15.8485 13.1617 14.9769 13.2392C14.7154 13.2617 14.4538 13.2825 14.1923 13.2992V15.875L11.8846 13.375C10.8431 13.375 9.81231 13.3292 8.79231 13.2392C8.57025 13.2197 8.35425 13.1511 8.15769 13.0375M15.3462 6.0925C15.2273 6.05105 15.1044 6.02449 14.98 6.01333C12.92 5.82807 10.8493 5.82807 8.78923 6.01333C7.91923 6.09167 7.26923 6.89417 7.26923 7.84V11.4117C7.26923 12.1092 7.62308 12.7283 8.15769 13.0375M15.3462 6.0925V4.53083C15.3462 3.18 14.46 2.00917 13.2231 1.835C11.6314 1.61149 10.0281 1.49959 8.42308 1.5C6.79615 1.5 5.19385 1.61417 3.62308 1.835C2.38615 2.00917 1.5 3.18 1.5 4.53083V9.71917C1.5 11.07 2.38615 12.2408 3.62308 12.415C4.06692 12.4775 4.51308 12.5317 4.96154 12.5767V16.5L8.15769 13.0375" stroke="white" stroke-width="1.5" stroke-linecap="round" stroke-linejoin="round"/>
</svg>
