<svg width="22" height="21" viewBox="0 0 22 21" fill="none" xmlns="http://www.w3.org/2000/svg">
<path d="M1 11.4221C1 13.0221 2.123 14.4161 3.707 14.6491C4.794 14.8091 5.892 14.9321 7 15.0181V19.6621L11.076 15.5861C11.3524 15.3115 11.7235 15.153 12.113 15.1431C14.0144 15.0905 15.911 14.9255 17.793 14.6491C19.377 14.4161 20.5 13.0231 20.5 11.4211V5.40311C20.5 3.80111 19.377 2.40811 17.793 2.17511C15.461 1.83283 13.107 1.66137 10.75 1.66211C8.358 1.66211 6.006 1.83711 3.707 2.17511C2.123 2.40811 1 3.80211 1 5.40311V11.4211V11.4221Z" stroke="#111827" stroke-width="2" stroke-linecap="round" stroke-linejoin="round"/>
</svg>
