<svg width="22" height="22" viewBox="0 0 22 22" fill="none" xmlns="http://www.w3.org/2000/svg">
<path d="M19.4615 7.12333C20.3682 7.43889 21 8.37667 21 9.45333V14.2156C21 15.4778 20.1313 16.5489 18.9692 16.6522C18.6205 16.6822 18.2718 16.71 17.9231 16.7322V20.1667L14.8462 16.8333C13.4574 16.8333 12.0831 16.7722 10.7231 16.6522C10.427 16.6263 10.139 16.5348 9.87692 16.3833M19.4615 7.12333C19.3031 7.06807 19.1393 7.03266 18.9733 7.01778C16.2266 6.77076 13.4657 6.77076 10.719 7.01778C9.55897 7.12222 8.69231 8.19222 8.69231 9.45333V14.2156C8.69231 15.1456 9.1641 15.9711 9.87692 16.3833M19.4615 7.12333V5.04111C19.4615 3.24 18.28 1.67889 16.6308 1.44667C14.5085 1.14866 12.3708 0.999459 10.2308 1C8.06154 1 5.92513 1.15222 3.83077 1.44667C2.18154 1.67889 1 3.24 1 5.04111V11.9589C1 13.76 2.18154 15.3211 3.83077 15.5533C4.42256 15.6367 5.01744 15.7089 5.61538 15.7689V21L9.87692 16.3833" stroke="#002823" stroke-width="2" stroke-linecap="round" stroke-linejoin="round"/>
</svg>
