<svg width="22" height="22" viewBox="0 0 22 22" fill="none" xmlns="http://www.w3.org/2000/svg">
<path d="M1 11.8444C1 13.6222 2.15179 15.1711 3.77641 15.43C4.89128 15.6078 6.01744 15.7444 7.15385 15.84V21L11.3344 16.4711C11.6179 16.1659 11.9984 15.9898 12.3979 15.9789C14.3481 15.9204 16.2934 15.7371 18.2236 15.43C19.8482 15.1711 21 13.6233 21 11.8433V5.15667C21 3.37667 19.8482 1.82889 18.2236 1.57C15.8318 1.18968 13.4175 0.999178 11 1C8.54667 1 6.13436 1.19445 3.77641 1.57C2.15179 1.82889 1 3.37778 1 5.15667V11.8433V11.8444Z" stroke="#111827" stroke-linecap="round" stroke-linejoin="round"/>
</svg>
