<svg width="40" height="40" viewBox="0 0 40 40" fill="none" xmlns="http://www.w3.org/2000/svg">
<path d="M35.2308 13.022C36.8628 13.59 38 15.278 38 17.216V25.788C38 28.06 36.4363 29.988 34.3446 30.174C33.7169 30.228 33.0892 30.278 32.4615 30.318V36.5L26.9231 30.5C24.4234 30.5 21.9495 30.39 19.5015 30.174C18.9686 30.1273 18.4502 29.9626 17.9785 29.69M35.2308 13.022C34.9455 12.9225 34.6507 12.8588 34.352 12.832C29.4079 12.3874 24.4383 12.3874 19.4942 12.832C17.4062 13.02 15.8462 14.946 15.8462 17.216V25.788C15.8462 27.462 16.6954 28.948 17.9785 29.69M35.2308 13.022V9.274C35.2308 6.032 33.104 3.222 30.1354 2.804C26.3154 2.26759 22.4674 1.99903 18.6154 2C14.7108 2 10.8652 2.274 7.09539 2.804C4.12677 3.222 2 6.032 2 9.274V21.726C2 24.968 4.12677 27.778 7.09539 28.196C8.16062 28.346 9.23138 28.476 10.3077 28.584V38L17.9785 29.69" stroke="#002823" stroke-width="3" stroke-linecap="round" stroke-linejoin="round"/>
</svg>
