<svg width="24" height="27" viewBox="0 0 24 27" fill="none" xmlns="http://www.w3.org/2000/svg">
<path fill-rule="evenodd" clip-rule="evenodd" d="M20.0444 5.89948C20.1387 5.977 20.2179 6.07389 20.2775 6.1846C20.3372 6.29532 20.3761 6.4177 20.392 6.54473C20.408 6.67175 20.4006 6.80094 20.3704 6.92489C20.3402 7.04884 20.2878 7.16512 20.216 7.26708L10.616 20.9171C10.5382 21.0276 10.4393 21.1189 10.3262 21.1847C10.2131 21.2505 10.0883 21.2893 9.96026 21.2985C9.83216 21.3078 9.70373 21.2872 9.58357 21.2382C9.46342 21.1892 9.35433 21.113 9.26362 21.0146L3.86362 15.1646C3.70464 14.9798 3.6181 14.7353 3.62221 14.4827C3.62632 14.2301 3.72078 13.9891 3.88567 13.8105C4.05057 13.6318 4.27303 13.5295 4.50619 13.5251C4.73935 13.5206 4.96501 13.6144 5.13562 13.7866L9.80842 18.8475L18.7844 6.08538C18.9289 5.87992 19.1427 5.74495 19.3789 5.71009C19.6152 5.67524 19.8545 5.74335 20.0444 5.89948Z" fill="#4A5565"/>
</svg>
