<svg width="12" height="10" viewBox="0 0 12 10" fill="none" xmlns="http://www.w3.org/2000/svg">
<path fill-rule="evenodd" clip-rule="evenodd" d="M11.6325 0.127121C11.6993 0.17681 11.7554 0.238919 11.7976 0.309893C11.8399 0.380867 11.8674 0.459312 11.8787 0.54074C11.89 0.622168 11.8848 0.70498 11.8634 0.784435C11.842 0.863891 11.8049 0.93843 11.754 1.00379L4.95405 9.75379C4.89889 9.82466 4.8289 9.88315 4.74879 9.92533C4.66867 9.9675 4.58028 9.99238 4.48955 9.9983C4.39882 10.0042 4.30784 9.99104 4.22273 9.95965C4.13762 9.92825 4.06035 9.87937 3.9961 9.81629L0.171098 6.06629C0.05849 5.94781 -0.00281466 5.7911 9.93199e-05 5.62919C0.0030133 5.46727 0.0699185 5.31278 0.18672 5.19827C0.303521 5.08376 0.461098 5.01816 0.626254 5.01531C0.79141 5.01245 0.951249 5.07255 1.0721 5.18295L4.382 8.42712L10.74 0.246288C10.8423 0.114581 10.9938 0.0280611 11.1611 0.00571928C11.3284 -0.0166226 11.498 0.0270393 11.6325 0.127121Z" fill="white"/>
</svg>
