<svg width="22" height="22" viewBox="0 0 22 22" fill="none" xmlns="http://www.w3.org/2000/svg">
<path d="M17.6667 6V9.33333M17.6667 9.33333V12.6667M17.6667 9.33333H21M17.6667 9.33333H14.3333M11.8333 4.75C11.8333 5.74456 11.4382 6.69838 10.735 7.40164C10.0317 8.10491 9.0779 8.49999 8.08333 8.49999C7.08877 8.49999 6.13494 8.10491 5.43168 7.40164C4.72842 6.69838 4.33333 5.74456 4.33333 4.75C4.33333 3.75544 4.72842 2.80161 5.43168 2.09835C6.13494 1.39509 7.08877 1 8.08333 1C9.0779 1 10.0317 1.39509 10.735 2.09835C11.4382 2.80161 11.8333 3.75544 11.8333 4.75ZM1 19.0389V18.9167C1 17.038 1.74628 15.2364 3.07466 13.908C4.40304 12.5796 6.20472 11.8333 8.08333 11.8333C9.96195 11.8333 11.7636 12.5796 13.092 13.908C14.4204 15.2364 15.1667 17.038 15.1667 18.9167V19.0378C13.0283 20.3256 10.5785 21.0042 8.08222 21C5.49222 21 3.06889 20.2833 1 19.0378V19.0389Z" stroke="#002823" stroke-width="2" stroke-linecap="round" stroke-linejoin="round"/>
</svg>
