<svg width="16" height="16" viewBox="0 0 16 16" fill="none" xmlns="http://www.w3.org/2000/svg">
<path d="M0.5 15.5H15.5M1.65385 0.5V15.5M9.73077 0.5V15.5M14.3462 4.25V15.5M3.96154 3.625H4.53846M3.96154 6.125H4.53846M3.96154 8.625H4.53846M6.84615 3.625H7.42308M6.84615 6.125H7.42308M6.84615 8.625H7.42308M3.96154 15.5V12.6875C3.96154 12.17 4.34923 11.75 4.82692 11.75H6.55769C7.03538 11.75 7.42308 12.17 7.42308 12.6875V15.5M1.07692 0.5H10.3077M9.73077 4.25H14.9231M12.0385 7.375H12.0446V7.38167H12.0385V7.375ZM12.0385 9.875H12.0446V9.88167H12.0385V9.875ZM12.0385 12.375H12.0446V12.3817H12.0385V12.375Z" stroke="white" stroke-linecap="round" stroke-linejoin="round"/>
</svg>
