<svg width="110" height="32" viewBox="0 0 110 32" fill="none" xmlns="http://www.w3.org/2000/svg">
<path d="M105.926 31.7778H4.07407C1.83435 31.7778 0 29.9893 0 27.8056V3.97228C0 1.78855 1.83435 5.38333e-05 4.07407 5.38333e-05H105.926C108.166 5.38333e-05 110 1.78855 110 3.97228V27.8056C110 29.9893 108.166 31.7778 105.926 31.7778Z" fill="white"/>
<path d="M105.926 0.636602C107.812 0.636602 109.347 2.13314 109.347 3.97228V27.8056C109.347 29.6447 107.812 31.1413 105.926 31.1413H4.07407C2.18778 31.1413 0.65287 29.6447 0.65287 27.8056V3.97228C0.65287 2.13314 2.18778 0.636602 4.07407 0.636602H105.926ZM105.926 5.38333e-05H4.07407C1.83435 5.38333e-05 0 1.78855 0 3.97228V27.8056C0 29.9893 1.83435 31.7778 4.07407 31.7778H105.926C108.166 31.7778 110 29.9893 110 27.8056V3.97228C110 1.78855 108.166 5.38333e-05 105.926 5.38333e-05Z" fill="#A6A6A6"/>
<path d="M8.50287 5.98905C8.26352 6.23334 8.125 6.61368 8.125 7.10624V24.6754C8.125 25.1679 8.26352 25.5483 8.50287 25.7926L8.56194 25.8462L18.6595 16.005V15.7726L8.56194 5.93145L8.50287 5.98905Z" fill="url(#paint0_linear_22769_52001)"/>
<path d="M22.0203 19.2876L18.6582 16.0055V15.7732L22.0244 12.4911L22.0998 12.5338L26.0863 14.7454C27.2239 15.373 27.2239 16.4058 26.0863 17.0373L22.0998 19.2449L22.0203 19.2876Z" fill="url(#paint1_linear_22769_52001)"/>
<path d="M22.1021 19.2448L18.6606 15.8893L8.50391 25.7931C8.88178 26.1803 9.49798 26.227 10.1987 25.8397L22.1021 19.2448Z" fill="url(#paint2_linear_22769_52001)"/>
<path d="M22.1021 12.5336L10.1987 5.93875C9.49798 5.55543 8.88178 5.6021 8.50391 5.98939L18.6606 15.8892L22.1021 12.5336Z" fill="url(#paint3_linear_22769_52001)"/>
<path d="M38.6372 8.13931C38.6372 8.80267 38.4335 9.33395 38.0322 9.73018C37.5708 10.1999 36.9699 10.4362 36.2335 10.4362C35.5297 10.4362 34.9287 10.1959 34.4358 9.72224C33.9418 9.2416 33.6953 8.65172 33.6953 7.94566C33.6953 7.2396 33.9418 6.64972 34.4358 6.17306C34.9287 5.6954 35.5297 5.45508 36.2335 5.45508C36.5838 5.45508 36.9179 5.52559 37.2367 5.65667C37.5545 5.78874 37.8132 5.96749 38.0006 6.18795L37.5748 6.60702C37.2479 6.23066 36.8028 6.04495 36.2335 6.04495C35.7201 6.04495 35.275 6.21973 34.8972 6.57227C34.5234 6.92579 34.336 7.38359 34.336 7.94566C34.336 8.50773 34.5234 8.9695 34.8972 9.32303C35.275 9.67159 35.7201 9.85034 36.2335 9.85034C36.7784 9.85034 37.2367 9.67159 37.5983 9.31906C37.8366 9.08569 37.9721 8.76394 38.0077 8.35281H36.2335V7.77883H38.6005C38.629 7.90296 38.6372 8.02312 38.6372 8.13931Z" fill="black" stroke="black" stroke-width="0.16" stroke-miterlimit="10"/>
<path d="M42.3919 6.14839H40.1685V7.65783H42.173V8.23182H40.1685V9.74126H42.3919V10.3262H39.5391V5.56348H42.3919V6.14839Z" fill="black" stroke="black" stroke-width="0.16" stroke-miterlimit="10"/>
<path d="M45.0421 10.3267H44.4126V6.14887H43.0488V5.56396H46.4069V6.14887H45.0421V10.3267Z" fill="black" stroke="black" stroke-width="0.16" stroke-miterlimit="10"/>
<path d="M48.8379 10.3262V5.56348H49.4663V10.3262H48.8379Z" fill="black" stroke="black" stroke-width="0.16" stroke-miterlimit="10"/>
<path d="M52.251 10.3267H51.6267V6.14887H50.2578V5.56396H53.6199V6.14887H52.251V10.3267Z" fill="black" stroke="black" stroke-width="0.16" stroke-miterlimit="10"/>
<path d="M59.9772 9.7138C59.4954 10.1954 58.8985 10.4358 58.1866 10.4358C57.4706 10.4358 56.8737 10.1954 56.392 9.7138C55.9112 9.23317 55.6719 8.64329 55.6719 7.94517C55.6719 7.24706 55.9112 6.65718 56.392 6.17654C56.8737 5.69491 57.4706 5.45459 58.1866 5.45459C58.8945 5.45459 59.4913 5.69491 59.9731 6.18051C60.4579 6.66512 60.6972 7.25103 60.6972 7.94517C60.6972 8.64329 60.4579 9.23317 59.9772 9.7138ZM56.8574 9.3146C57.22 9.6711 57.661 9.84985 58.1866 9.84985C58.7081 9.84985 59.1532 9.6711 59.5117 9.3146C59.8733 8.95809 60.0566 8.50029 60.0566 7.94517C60.0566 7.39006 59.8733 6.93226 59.5117 6.57575C59.1532 6.21924 58.7081 6.04049 58.1866 6.04049C57.661 6.04049 57.22 6.21924 56.8574 6.57575C56.4959 6.93226 56.3125 7.39006 56.3125 7.94517C56.3125 8.50029 56.4959 8.95809 56.8574 9.3146Z" fill="black" stroke="black" stroke-width="0.16" stroke-miterlimit="10"/>
<path d="M61.5801 10.3262V5.56348H62.344L64.7192 9.26757H64.7467L64.7192 8.35198V5.56348H65.3476V10.3262H64.6917L62.2044 6.43935H62.1769L62.2044 7.35892V10.3262H61.5801Z" fill="black" stroke="black" stroke-width="0.16" stroke-miterlimit="10"/>
<path d="M55.5188 17.2812C53.605 17.2812 52.0416 18.7013 52.0416 20.6606C52.0416 22.604 53.605 24.039 55.5188 24.039C57.4367 24.039 59.0001 22.604 59.0001 20.6606C59.0001 18.7013 57.4367 17.2812 55.5188 17.2812ZM55.5188 22.7083C54.4687 22.7083 53.5653 21.8632 53.5653 20.6606C53.5653 19.4421 54.4687 18.6119 55.5188 18.6119C56.5689 18.6119 57.4764 19.4421 57.4764 20.6606C57.4764 21.8632 56.5689 22.7083 55.5188 22.7083ZM47.9319 17.2812C46.014 17.2812 44.4546 18.7013 44.4546 20.6606C44.4546 22.604 46.014 24.039 47.9319 24.039C49.8487 24.039 51.4091 22.604 51.4091 20.6606C51.4091 18.7013 49.8487 17.2812 47.9319 17.2812ZM47.9319 22.7083C46.8808 22.7083 45.9743 21.8632 45.9743 20.6606C45.9743 19.4421 46.8808 18.6119 47.9319 18.6119C48.982 18.6119 49.8854 19.4421 49.8854 20.6606C49.8854 21.8632 48.982 22.7083 47.9319 22.7083ZM38.9037 18.317V19.7529H42.4207C42.3178 20.5553 42.0428 21.1452 41.6211 21.5563C41.1078 22.0529 40.3083 22.604 38.9037 22.604C36.7394 22.604 35.0446 20.9009 35.0446 18.7907C35.0446 16.6804 36.7394 14.9773 38.9037 14.9773C40.074 14.9773 40.9255 15.4232 41.5539 16.0012L42.5918 14.9893C41.7128 14.171 40.5435 13.5424 38.9037 13.5424C35.9358 13.5424 33.4414 15.8969 33.4414 18.7907C33.4414 21.6844 35.9358 24.039 38.9037 24.039C40.5079 24.039 41.7128 23.5266 42.66 22.5653C43.6307 21.6189 43.9332 20.2882 43.9332 19.2137C43.9332 18.88 43.9046 18.5732 43.8537 18.317H38.9037ZM75.8209 19.4302C75.5347 18.6745 74.6517 17.2812 72.853 17.2812C71.0706 17.2812 69.5866 18.6507 69.5866 20.6606C69.5866 22.5534 71.0553 24.039 73.0241 24.039C74.616 24.039 75.5347 23.0926 75.9126 22.5414L74.7311 21.7738C74.337 22.3359 73.8002 22.7083 73.0241 22.7083C72.2531 22.7083 71.7 22.3637 71.3456 21.6844L75.9808 19.8145L75.8209 19.4302ZM71.095 20.5553C71.0553 19.2524 72.1329 18.5851 72.9049 18.5851C73.5099 18.5851 74.0232 18.88 74.1944 19.3021L71.095 20.5553ZM67.3275 23.8334H68.8512V13.9029H67.3275V23.8334ZM64.8321 18.034H64.7812C64.439 17.6387 63.7861 17.2812 62.9591 17.2812C61.2235 17.2812 59.6367 18.7668 59.6367 20.6715C59.6367 22.5653 61.2235 24.039 62.9591 24.039C63.7861 24.039 64.439 23.6785 64.7812 23.2713H64.8321V23.7559C64.8321 25.0479 64.1243 25.7421 62.9825 25.7421C62.0516 25.7421 61.4741 25.0866 61.2357 24.5355L59.9107 25.0747C60.2926 25.9705 61.304 27.0728 62.9825 27.0728C64.769 27.0728 66.2764 26.0479 66.2764 23.5544V17.4868H64.8321V18.034ZM63.0895 22.7083C62.0394 22.7083 61.1604 21.8513 61.1604 20.6715C61.1604 19.4808 62.0394 18.6119 63.0895 18.6119C64.1243 18.6119 64.9401 19.4808 64.9401 20.6715C64.9401 21.8513 64.1243 22.7083 63.0895 22.7083ZM82.9546 13.9029H79.3104V23.8334H80.83V20.0707H82.9546C84.6423 20.0707 86.2974 18.88 86.2974 16.9863C86.2974 15.0935 84.6382 13.9029 82.9546 13.9029ZM82.9944 18.6894H80.83V15.2842H82.9944C84.129 15.2842 84.7768 16.2028 84.7768 16.9863C84.7768 17.7549 84.129 18.6894 82.9944 18.6894ZM92.3881 17.2624C91.2902 17.2624 90.1484 17.7351 89.6789 18.7827L91.0274 19.3339C91.3177 18.7827 91.8514 18.604 92.4156 18.604C93.204 18.604 94.0035 19.0657 94.0157 19.881V19.9853C93.7407 19.8304 93.152 19.601 92.4279 19.601C90.9755 19.601 89.4956 20.3806 89.4956 21.8354C89.4956 23.1661 90.6852 24.0231 92.0225 24.0231C93.0451 24.0231 93.6093 23.5732 93.9638 23.0499H94.0157V23.8175H95.4834V20.0082C95.4834 18.2475 94.1349 17.2624 92.3881 17.2624ZM92.2048 22.7043C91.7078 22.7043 91.0152 22.464 91.0152 21.8632C91.0152 21.0946 91.8789 20.7996 92.6265 20.7996C93.2956 20.7996 93.6093 20.9436 94.0157 21.1333C93.8966 22.0529 93.0848 22.7043 92.2048 22.7043ZM100.831 17.4798L99.0839 21.7847H99.0319L97.2261 17.4798H95.5873L98.3006 23.4958L96.7525 26.8434H98.3404L102.521 17.4798H100.831ZM87.1326 23.8334H88.6563V13.9029H87.1326V23.8334Z" fill="black"/>
<defs>
<linearGradient id="paint0_linear_22769_52001" x1="17.763" y1="24.8583" x2="4.43458" y2="11.1882" gradientUnits="userSpaceOnUse">
<stop stop-color="#00A0FF"/>
<stop offset="0.0066" stop-color="#00A1FF"/>
<stop offset="0.2601" stop-color="#00BEFF"/>
<stop offset="0.5122" stop-color="#00D2FF"/>
<stop offset="0.7604" stop-color="#00DFFF"/>
<stop offset="1" stop-color="#00E3FF"/>
</linearGradient>
<linearGradient id="paint1_linear_22769_52001" x1="27.5677" y1="15.8882" x2="7.85172" y2="15.8882" gradientUnits="userSpaceOnUse">
<stop stop-color="#FFE000"/>
<stop offset="0.4087" stop-color="#FFBD00"/>
<stop offset="0.7754" stop-color="#FFA500"/>
<stop offset="1" stop-color="#FF9C00"/>
</linearGradient>
<linearGradient id="paint2_linear_22769_52001" x1="20.2307" y1="14.0652" x2="2.15631" y2="-4.47267" gradientUnits="userSpaceOnUse">
<stop stop-color="#FF3A44"/>
<stop offset="1" stop-color="#C31162"/>
</linearGradient>
<linearGradient id="paint3_linear_22769_52001" x1="5.94726" y1="31.6381" x2="14.0183" y2="23.3602" gradientUnits="userSpaceOnUse">
<stop stop-color="#32A071"/>
<stop offset="0.0685" stop-color="#2DA771"/>
<stop offset="0.4762" stop-color="#15CF74"/>
<stop offset="0.8009" stop-color="#06E775"/>
<stop offset="1" stop-color="#00F076"/>
</linearGradient>
</defs>
</svg>
