<svg width="140" height="47" viewBox="0 0 140 47" fill="none" xmlns="http://www.w3.org/2000/svg">
<path d="M134.815 46.3359H5.18519C2.33463 46.3359 0 43.7653 0 40.6266V6.37062C0 3.23192 2.33463 0.661293 5.18519 0.661293H134.815C137.665 0.661293 140 3.23192 140 6.37062V40.6266C140 43.7653 137.665 46.3359 134.815 46.3359Z" fill="black"/>
<path d="M134.815 1.57621C137.216 1.57621 139.169 3.7272 139.169 6.37062V40.6266C139.169 43.27 137.216 45.421 134.815 45.421H5.18519C2.78444 45.421 0.830926 43.27 0.830926 40.6266V6.37062C0.830926 3.7272 2.78444 1.57621 5.18519 1.57621H134.815ZM134.815 0.661293H5.18519C2.33463 0.661293 0 3.23192 0 6.37062V40.6266C0 43.7653 2.33463 46.3359 5.18519 46.3359H134.815C137.665 46.3359 140 43.7653 140 40.6266V6.37062C140 3.23192 137.665 0.661293 134.815 0.661293Z" fill="#A6A6A6"/>
<path d="M49.1744 12.3542C49.1744 13.3076 48.9151 14.0713 48.4044 14.6408C47.8172 15.3159 47.0524 15.6556 46.1151 15.6556C45.2194 15.6556 44.4546 15.3102 43.8272 14.6293C43.1985 13.9385 42.8848 13.0907 42.8848 12.0758C42.8848 11.061 43.1985 10.2132 43.8272 9.52806C44.4546 8.84151 45.2194 8.49609 46.1151 8.49609C46.5611 8.49609 46.9862 8.59743 47.392 8.78584C47.7964 8.97568 48.1257 9.2326 48.3642 9.54946L47.8224 10.1518C47.4062 9.61084 46.8398 9.34393 46.1151 9.34393C45.4618 9.34393 44.8953 9.59514 44.4144 10.1018C43.9387 10.61 43.7001 11.268 43.7001 12.0758C43.7001 12.8837 43.9387 13.5474 44.4144 14.0556C44.8953 14.5565 45.4618 14.8135 46.1151 14.8135C46.8087 14.8135 47.392 14.5565 47.8522 14.0498C48.1555 13.7144 48.3279 13.252 48.3733 12.661H46.1151V11.8361H49.1277C49.164 12.0145 49.1744 12.1872 49.1744 12.3542Z" fill="white" stroke="white" stroke-width="0.0961854" stroke-miterlimit="10"/>
<path d="M53.9532 9.49695H51.1234V11.6665H53.6745V12.4915H51.1234V14.661H53.9532V15.5017H50.3223V8.65625H53.9532V9.49695Z" fill="white" stroke="white" stroke-width="0.0961854" stroke-miterlimit="10"/>
<path d="M57.3259 15.5017H56.5248V9.49695H54.7891V8.65625H59.0629V9.49695H57.3259V15.5017Z" fill="white" stroke="white" stroke-width="0.0961854" stroke-miterlimit="10"/>
<path d="M62.1562 15.5017V8.65625H62.9561V15.5017H62.1562Z" fill="white" stroke="white" stroke-width="0.0961854" stroke-miterlimit="10"/>
<path d="M66.5017 15.5017H65.7071V9.49695H63.9648V8.65625H68.2439V9.49695H66.5017V15.5017Z" fill="white" stroke="white" stroke-width="0.0961854" stroke-miterlimit="10"/>
<path d="M76.3349 14.6179C75.7218 15.3102 74.9621 15.6556 74.056 15.6556C73.1447 15.6556 72.3851 15.3102 71.772 14.6179C71.1601 13.9271 70.8555 13.0793 70.8555 12.0758C70.8555 11.0724 71.1601 10.2246 71.772 9.53376C72.3851 8.84151 73.1447 8.49609 74.056 8.49609C74.9569 8.49609 75.7166 8.84151 76.3297 9.53947C76.9468 10.236 77.2514 11.0781 77.2514 12.0758C77.2514 13.0793 76.9468 13.9271 76.3349 14.6179ZM72.3644 14.0441C72.8258 14.5565 73.3871 14.8135 74.056 14.8135C74.7197 14.8135 75.2862 14.5565 75.7425 14.0441C76.2027 13.5317 76.436 12.8737 76.436 12.0758C76.436 11.278 76.2027 10.62 75.7425 10.1076C75.2862 9.59514 74.7197 9.33822 74.056 9.33822C73.3871 9.33822 72.8258 9.59514 72.3644 10.1076C71.9042 10.62 71.6708 11.278 71.6708 12.0758C71.6708 12.8737 71.9042 13.5317 72.3644 14.0441Z" fill="white" stroke="white" stroke-width="0.0961854" stroke-miterlimit="10"/>
<path d="M78.376 15.5017V8.65625H79.3482L82.3712 13.9802H82.4062L82.3712 12.6642V8.65625H83.171V15.5017H82.3362L79.1706 9.91516H79.1356L79.1706 11.2369V15.5017H78.376Z" fill="white" stroke="white" stroke-width="0.0961854" stroke-miterlimit="10"/>
<path d="M70.6591 25.4968C68.2233 25.4968 66.2335 27.5379 66.2335 30.354C66.2335 33.1473 68.2233 35.2098 70.6591 35.2098C73.1 35.2098 75.0898 33.1473 75.0898 30.354C75.0898 27.5379 73.1 25.4968 70.6591 25.4968ZM70.6591 33.2972C69.3226 33.2972 68.1728 32.0825 68.1728 30.354C68.1728 28.6027 69.3226 27.4094 70.6591 27.4094C71.9955 27.4094 73.1505 28.6027 73.1505 30.354C73.1505 32.0825 71.9955 33.2972 70.6591 33.2972ZM61.0029 25.4968C58.562 25.4968 56.5774 27.5379 56.5774 30.354C56.5774 33.1473 58.562 35.2098 61.0029 35.2098C63.4426 35.2098 65.4285 33.1473 65.4285 30.354C65.4285 27.5379 63.4426 25.4968 61.0029 25.4968ZM61.0029 33.2972C59.6652 33.2972 58.5115 32.0825 58.5115 30.354C58.5115 28.6027 59.6652 27.4094 61.0029 27.4094C62.3394 27.4094 63.4892 28.6027 63.4892 30.354C63.4892 32.0825 62.3394 33.2972 61.0029 33.2972ZM49.5126 26.9855V29.0494H53.9887C53.8578 30.2027 53.5078 31.0506 52.9711 31.6415C52.3178 32.3552 51.3002 33.1473 49.5126 33.1473C46.758 33.1473 44.6009 30.6994 44.6009 27.6664C44.6009 24.6333 46.758 22.1854 49.5126 22.1854C51.002 22.1854 52.0857 22.8263 52.8855 23.657L54.2065 22.2025C53.0878 21.0264 51.5996 20.1229 49.5126 20.1229C45.7352 20.1229 42.5605 23.5071 42.5605 27.6664C42.5605 31.8256 45.7352 35.2098 49.5126 35.2098C51.5542 35.2098 53.0878 34.4733 54.2933 33.0917C55.5287 31.7314 55.9137 29.8188 55.9137 28.2744C55.9137 27.7948 55.8774 27.3538 55.8126 26.9855H49.5126ZM96.4981 28.5856C96.1339 27.4994 95.01 25.4968 92.7207 25.4968C90.4522 25.4968 88.5635 27.4651 88.5635 30.354C88.5635 33.0745 90.4328 35.2098 92.9385 35.2098C94.9646 35.2098 96.1339 33.8496 96.6148 33.0574L95.1111 31.9541C94.6094 32.7619 93.9263 33.2972 92.9385 33.2972C91.9572 33.2972 91.2533 32.8019 90.8022 31.8256L96.7016 29.1379L96.4981 28.5856ZM90.4833 30.2027C90.4328 28.3301 91.8042 27.3709 92.7868 27.3709C93.5568 27.3709 94.2102 27.7948 94.4279 28.4014L90.4833 30.2027ZM85.6883 34.9144H87.6276V20.641H85.6883V34.9144ZM82.5124 26.5787H82.4476C82.012 26.0107 81.1811 25.4968 80.1285 25.4968C77.9196 25.4968 75.9 27.6321 75.9 30.3697C75.9 33.0917 77.9196 35.2098 80.1285 35.2098C81.1811 35.2098 82.012 34.6917 82.4476 34.1065H82.5124V34.803C82.5124 36.66 81.6115 37.6577 80.1583 37.6577C78.9735 37.6577 78.2385 36.7156 77.9352 35.9235L76.2487 36.6985C76.7348 37.986 78.022 39.5703 80.1583 39.5703C82.432 39.5703 84.3505 38.0973 84.3505 34.5133V25.7923H82.5124V26.5787ZM80.2944 33.2972C78.9579 33.2972 77.8392 32.0654 77.8392 30.3697C77.8392 28.6584 78.9579 27.4094 80.2944 27.4094C81.6115 27.4094 82.6498 28.6584 82.6498 30.3697C82.6498 32.0654 81.6115 33.2972 80.2944 33.2972ZM105.577 20.641H100.939V34.9144H102.873V29.5062H105.577C107.725 29.5062 109.832 27.7948 109.832 25.0729C109.832 22.3524 107.72 20.641 105.577 20.641ZM105.628 27.5208H102.873V22.6265H105.628C107.072 22.6265 107.896 23.9467 107.896 25.0729C107.896 26.1777 107.072 27.5208 105.628 27.5208ZM117.584 25.4697C116.186 25.4697 114.733 26.1491 114.136 27.6549L115.852 28.4471C116.221 27.6549 116.901 27.398 117.619 27.398C118.622 27.398 119.64 28.0617 119.655 29.2336V29.3834C119.305 29.1608 118.556 28.8311 117.634 28.8311C115.786 28.8311 113.902 29.9515 113.902 32.0426C113.902 33.9552 115.416 35.187 117.118 35.187C118.42 35.187 119.138 34.5404 119.589 33.7882H119.655V34.8915H121.523V29.4163C121.523 26.8856 119.807 25.4697 117.584 25.4697ZM117.35 33.2915C116.718 33.2915 115.836 32.9461 115.836 32.0825C115.836 30.9778 116.936 30.5539 117.887 30.5539C118.739 30.5539 119.138 30.7608 119.655 31.0334C119.503 32.3551 118.47 33.2915 117.35 33.2915ZM128.329 25.7823L126.106 31.9698H126.039L123.741 25.7823H121.655L125.109 34.4291L123.138 39.2406H125.159L130.481 25.7823H128.329ZM110.895 34.9144H112.834V20.641H110.895V34.9144Z" fill="white"/>
<path d="M10.8217 9.26764C10.5171 9.61877 10.3408 10.1654 10.3408 10.8734V36.1258C10.3408 36.8337 10.5171 37.3804 10.8217 37.7315L10.8969 37.8086L23.7484 23.6637V23.3297L10.8969 9.18486L10.8217 9.26764Z" fill="url(#paint0_linear_18120_12450)"/>
<path d="M28.0271 28.3828L23.748 23.6655V23.3315L28.0323 18.6141L28.1282 18.6755L33.2019 21.8542C34.6499 22.7563 34.6499 24.2407 33.2019 25.1485L28.1282 28.3214L28.0271 28.3828Z" fill="url(#paint1_linear_18120_12450)"/>
<path d="M28.1291 28.3231L23.7489 23.5002L10.8223 37.735C11.3032 38.2916 12.0875 38.3587 12.9793 37.802L28.1291 28.3231Z" fill="url(#paint2_linear_18120_12450)"/>
<path d="M28.1291 18.6731L12.9793 9.19422C12.0875 8.64327 11.3032 8.71036 10.8223 9.26701L23.7489 23.4961L28.1291 18.6731Z" fill="url(#paint3_linear_18120_12450)"/>
<defs>
<linearGradient id="paint0_linear_18120_12450" x1="22.6074" y1="36.3887" x2="3.53261" y2="19.0652" gradientUnits="userSpaceOnUse">
<stop stop-color="#00A0FF"/>
<stop offset="0.0066" stop-color="#00A1FF"/>
<stop offset="0.2601" stop-color="#00BEFF"/>
<stop offset="0.5122" stop-color="#00D2FF"/>
<stop offset="0.7604" stop-color="#00DFFF"/>
<stop offset="1" stop-color="#00E3FF"/>
</linearGradient>
<linearGradient id="paint1_linear_18120_12450" x1="35.0874" y1="23.4969" x2="9.99435" y2="23.4969" gradientUnits="userSpaceOnUse">
<stop stop-color="#FFE000"/>
<stop offset="0.4087" stop-color="#FFBD00"/>
<stop offset="0.7754" stop-color="#FFA500"/>
<stop offset="1" stop-color="#FF9C00"/>
</linearGradient>
<linearGradient id="paint2_linear_18120_12450" x1="25.7473" y1="20.8783" x2="-0.119606" y2="-2.61387" gradientUnits="userSpaceOnUse">
<stop stop-color="#FF3A44"/>
<stop offset="1" stop-color="#C31162"/>
</linearGradient>
<linearGradient id="paint3_linear_18120_12450" x1="7.56836" y1="46.1322" x2="19.1191" y2="35.642" gradientUnits="userSpaceOnUse">
<stop stop-color="#32A071"/>
<stop offset="0.0685" stop-color="#2DA771"/>
<stop offset="0.4762" stop-color="#15CF74"/>
<stop offset="0.8009" stop-color="#06E775"/>
<stop offset="1" stop-color="#00F076"/>
</linearGradient>
</defs>
</svg>
