<svg width="117" height="38" viewBox="0 0 117 38" fill="none" xmlns="http://www.w3.org/2000/svg">
<path d="M112.242 38H4.394C2.02242 38 0.0800781 35.8613 0.0800781 33.25V4.75C0.0800781 2.13869 2.02242 -3.53808e-07 4.394 -3.53808e-07H112.242C114.614 -3.53808e-07 116.556 2.13869 116.556 4.75V33.25C116.556 35.8613 114.614 38 112.242 38Z" fill="black"/>
<path d="M112.242 0.761186C114.24 0.761186 115.865 2.55075 115.865 4.75V33.25C115.865 35.4492 114.24 37.2388 112.242 37.2388H4.394C2.39666 37.2388 0.771385 35.4492 0.771385 33.25V4.75C0.771385 2.55075 2.39666 0.761186 4.394 0.761186H112.242ZM112.242 -3.53808e-07H4.394C2.02242 -3.53808e-07 0.0800781 2.13869 0.0800781 4.75V33.25C0.0800781 35.8613 2.02242 38 4.394 38H112.242C114.614 38 116.556 35.8613 116.556 33.25V4.75C116.556 2.13869 114.614 -3.53808e-07 112.242 -3.53808e-07Z" fill="#A6A6A6"/>
<path d="M40.9916 9.72739C40.9916 10.5206 40.7759 11.156 40.351 11.6298C39.8624 12.1915 39.2261 12.4741 38.4464 12.4741C37.7011 12.4741 37.0648 12.1867 36.5428 11.6203C36.0198 11.0455 35.7588 10.3401 35.7588 9.49583C35.7588 8.65152 36.0198 7.94614 36.5428 7.37614C37.0648 6.80495 37.7011 6.51758 38.4464 6.51758C38.8174 6.51758 39.1711 6.60189 39.5087 6.75864C39.8452 6.91658 40.1191 7.13033 40.3175 7.39395L39.8667 7.89508C39.5205 7.44502 39.0492 7.22295 38.4464 7.22295C37.9028 7.22295 37.4315 7.43195 37.0314 7.85352C36.6356 8.27627 36.4372 8.8237 36.4372 9.49583C36.4372 10.168 36.6356 10.7201 37.0314 11.1429C37.4315 11.5597 37.9028 11.7735 38.4464 11.7735C39.0234 11.7735 39.5087 11.5597 39.8915 11.1381C40.1439 10.8591 40.2873 10.4743 40.3251 9.9827H38.4464V9.29633H40.9528C40.983 9.44477 40.9916 9.58845 40.9916 9.72739Z" fill="white" stroke="white" stroke-width="0.0961854" stroke-miterlimit="10"/>
<path d="M44.9681 7.35178H42.6138V9.15678H44.7362V9.84315H42.6138V11.6482H44.9681V12.3476H41.9473V6.65234H44.9681V7.35178Z" fill="white" stroke="white" stroke-width="0.0961854" stroke-miterlimit="10"/>
<path d="M47.7737 12.3476H47.1072V7.35178H45.6631V6.65234H49.2188V7.35178H47.7737V12.3476Z" fill="white" stroke="white" stroke-width="0.0961854" stroke-miterlimit="10"/>
<path d="M51.793 12.3476V6.65234H52.4584V12.3476H51.793Z" fill="white" stroke="white" stroke-width="0.0961854" stroke-miterlimit="10"/>
<path d="M55.4075 12.3476H54.7463V7.35178H53.2969V6.65234H56.8569V7.35178H55.4075V12.3476Z" fill="white" stroke="white" stroke-width="0.0961854" stroke-miterlimit="10"/>
<path d="M63.588 11.6108C63.0779 12.1867 62.4459 12.4741 61.6921 12.4741C60.9339 12.4741 60.3019 12.1867 59.7918 11.6108C59.2827 11.036 59.0293 10.3306 59.0293 9.49583C59.0293 8.66102 59.2827 7.95564 59.7918 7.38089C60.3019 6.80495 60.9339 6.51758 61.6921 6.51758C62.4416 6.51758 63.0736 6.80495 63.5837 7.38564C64.0971 7.96514 64.3505 8.66577 64.3505 9.49583C64.3505 10.3306 64.0971 11.036 63.588 11.6108ZM60.2847 11.1334C60.6686 11.5597 61.1356 11.7735 61.6921 11.7735C62.2442 11.7735 62.7155 11.5597 63.0952 11.1334C63.478 10.7071 63.6722 10.1596 63.6722 9.49583C63.6722 8.83202 63.478 8.28458 63.0952 7.85827C62.7155 7.43195 62.2442 7.2182 61.6921 7.2182C61.1356 7.2182 60.6686 7.43195 60.2847 7.85827C59.9018 8.28458 59.7077 8.83202 59.7077 9.49583C59.7077 10.1596 59.9018 10.7071 60.2847 11.1334Z" fill="white" stroke="white" stroke-width="0.0961854" stroke-miterlimit="10"/>
<path d="M65.2861 12.3476V6.65234H66.095L68.61 11.0817H68.6391L68.61 9.98684V6.65234H69.2754V12.3476H68.5809L65.9472 7.69972H65.9181L65.9472 8.79934V12.3476H65.2861Z" fill="white" stroke="white" stroke-width="0.0961854" stroke-miterlimit="10"/>
<path d="M58.8664 20.6623C56.8399 20.6623 55.1845 22.3605 55.1845 24.7034C55.1845 27.0273 56.8399 28.7433 58.8664 28.7433C60.8972 28.7433 62.5527 27.0273 62.5527 24.7034C62.5527 22.3605 60.8972 20.6623 58.8664 20.6623ZM58.8664 27.152C57.7545 27.152 56.7979 26.1415 56.7979 24.7034C56.7979 23.2463 57.7545 22.2536 58.8664 22.2536C59.9783 22.2536 60.9393 23.2463 60.9393 24.7034C60.9393 26.1415 59.9783 27.152 58.8664 27.152ZM50.8328 20.6623C48.802 20.6623 47.1509 22.3605 47.1509 24.7034C47.1509 27.0273 48.802 28.7433 50.8328 28.7433C52.8625 28.7433 54.5147 27.0273 54.5147 24.7034C54.5147 22.3605 52.8625 20.6623 50.8328 20.6623ZM50.8328 27.152C49.7198 27.152 48.76 26.1415 48.76 24.7034C48.76 23.2463 49.7198 22.2536 50.8328 22.2536C51.9447 22.2536 52.9013 23.2463 52.9013 24.7034C52.9013 26.1415 51.9447 27.152 50.8328 27.152ZM41.2732 21.9009V23.618H44.9971C44.8882 24.5775 44.597 25.2829 44.1505 25.7745C43.607 26.3683 42.7604 27.0273 41.2732 27.0273C38.9814 27.0273 37.1868 24.9908 37.1868 22.4673C37.1868 19.9439 38.9814 17.9074 41.2732 17.9074C42.5123 17.9074 43.4139 18.4405 44.0794 19.1317L45.1783 17.9216C44.2476 16.9431 43.0095 16.1914 41.2732 16.1914C38.1305 16.1914 35.4893 19.007 35.4893 22.4673C35.4893 25.9277 38.1305 28.7433 41.2732 28.7433C42.9718 28.7433 44.2476 28.1305 45.2506 26.981C46.2784 25.8493 46.5987 24.2581 46.5987 22.9732C46.5987 22.5742 46.5685 22.2073 46.5146 21.9009H41.2732ZM80.3638 23.2321C80.0607 22.3284 79.1257 20.6623 77.2211 20.6623C75.3337 20.6623 73.7624 22.2999 73.7624 24.7034C73.7624 26.9668 75.3176 28.7433 77.4023 28.7433C79.0879 28.7433 80.0607 27.6116 80.4608 26.9525L79.2098 26.0346C78.7924 26.7067 78.2241 27.152 77.4023 27.152C76.5859 27.152 76.0002 26.74 75.6249 25.9277L80.5331 23.6917L80.3638 23.2321ZM75.3596 24.5775C75.3176 23.0195 76.4586 22.2215 77.2761 22.2215C77.9167 22.2215 78.4603 22.5742 78.6415 23.0789L75.3596 24.5775ZM71.3703 28.4975H72.9837V16.6225H71.3703V28.4975ZM68.728 21.5625H68.6741C68.3118 21.0898 67.6205 20.6623 66.7447 20.6623C64.907 20.6623 63.2267 22.4388 63.2267 24.7165C63.2267 26.981 64.907 28.7433 66.7447 28.7433C67.6205 28.7433 68.3118 28.3122 68.6741 27.8253H68.728V28.4048C68.728 29.9498 67.9785 30.7798 66.7695 30.7798C65.7838 30.7798 65.1723 29.9961 64.9199 29.337L63.5168 29.9818C63.9213 31.053 64.9922 32.3711 66.7695 32.3711C68.6612 32.3711 70.2573 31.1456 70.2573 28.1638V20.9082H68.728V21.5625ZM66.8828 27.152C65.7709 27.152 64.8401 26.1272 64.8401 24.7165C64.8401 23.2927 65.7709 22.2536 66.8828 22.2536C67.9785 22.2536 68.8424 23.2927 68.8424 24.7165C68.8424 26.1272 67.9785 27.152 66.8828 27.152ZM87.9175 16.6225H84.0587V28.4975H85.6678V23.998H87.9175C89.7045 23.998 91.457 22.5742 91.457 20.3097C91.457 18.0463 89.7002 16.6225 87.9175 16.6225ZM87.9595 22.3462H85.6678V18.2743H87.9595C89.161 18.2743 89.8469 19.3727 89.8469 20.3097C89.8469 21.2288 89.161 22.3462 87.9595 22.3462ZM97.9064 20.6398C96.7438 20.6398 95.5348 21.205 95.0376 22.4578L96.4655 23.1169C96.7729 22.4578 97.338 22.2441 97.9355 22.2441C98.7702 22.2441 99.6168 22.7963 99.6298 23.7712V23.8959C99.3386 23.7107 98.7152 23.4363 97.9484 23.4363C96.4105 23.4363 94.8435 24.3685 94.8435 26.1082C94.8435 27.6995 96.1031 28.7243 97.5192 28.7243C98.602 28.7243 99.1995 28.1863 99.5748 27.5605H99.6298V28.4785H101.184V23.9232C101.184 21.8178 99.756 20.6398 97.9064 20.6398ZM97.7122 27.1473C97.1859 27.1473 96.4526 26.8599 96.4526 26.1415C96.4526 25.2223 97.3671 24.8697 98.1587 24.8697C98.8673 24.8697 99.1995 25.0418 99.6298 25.2687C99.5036 26.3683 98.644 27.1473 97.7122 27.1473ZM106.846 20.8998L104.996 26.0477H104.941L103.029 20.8998H101.294L104.167 28.0937L102.528 32.0968H104.209L108.636 20.8998H106.846ZM92.3414 28.4975H93.9548V16.6225H92.3414V28.4975Z" fill="white"/>
<path d="M9.08273 7.16099C8.82929 7.45312 8.68262 7.90793 8.68262 8.49693V29.5062C8.68262 30.0952 8.82929 30.55 9.08273 30.8421L9.14529 30.9062L19.8373 19.1381V18.8602L9.14529 7.09212L9.08273 7.16099Z" fill="url(#paint0_linear_18515_45998)"/>
<path d="M23.398 23.0645L19.8379 19.1398V18.8619L23.4023 14.9372L23.4821 14.9883L27.7033 17.6328C28.9079 18.3833 28.9079 19.6183 27.7033 20.3736L23.4821 23.0134L23.398 23.0645Z" fill="url(#paint1_linear_18515_45998)"/>
<path d="M23.4828 23.0138L19.8386 19.0013L9.08398 30.8442C9.4841 31.3073 10.1366 31.3631 10.8786 30.9L23.4828 23.0138Z" fill="url(#paint2_linear_18515_45998)"/>
<path d="M23.4828 14.9855L10.8786 7.0993C10.1366 6.64092 9.4841 6.69673 9.08398 7.15986L19.8386 18.998L23.4828 14.9855Z" fill="url(#paint3_linear_18515_45998)"/>
<defs>
<linearGradient id="paint0_linear_18515_45998" x1="18.888" y1="29.725" x2="3.01838" y2="15.3122" gradientUnits="userSpaceOnUse">
<stop stop-color="#00A0FF"/>
<stop offset="0.0066" stop-color="#00A1FF"/>
<stop offset="0.2601" stop-color="#00BEFF"/>
<stop offset="0.5122" stop-color="#00D2FF"/>
<stop offset="0.7604" stop-color="#00DFFF"/>
<stop offset="1" stop-color="#00E3FF"/>
</linearGradient>
<linearGradient id="paint1_linear_18515_45998" x1="29.2719" y1="18.9995" x2="8.3952" y2="18.9995" gradientUnits="userSpaceOnUse">
<stop stop-color="#FFE000"/>
<stop offset="0.4087" stop-color="#FFBD00"/>
<stop offset="0.7754" stop-color="#FFA500"/>
<stop offset="1" stop-color="#FF9C00"/>
</linearGradient>
<linearGradient id="paint2_linear_18515_45998" x1="21.5012" y1="16.82" x2="-0.0193399" y2="-2.72487" gradientUnits="userSpaceOnUse">
<stop stop-color="#FF3A44"/>
<stop offset="1" stop-color="#C31162"/>
</linearGradient>
<linearGradient id="paint3_linear_18515_45998" x1="6.37682" y1="37.8307" x2="15.9867" y2="29.1031" gradientUnits="userSpaceOnUse">
<stop stop-color="#32A071"/>
<stop offset="0.0685" stop-color="#2DA771"/>
<stop offset="0.4762" stop-color="#15CF74"/>
<stop offset="0.8009" stop-color="#06E775"/>
<stop offset="1" stop-color="#00F076"/>
</linearGradient>
</defs>
</svg>
