<svg width="116" height="37" viewBox="0 0 116 37" fill="none" xmlns="http://www.w3.org/2000/svg">
<path d="M111.704 37H4.2963C1.93441 37 0 34.9176 0 32.375V4.625C0 2.0824 1.93441 -2.2919e-06 4.2963 -2.2919e-06H111.704C114.066 -2.2919e-06 116 2.0824 116 4.625V32.375C116 34.9176 114.066 37 111.704 37Z" fill="white"/>
<path d="M111.704 0.741153C113.693 0.741153 115.312 2.48362 115.312 4.625V32.375C115.312 34.5164 113.693 36.2588 111.704 36.2588H4.2963C2.30711 36.2588 0.688481 34.5164 0.688481 32.375V4.625C0.688481 2.48362 2.30711 0.741153 4.2963 0.741153H111.704ZM111.704 -2.2919e-06H4.2963C1.93441 -2.2919e-06 0 2.0824 0 4.625V32.375C0 34.9176 1.93441 37 4.2963 37H111.704C114.066 37 116 34.9176 116 32.375V4.625C116 2.0824 114.066 -2.2919e-06 111.704 -2.2919e-06Z" fill="#A6A6A6"/>
<path d="M8.96489 6.97325C8.71248 7.25769 8.56641 7.70053 8.56641 8.27403V28.7304C8.56641 29.3039 8.71248 29.7468 8.96489 30.0312L9.02718 30.0936L19.6755 18.6352V18.3646L9.02718 6.90619L8.96489 6.97325Z" fill="url(#paint0_linear_23536_130734)"/>
<path d="M23.2213 22.457L19.6758 18.6356V18.3651L23.2256 14.5437L23.3051 14.5934L27.509 17.1683C28.7087 17.8991 28.7087 19.1016 27.509 19.837L23.3051 22.4073L23.2213 22.457Z" fill="url(#paint1_linear_23536_130734)"/>
<path d="M23.3087 22.4069L19.6794 18.4999L8.96875 30.0312C9.36723 30.4822 10.017 30.5365 10.756 30.0856L23.3087 22.4069Z" fill="url(#paint2_linear_23536_130734)"/>
<path d="M23.3087 14.5928L10.756 6.91413C10.017 6.46782 9.36723 6.52216 8.96875 6.9731L19.6794 18.4998L23.3087 14.5928Z" fill="url(#paint3_linear_23536_130734)"/>
<path d="M40.7427 9.47697C40.7427 10.2493 40.5278 10.8679 40.1047 11.3293C39.6181 11.8762 38.9844 12.1514 38.2078 12.1514C37.4657 12.1514 36.832 11.8716 36.3121 11.32C35.7912 10.7604 35.5312 10.0736 35.5312 9.2515C35.5312 8.42941 35.7912 7.74259 36.3121 7.18759C36.832 6.63144 37.4657 6.35162 38.2078 6.35162C38.5773 6.35162 38.9296 6.43372 39.2658 6.58634C39.6009 6.74012 39.8737 6.94825 40.0714 7.20494L39.6224 7.69287C39.2776 7.25466 38.8083 7.03844 38.2078 7.03844C37.6665 7.03844 37.1971 7.24194 36.7987 7.65241C36.4045 8.06403 36.2068 8.59706 36.2068 9.2515C36.2068 9.90594 36.4045 10.4436 36.7987 10.8552C37.1971 11.2611 37.6665 11.4692 38.2078 11.4692C38.7825 11.4692 39.2658 11.2611 39.6471 10.8506C39.8984 10.5789 40.0413 10.2042 40.0789 9.72556H38.2078V9.05725H40.704C40.7341 9.20178 40.7427 9.34169 40.7427 9.47697Z" fill="black" stroke="black" stroke-width="0.16" stroke-miterlimit="10"/>
<path d="M44.7038 7.15894H42.3591V8.91644H44.4729V9.58475H42.3591V11.3422H44.7038V12.0233H41.6953V6.47791H44.7038V7.15894Z" fill="black" stroke="black" stroke-width="0.16" stroke-miterlimit="10"/>
<path d="M47.5004 12.0241H46.8366V7.15979H45.3984V6.47876H48.9397V7.15979H47.5004V12.0241Z" fill="black" stroke="black" stroke-width="0.16" stroke-miterlimit="10"/>
<path d="M51.5039 12.0233V6.47791H52.1666V12.0233H51.5039Z" fill="black" stroke="black" stroke-width="0.16" stroke-miterlimit="10"/>
<path d="M55.102 12.0241H54.4436V7.15979H53V6.47876H56.5455V7.15979H55.102V12.0241Z" fill="black" stroke="black" stroke-width="0.16" stroke-miterlimit="10"/>
<path d="M63.2511 11.31C62.743 11.8708 62.1136 12.1506 61.3628 12.1506C60.6078 12.1506 59.9783 11.8708 59.4703 11.31C58.9633 10.7504 58.7109 10.0635 58.7109 9.25071C58.7109 8.43786 58.9633 7.75105 59.4703 7.19142C59.9783 6.63064 60.6078 6.35083 61.3628 6.35083C62.1093 6.35083 62.7387 6.63064 63.2468 7.19605C63.758 7.7603 64.0104 8.44249 64.0104 9.25071C64.0104 10.0635 63.758 10.7504 63.2511 11.31ZM59.9612 10.8452C60.3435 11.2603 60.8086 11.4684 61.3628 11.4684C61.9128 11.4684 62.3821 11.2603 62.7602 10.8452C63.1415 10.4301 63.3348 9.89705 63.3348 9.25071C63.3348 8.60436 63.1415 8.07133 62.7602 7.65624C62.3821 7.24114 61.9128 7.03302 61.3628 7.03302C60.8086 7.03302 60.3435 7.24114 59.9612 7.65624C59.5799 8.07133 59.3865 8.60436 59.3865 9.25071C59.3865 9.89705 59.5799 10.4301 59.9612 10.8452Z" fill="black" stroke="black" stroke-width="0.16" stroke-miterlimit="10"/>
<path d="M64.9414 12.0233V6.47791H65.747L68.2517 10.7907H68.2807L68.2517 9.72466V6.47791H68.9144V12.0233H68.2227L65.5998 7.49772H65.5708L65.5998 8.56841V12.0233H64.9414Z" fill="black" stroke="black" stroke-width="0.16" stroke-miterlimit="10"/>
<path d="M58.5472 20.121C56.5291 20.121 54.8804 21.7745 54.8804 24.0558C54.8804 26.3185 56.5291 27.9893 58.5472 27.9893C60.5697 27.9893 62.2184 26.3185 62.2184 24.0558C62.2184 21.7745 60.5697 20.121 58.5472 20.121ZM58.5472 26.44C57.4399 26.44 56.4872 25.456 56.4872 24.0558C56.4872 22.637 57.4399 21.6704 58.5472 21.6704C59.6546 21.6704 60.6116 22.637 60.6116 24.0558C60.6116 25.456 59.6546 26.44 58.5472 26.44ZM50.5465 20.121C48.524 20.121 46.8796 21.7745 46.8796 24.0558C46.8796 26.3185 48.524 27.9893 50.5465 27.9893C52.5679 27.9893 54.2134 26.3185 54.2134 24.0558C54.2134 21.7745 52.5679 20.121 50.5465 20.121ZM50.5465 26.44C49.438 26.44 48.4821 25.456 48.4821 24.0558C48.4821 22.637 49.438 21.6704 50.5465 21.6704C51.6538 21.6704 52.6065 22.637 52.6065 24.0558C52.6065 25.456 51.6538 26.44 50.5465 26.44ZM41.0259 21.327V22.999H44.7347C44.6262 23.9332 44.3362 24.62 43.8915 25.0987C43.3502 25.6768 42.507 26.3185 41.0259 26.3185C38.7435 26.3185 36.9562 24.3356 36.9562 21.8785C36.9562 19.4215 38.7435 17.4385 41.0259 17.4385C42.26 17.4385 43.1579 17.9577 43.8206 18.6306L44.9151 17.4524C43.9882 16.4997 42.7551 15.7678 41.0259 15.7678C37.896 15.7678 35.2656 18.5092 35.2656 21.8785C35.2656 25.2479 37.896 27.9893 41.0259 27.9893C42.7175 27.9893 43.9882 27.3927 44.9871 26.2734C46.0107 25.1715 46.3297 23.6222 46.3297 22.3711C46.3297 21.9826 46.2996 21.6253 46.2459 21.327H41.0259ZM79.9568 22.6232C79.6549 21.7433 78.7237 20.121 76.8269 20.121C74.9473 20.121 73.3823 21.7155 73.3823 24.0558C73.3823 26.2596 74.9312 27.9893 77.0073 27.9893C78.6861 27.9893 79.6549 26.8874 80.0534 26.2457L78.8075 25.3519C78.3918 26.0064 77.8258 26.44 77.0073 26.44C76.1943 26.44 75.611 26.0387 75.2373 25.2479L80.1254 23.0706L79.9568 22.6232ZM74.9731 23.9332C74.9312 22.4162 76.0675 21.6392 76.8817 21.6392C77.5197 21.6392 78.061 21.9826 78.2415 22.474L74.9731 23.9332ZM71.0001 27.75H72.6069V16.1875H71.0001V27.75ZM68.3686 20.9975H68.3149C67.954 20.5373 67.2655 20.121 66.3934 20.121C64.5631 20.121 62.8897 21.8508 62.8897 24.0685C62.8897 26.2734 64.5631 27.9893 66.3934 27.9893C67.2655 27.9893 67.954 27.5696 68.3149 27.0955H68.3686V27.6598C68.3686 29.1641 67.6221 29.9723 66.4181 29.9723C65.4363 29.9723 64.8274 29.2092 64.576 28.5674L63.1786 29.1953C63.5814 30.2382 64.648 31.5217 66.4181 31.5217C68.302 31.5217 69.8916 30.3284 69.8916 27.4251V20.3604H68.3686V20.9975ZM66.5308 26.44C65.4235 26.44 64.4965 25.4421 64.4965 24.0685C64.4965 22.6821 65.4235 21.6704 66.5308 21.6704C67.6221 21.6704 68.4824 22.6821 68.4824 24.0685C68.4824 25.4421 67.6221 26.44 66.5308 26.44ZM87.4796 16.1875H83.6365V27.75H85.2391V23.369H87.4796C89.2593 23.369 91.0047 21.9826 91.0047 19.7776C91.0047 17.5738 89.255 16.1875 87.4796 16.1875ZM87.5215 21.7606H85.2391V17.7958H87.5215C88.718 17.7958 89.4011 18.8654 89.4011 19.7776C89.4011 20.6726 88.718 21.7606 87.5215 21.7606ZM97.4276 20.0991C96.2698 20.0991 95.0657 20.6495 94.5706 21.8693L95.9927 22.511C96.2988 21.8693 96.8616 21.6612 97.4566 21.6612C98.288 21.6612 99.1311 22.1988 99.144 23.1481V23.2695C98.854 23.0891 98.2332 22.822 97.4695 22.822C95.9379 22.822 94.3773 23.7297 94.3773 25.4236C94.3773 26.973 95.6318 27.9708 97.042 27.9708C98.1204 27.9708 98.7154 27.447 99.0892 26.8377H99.144V27.7315H100.692V23.2961C100.692 21.2461 99.2697 20.0991 97.4276 20.0991ZM97.2343 26.4353C96.7102 26.4353 95.9798 26.1555 95.9798 25.456C95.9798 24.561 96.8906 24.2176 97.679 24.2176C98.3846 24.2176 98.7155 24.3853 99.144 24.6061C99.0183 25.6768 98.1623 26.4353 97.2343 26.4353ZM106.331 20.3523L104.489 25.3646H104.434L102.529 20.3523H100.801L103.663 27.3569L102.03 31.2546H103.705L108.114 20.3523H106.331ZM91.8854 27.75H93.4922V16.1875H91.8854V27.75Z" fill="black"/>
<defs>
<linearGradient id="paint0_linear_23536_130734" x1="18.7301" y1="28.9434" x2="3.24848" y2="14.5621" gradientUnits="userSpaceOnUse">
<stop stop-color="#00A0FF"/>
<stop offset="0.0066" stop-color="#00A1FF"/>
<stop offset="0.2601" stop-color="#00BEFF"/>
<stop offset="0.5122" stop-color="#00D2FF"/>
<stop offset="0.7604" stop-color="#00DFFF"/>
<stop offset="1" stop-color="#00E3FF"/>
</linearGradient>
<linearGradient id="paint1_linear_23536_130734" x1="29.0713" y1="18.499" x2="8.27986" y2="18.499" gradientUnits="userSpaceOnUse">
<stop stop-color="#FFE000"/>
<stop offset="0.4087" stop-color="#FFBD00"/>
<stop offset="0.7754" stop-color="#FFA500"/>
<stop offset="1" stop-color="#FF9C00"/>
</linearGradient>
<linearGradient id="paint2_linear_23536_130734" x1="21.3352" y1="16.3761" x2="0.340863" y2="-3.1262" gradientUnits="userSpaceOnUse">
<stop stop-color="#FF3A44"/>
<stop offset="1" stop-color="#C31162"/>
</linearGradient>
<linearGradient id="paint3_linear_23536_130734" x1="6.27265" y1="36.8368" x2="15.6476" y2="28.1282" gradientUnits="userSpaceOnUse">
<stop stop-color="#32A071"/>
<stop offset="0.0685" stop-color="#2DA771"/>
<stop offset="0.4762" stop-color="#15CF74"/>
<stop offset="0.8009" stop-color="#06E775"/>
<stop offset="1" stop-color="#00F076"/>
</linearGradient>
</defs>
</svg>
