<svg width="116" height="37" viewBox="0 0 116 37" fill="none" xmlns="http://www.w3.org/2000/svg">
<path d="M111.704 37H4.2963C1.93441 37 0 34.9176 0 32.375V4.625C0 2.08241 1.93441 2.43226e-06 4.2963 2.43226e-06H111.704C114.066 2.43226e-06 116 2.08241 116 4.625V32.375C116 34.9176 114.066 37 111.704 37Z" fill="black"/>
<path d="M111.704 0.741158C113.693 0.741158 115.312 2.48363 115.312 4.625V32.375C115.312 34.5164 113.693 36.2588 111.704 36.2588H4.2963C2.30711 36.2588 0.688481 34.5164 0.688481 32.375V4.625C0.688481 2.48363 2.30711 0.741158 4.2963 0.741158H111.704ZM111.704 2.43226e-06H4.2963C1.93441 2.43226e-06 0 2.08241 0 4.625V32.375C0 34.9176 1.93441 37 4.2963 37H111.704C114.066 37 116 34.9176 116 32.375V4.625C116 2.08241 114.066 2.43226e-06 111.704 2.43226e-06Z" fill="#A6A6A6"/>
<path d="M40.7466 9.47286C40.7466 10.2452 40.5317 10.8638 40.1086 11.3252C39.622 11.8721 38.9883 12.1473 38.2118 12.1473C37.4696 12.1473 36.8359 11.8675 36.316 11.3159C35.7951 10.7563 35.5352 10.0695 35.5352 9.24739C35.5352 8.4253 35.7951 7.73849 36.316 7.18349C36.8359 6.62733 37.4696 6.34752 38.2118 6.34752C38.5812 6.34752 38.9335 6.42961 39.2697 6.58224C39.6048 6.73602 39.8776 6.94414 40.0753 7.20083L39.6263 7.68877C39.2815 7.25055 38.8122 7.03433 38.2118 7.03433C37.6704 7.03433 37.201 7.23783 36.8026 7.6483C36.4084 8.05993 36.2107 8.59296 36.2107 9.24739C36.2107 9.90183 36.4084 10.4395 36.8026 10.8511C37.201 11.257 37.6704 11.4651 38.2118 11.4651C38.7864 11.4651 39.2697 11.257 39.651 10.8465C39.9023 10.5748 40.0452 10.2001 40.0828 9.72146H38.2118V9.05314H40.7079C40.738 9.19768 40.7466 9.33758 40.7466 9.47286Z" fill="white" stroke="white" stroke-width="0.0961854" stroke-miterlimit="10"/>
<path d="M44.7038 7.15681H42.3591V8.91431H44.4729V9.58262H42.3591V11.3401H44.7038V12.0212H41.6953V6.47578H44.7038V7.15681Z" fill="white" stroke="white" stroke-width="0.0961854" stroke-miterlimit="10"/>
<path d="M47.4965 12.0212H46.8327V7.15682H45.3945V6.47578H48.9358V7.15682H47.4965V12.0212Z" fill="white" stroke="white" stroke-width="0.0961854" stroke-miterlimit="10"/>
<path d="M51.5 12.0214V6.47603H52.1627V12.0214H51.5Z" fill="white" stroke="white" stroke-width="0.0961854" stroke-miterlimit="10"/>
<path d="M55.102 12.0212H54.4436V7.15682H53V6.47578H56.5455V7.15682H55.102V12.0212Z" fill="white" stroke="white" stroke-width="0.0961854" stroke-miterlimit="10"/>
<path d="M63.2471 11.3067C62.7391 11.8675 62.1097 12.1473 61.3589 12.1473C60.6038 12.1473 59.9744 11.8675 59.4664 11.3067C58.9594 10.7471 58.707 10.0602 58.707 9.24741C58.707 8.43456 58.9594 7.74775 59.4664 7.18812C59.9744 6.62734 60.6038 6.34753 61.3589 6.34753C62.1054 6.34753 62.7348 6.62734 63.2429 7.19275C63.7541 7.757 64.0065 8.43919 64.0065 9.24741C64.0065 10.0602 63.7541 10.7471 63.2471 11.3067ZM59.9573 10.8419C60.3396 11.257 60.8047 11.4651 61.3589 11.4651C61.9088 11.4651 62.3782 11.257 62.7563 10.8419C63.1376 10.4268 63.3309 9.89375 63.3309 9.24741C63.3309 8.60106 63.1376 8.06803 62.7563 7.65294C62.3782 7.23784 61.9088 7.02972 61.3589 7.02972C60.8047 7.02972 60.3396 7.23784 59.9573 7.65294C59.576 8.06803 59.3826 8.60106 59.3826 9.24741C59.3826 9.89375 59.576 10.4268 59.9573 10.8419Z" fill="white" stroke="white" stroke-width="0.0961854" stroke-miterlimit="10"/>
<path d="M64.9414 12.0212V6.47578H65.747L68.2517 10.7886H68.2807L68.2517 9.72253V6.47578H68.9144V12.0212H68.2227L65.5998 7.49559H65.5708L65.5998 8.56628V12.0212H64.9414Z" fill="white" stroke="white" stroke-width="0.0961854" stroke-miterlimit="10"/>
<path d="M58.5472 20.1187C56.5291 20.1187 54.8804 21.7721 54.8804 24.0534C54.8804 26.3162 56.5291 27.987 58.5472 27.987C60.5697 27.987 62.2184 26.3162 62.2184 24.0534C62.2184 21.7721 60.5697 20.1187 58.5472 20.1187ZM58.5472 26.4376C57.4399 26.4376 56.4872 25.4536 56.4872 24.0534C56.4872 22.6347 57.4399 21.6681 58.5472 21.6681C59.6546 21.6681 60.6116 22.6347 60.6116 24.0534C60.6116 25.4536 59.6546 26.4376 58.5472 26.4376ZM50.5465 20.1187C48.524 20.1187 46.8796 21.7721 46.8796 24.0534C46.8796 26.3162 48.524 27.987 50.5465 27.987C52.5679 27.987 54.2134 26.3162 54.2134 24.0534C54.2134 21.7721 52.5679 20.1187 50.5465 20.1187ZM50.5465 26.4376C49.438 26.4376 48.4821 25.4536 48.4821 24.0534C48.4821 22.6347 49.438 21.6681 50.5465 21.6681C51.6538 21.6681 52.6065 22.6347 52.6065 24.0534C52.6065 25.4536 51.6538 26.4376 50.5465 26.4376ZM41.0259 21.3247V22.9966H44.7347C44.6262 23.9309 44.3362 24.6177 43.8915 25.0964C43.3502 25.6745 42.507 26.3162 41.0259 26.3162C38.7435 26.3162 36.9562 24.3332 36.9562 21.8762C36.9562 19.4192 38.7435 17.4362 41.0259 17.4362C42.26 17.4362 43.1579 17.9554 43.8206 18.6283L44.9151 17.4501C43.9882 16.4973 42.7551 15.7654 41.0259 15.7654C37.896 15.7654 35.2656 18.5069 35.2656 21.8762C35.2656 25.2455 37.896 27.987 41.0259 27.987C42.7175 27.987 43.9882 27.3904 44.9871 26.2711C46.0107 25.1692 46.3297 23.6198 46.3297 22.3688C46.3297 21.9803 46.2996 21.623 46.2459 21.3247H41.0259ZM79.9568 22.6208C79.6549 21.7409 78.7237 20.1187 76.8269 20.1187C74.9473 20.1187 73.3823 21.7132 73.3823 24.0534C73.3823 26.2572 74.9312 27.987 77.0073 27.987C78.6861 27.987 79.6549 26.8851 80.0534 26.2434L78.8075 25.3496C78.3918 26.004 77.8258 26.4376 77.0073 26.4376C76.1943 26.4376 75.611 26.0364 75.2373 25.2455L80.1254 23.0683L79.9568 22.6208ZM74.9731 23.9309C74.9312 22.4139 76.0675 21.6369 76.8817 21.6369C77.5197 21.6369 78.061 21.9803 78.2415 22.4717L74.9731 23.9309ZM71.0001 27.7476H72.6069V16.1851H71.0001V27.7476ZM68.3686 20.9951H68.3149C67.954 20.5349 67.2655 20.1187 66.3934 20.1187C64.5631 20.1187 62.8897 21.8484 62.8897 24.0661C62.8897 26.2711 64.5631 27.987 66.3934 27.987C67.2655 27.987 67.954 27.5673 68.3149 27.0932H68.3686V27.6574C68.3686 29.1617 67.6221 29.9699 66.4181 29.9699C65.4363 29.9699 64.8274 29.2068 64.576 28.5651L63.1786 29.1929C63.5814 30.2359 64.648 31.5193 66.4181 31.5193C68.302 31.5193 69.8916 30.3261 69.8916 27.4227V20.358H68.3686V20.9951ZM66.5308 26.4376C65.4235 26.4376 64.4965 25.4398 64.4965 24.0661C64.4965 22.6798 65.4235 21.6681 66.5308 21.6681C67.6221 21.6681 68.4824 22.6798 68.4824 24.0661C68.4824 25.4398 67.6221 26.4376 66.5308 26.4376ZM87.4796 16.1851H83.6365V27.7476H85.2391V23.3666H87.4796C89.2593 23.3666 91.0047 21.9803 91.0047 19.7753C91.0047 17.5715 89.255 16.1851 87.4796 16.1851ZM87.5215 21.7583H85.2391V17.7935H87.5215C88.718 17.7935 89.4011 18.863 89.4011 19.7753C89.4011 20.6702 88.718 21.7583 87.5215 21.7583ZM97.4276 20.0967C96.2698 20.0967 95.0657 20.6471 94.5706 21.8669L95.9927 22.5087C96.2988 21.8669 96.8616 21.6588 97.4566 21.6588C98.288 21.6588 99.1311 22.1965 99.144 23.1458V23.2672C98.854 23.0868 98.2332 22.8197 97.4695 22.8197C95.9379 22.8197 94.3773 23.7274 94.3773 25.4213C94.3773 26.9706 95.6318 27.9685 97.042 27.9685C98.1204 27.9685 98.7154 27.4447 99.0892 26.8354H99.144V27.7291H100.692V23.2938C100.692 21.2437 99.2697 20.0967 97.4276 20.0967ZM97.2343 26.433C96.7102 26.433 95.9798 26.1532 95.9798 25.4536C95.9798 24.5587 96.8906 24.2153 97.679 24.2153C98.3846 24.2153 98.7155 24.3829 99.144 24.6038C99.0183 25.6745 98.1623 26.433 97.2343 26.433ZM106.331 20.3499L104.489 25.3623H104.434L102.529 20.3499H100.801L103.663 27.3545L102.03 31.2522H103.705L108.114 20.3499H106.331ZM91.8854 27.7476H93.4922V16.1851H91.8854V27.7476Z" fill="white"/>
<path d="M8.96489 6.97086C8.71248 7.2553 8.56641 7.69815 8.56641 8.27165V28.728C8.56641 29.3015 8.71248 29.7444 8.96489 30.0288L9.02718 30.0912L19.6755 18.6328V18.3622L9.02718 6.9038L8.96489 6.97086Z" fill="url(#paint0_linear_23536_130694)"/>
<path d="M23.2213 22.4557L19.6758 18.6343V18.3637L23.2256 14.5423L23.3051 14.592L27.509 17.167C28.7087 17.8977 28.7087 19.1002 27.509 19.8356L23.3051 22.4059L23.2213 22.4557Z" fill="url(#paint1_linear_23536_130694)"/>
<path d="M23.3087 22.4082L19.6794 18.5013L8.96875 30.0326C9.36723 30.4835 10.017 30.5378 10.756 30.0869L23.3087 22.4082Z" fill="url(#paint2_linear_23536_130694)"/>
<path d="M23.3087 14.5908L10.756 6.91219C10.017 6.46587 9.36723 6.52022 8.96875 6.97115L19.6794 18.4978L23.3087 14.5908Z" fill="url(#paint3_linear_23536_130694)"/>
<defs>
<linearGradient id="paint0_linear_23536_130694" x1="18.7301" y1="28.9411" x2="3.24847" y2="14.5597" gradientUnits="userSpaceOnUse">
<stop stop-color="#00A0FF"/>
<stop offset="0.0066" stop-color="#00A1FF"/>
<stop offset="0.2601" stop-color="#00BEFF"/>
<stop offset="0.5122" stop-color="#00D2FF"/>
<stop offset="0.7604" stop-color="#00DFFF"/>
<stop offset="1" stop-color="#00E3FF"/>
</linearGradient>
<linearGradient id="paint1_linear_23536_130694" x1="29.0713" y1="18.4977" x2="8.27986" y2="18.4977" gradientUnits="userSpaceOnUse">
<stop stop-color="#FFE000"/>
<stop offset="0.4087" stop-color="#FFBD00"/>
<stop offset="0.7754" stop-color="#FFA500"/>
<stop offset="1" stop-color="#FF9C00"/>
</linearGradient>
<linearGradient id="paint2_linear_23536_130694" x1="21.3352" y1="16.3774" x2="0.340858" y2="-3.12487" gradientUnits="userSpaceOnUse">
<stop stop-color="#FF3A44"/>
<stop offset="1" stop-color="#C31162"/>
</linearGradient>
<linearGradient id="paint3_linear_23536_130694" x1="6.27265" y1="36.8348" x2="15.6476" y2="28.1263" gradientUnits="userSpaceOnUse">
<stop stop-color="#32A071"/>
<stop offset="0.0685" stop-color="#2DA771"/>
<stop offset="0.4762" stop-color="#15CF74"/>
<stop offset="0.8009" stop-color="#06E775"/>
<stop offset="1" stop-color="#00F076"/>
</linearGradient>
</defs>
</svg>
