<svg width="90" height="26" viewBox="0 0 90 26" fill="none" xmlns="http://www.w3.org/2000/svg">
<path d="M86.6667 26H3.33333C1.50083 26 0 24.5367 0 22.75V3.25C0 1.46331 1.50083 -9.88e-07 3.33333 -9.88e-07H86.6667C88.4992 -9.88e-07 90 1.46331 90 3.25V22.75C90 24.5367 88.4992 26 86.6667 26Z" fill="white"/>
<path d="M86.6667 0.52081C88.21 0.52081 89.4658 1.74525 89.4658 3.25V22.75C89.4658 24.2547 88.21 25.4792 86.6667 25.4792H3.33333C1.79 25.4792 0.534166 24.2547 0.534166 22.75V3.25C0.534166 1.74525 1.79 0.52081 3.33333 0.52081H86.6667ZM86.6667 -9.88e-07H3.33333C1.50083 -9.88e-07 0 1.46331 0 3.25V22.75C0 24.5367 1.50083 26 3.33333 26H86.6667C88.4992 26 90 24.5367 90 22.75V3.25C90 1.46331 88.4992 -9.88e-07 86.6667 -9.88e-07Z" fill="#A6A6A6"/>
<path d="M6.9576 4.89998C6.76177 5.09985 6.64844 5.41104 6.64844 5.81404V20.1888C6.64844 20.5918 6.76177 20.903 6.9576 21.1029L7.00594 21.1467L15.2676 13.0949V12.9047L7.00594 4.85285L6.9576 4.89998Z" fill="url(#paint0_linear_23046_43079)"/>
<path d="M18.0165 15.7805L15.2656 13.0952V12.9051L18.0198 10.2198L18.0815 10.2547L21.3431 12.0641C22.274 12.5776 22.274 13.4226 21.3431 13.9394L18.0815 15.7456L18.0165 15.7805Z" fill="url(#paint1_linear_23046_43079)"/>
<path d="M18.0829 15.7454L15.267 12.9999L6.95703 21.103C7.2662 21.4199 7.77036 21.458 8.3437 21.1412L18.0829 15.7454Z" fill="url(#paint2_linear_23046_43079)"/>
<path d="M18.0829 10.2543L8.3437 4.85851C7.77036 4.54488 7.2662 4.58307 6.95703 4.89994L15.267 12.9998L18.0829 10.2543Z" fill="url(#paint3_linear_23046_43079)"/>
<path d="M31.6097 6.65932C31.6097 7.20207 31.4431 7.63676 31.1147 7.96095C30.7372 8.34526 30.2456 8.53863 29.6431 8.53863C29.0672 8.53863 28.5756 8.34201 28.1722 7.95445C27.7681 7.5612 27.5664 7.07857 27.5664 6.50088C27.5664 5.9232 27.7681 5.44057 28.1722 5.05057C28.5756 4.65976 29.0672 4.46313 29.6431 4.46313C29.9297 4.46313 30.2031 4.52082 30.4639 4.62807C30.7239 4.73613 30.9356 4.88238 31.0889 5.06276L30.7406 5.40564C30.4731 5.0977 30.1089 4.94576 29.6431 4.94576C29.2231 4.94576 28.8589 5.08876 28.5497 5.3772C28.2439 5.66645 28.0906 6.04101 28.0906 6.50088C28.0906 6.96076 28.2439 7.33857 28.5497 7.62782C28.8589 7.91301 29.2231 8.05926 29.6431 8.05926C30.0889 8.05926 30.4639 7.91301 30.7597 7.62457C30.9547 7.43363 31.0656 7.17038 31.0947 6.83401H29.6431V6.36438H31.5797C31.6031 6.46595 31.6097 6.56426 31.6097 6.65932Z" fill="black" stroke="black" stroke-width="0.16" stroke-miterlimit="10"/>
<path d="M34.6818 5.03056H32.8627V6.26556H34.5027V6.73519H32.8627V7.97019H34.6818V8.44875H32.3477V4.552H34.6818V5.03056Z" fill="black" stroke="black" stroke-width="0.16" stroke-miterlimit="10"/>
<path d="M36.8515 8.44924H36.3365V5.03105H35.2207V4.55249H37.9682V5.03105H36.8515V8.44924Z" fill="black" stroke="black" stroke-width="0.16" stroke-miterlimit="10"/>
<path d="M39.957 8.44875V4.552H40.4712V8.44875H39.957Z" fill="black" stroke="black" stroke-width="0.16" stroke-miterlimit="10"/>
<path d="M42.75 8.44924H42.2391V5.03105H41.1191V4.55249H43.87V5.03105H42.75V8.44924Z" fill="black" stroke="black" stroke-width="0.16" stroke-miterlimit="10"/>
<path d="M49.0713 7.94746C48.6772 8.34152 48.1888 8.53815 47.6063 8.53815C47.0205 8.53815 46.5322 8.34152 46.138 7.94746C45.7447 7.55421 45.5488 7.07158 45.5488 6.5004C45.5488 5.92921 45.7447 5.44658 46.138 5.05333C46.5322 4.65927 47.0205 4.46265 47.6063 4.46265C48.1855 4.46265 48.6738 4.65927 49.068 5.05658C49.4647 5.45308 49.6605 5.93246 49.6605 6.5004C49.6605 7.07158 49.4647 7.55421 49.0713 7.94746ZM46.5188 7.62083C46.8155 7.91252 47.1763 8.05877 47.6063 8.05877C48.033 8.05877 48.3972 7.91252 48.6905 7.62083C48.9863 7.32915 49.1363 6.95458 49.1363 6.5004C49.1363 6.04621 48.9863 5.67165 48.6905 5.37996C48.3972 5.08827 48.033 4.94202 47.6063 4.94202C47.1763 4.94202 46.8155 5.08827 46.5188 5.37996C46.223 5.67165 46.073 6.04621 46.073 6.5004C46.073 6.95458 46.223 7.32915 46.5188 7.62083Z" fill="black" stroke="black" stroke-width="0.16" stroke-miterlimit="10"/>
<path d="M50.3828 8.44875V4.552H51.0078L52.9511 7.58263H52.9736L52.9511 6.8335V4.552H53.4653V8.44875H52.9286L50.8936 5.26863H50.8711L50.8936 6.021V8.44875H50.3828Z" fill="black" stroke="black" stroke-width="0.16" stroke-miterlimit="10"/>
<path d="M45.4227 14.1391C43.8569 14.1391 42.5777 15.301 42.5777 16.9041C42.5777 18.4941 43.8569 19.6682 45.4227 19.6682C46.9919 19.6682 48.271 18.4941 48.271 16.9041C48.271 15.301 46.9919 14.1391 45.4227 14.1391ZM45.4227 18.5795C44.5635 18.5795 43.8244 17.888 43.8244 16.9041C43.8244 15.9071 44.5635 15.2279 45.4227 15.2279C46.2819 15.2279 47.0244 15.9071 47.0244 16.9041C47.0244 17.888 46.2819 18.5795 45.4227 18.5795ZM39.2152 14.1391C37.646 14.1391 36.3702 15.301 36.3702 16.9041C36.3702 18.4941 37.646 19.6682 39.2152 19.6682C40.7835 19.6682 42.0602 18.4941 42.0602 16.9041C42.0602 15.301 40.7835 14.1391 39.2152 14.1391ZM39.2152 18.5795C38.3552 18.5795 37.6135 17.888 37.6135 16.9041C37.6135 15.9071 38.3552 15.2279 39.2152 15.2279C40.0744 15.2279 40.8135 15.9071 40.8135 16.9041C40.8135 17.888 40.0744 18.5795 39.2152 18.5795ZM31.8285 14.9866V16.1615H34.706C34.6219 16.818 34.3969 17.3006 34.0519 17.637C33.6319 18.0432 32.9777 18.4941 31.8285 18.4941C30.0577 18.4941 28.671 17.1007 28.671 15.3741C28.671 13.6476 30.0577 12.2541 31.8285 12.2541C32.786 12.2541 33.4827 12.619 33.9969 13.0918L34.846 12.2639C34.1269 11.5944 33.1702 11.0801 31.8285 11.0801C29.4002 11.0801 27.3594 13.0065 27.3594 15.3741C27.3594 17.7418 29.4002 19.6682 31.8285 19.6682C33.141 19.6682 34.1269 19.249 34.9019 18.4625C35.696 17.6881 35.9435 16.5994 35.9435 15.7203C35.9435 15.4473 35.9202 15.1962 35.8785 14.9866H31.8285ZM62.0335 15.8974C61.7994 15.2791 61.0769 14.1391 59.6052 14.1391C58.1469 14.1391 56.9327 15.2596 56.9327 16.9041C56.9327 18.4527 58.1344 19.6682 59.7452 19.6682C61.0477 19.6682 61.7994 18.8939 62.1085 18.443L61.1419 17.8149C60.8194 18.2748 60.3802 18.5795 59.7452 18.5795C59.1144 18.5795 58.6619 18.2975 58.3719 17.7418L62.1644 16.2118L62.0335 15.8974ZM58.1669 16.818C58.1344 15.752 59.016 15.206 59.6477 15.206C60.1427 15.206 60.5627 15.4473 60.7027 15.7926L58.1669 16.818ZM55.0844 19.5H56.331V11.375H55.0844V19.5ZM53.0427 14.755H53.001C52.721 14.4316 52.1869 14.1391 51.5102 14.1391C50.0902 14.1391 48.7919 15.3546 48.7919 16.913C48.7919 18.4625 50.0902 19.6682 51.5102 19.6682C52.1869 19.6682 52.721 19.3733 53.001 19.0401H53.0427V19.4366C53.0427 20.4937 52.4635 21.0616 51.5294 21.0616C50.7677 21.0616 50.2952 20.5254 50.1002 20.0745L49.016 20.5156C49.3285 21.2485 50.156 22.1504 51.5294 22.1504C52.991 22.1504 54.2244 21.3119 54.2244 19.2717V14.3073H53.0427V14.755ZM51.6169 18.5795C50.7577 18.5795 50.0385 17.8783 50.0385 16.913C50.0385 15.9388 50.7577 15.2279 51.6169 15.2279C52.4635 15.2279 53.131 15.9388 53.131 16.913C53.131 17.8783 52.4635 18.5795 51.6169 18.5795ZM67.8702 11.375H64.8885V19.5H66.1319V16.4215H67.8702C69.251 16.4215 70.6052 15.4473 70.6052 13.8978C70.6052 12.3492 69.2477 11.375 67.8702 11.375ZM67.9027 15.2913H66.1319V12.5052H67.9027C68.831 12.5052 69.361 13.2568 69.361 13.8978C69.361 14.5267 68.831 15.2913 67.9027 15.2913ZM75.5885 14.1237C74.6902 14.1237 73.756 14.5105 73.3719 15.3676L74.4752 15.8186C74.7127 15.3676 75.1494 15.2214 75.611 15.2214C76.256 15.2214 76.9102 15.5992 76.9202 16.2663V16.3516C76.6952 16.2248 76.2135 16.0371 75.621 16.0371C74.4327 16.0371 73.2219 16.675 73.2219 17.8653C73.2219 18.954 74.1952 19.6552 75.2894 19.6552C76.126 19.6552 76.5877 19.2871 76.8777 18.859H76.9202V19.487H78.121V16.3703C78.121 14.9297 77.0177 14.1237 75.5885 14.1237ZM75.4385 18.5762C75.0319 18.5762 74.4652 18.3796 74.4652 17.888C74.4652 17.2591 75.1719 17.0178 75.7835 17.0178C76.331 17.0178 76.5877 17.1356 76.9202 17.2908C76.8227 18.0432 76.1585 18.5762 75.4385 18.5762ZM82.496 14.3016L81.0669 17.8238H81.0244L79.5469 14.3016H78.206L80.426 19.2238L79.1594 21.9627H80.4585L83.8794 14.3016H82.496ZM71.2885 19.5H72.5352V11.375H71.2885V19.5Z" fill="black"/>
<defs>
<linearGradient id="paint0_linear_23046_43079" x1="14.5341" y1="20.3385" x2="3.629" y2="9.15381" gradientUnits="userSpaceOnUse">
<stop stop-color="#00A0FF"/>
<stop offset="0.0066" stop-color="#00A1FF"/>
<stop offset="0.2601" stop-color="#00BEFF"/>
<stop offset="0.5122" stop-color="#00D2FF"/>
<stop offset="0.7604" stop-color="#00DFFF"/>
<stop offset="1" stop-color="#00E3FF"/>
</linearGradient>
<linearGradient id="paint1_linear_23046_43079" x1="22.5552" y1="12.9992" x2="6.42396" y2="12.9992" gradientUnits="userSpaceOnUse">
<stop stop-color="#FFE000"/>
<stop offset="0.4087" stop-color="#FFBD00"/>
<stop offset="0.7754" stop-color="#FFA500"/>
<stop offset="1" stop-color="#FF9C00"/>
</linearGradient>
<linearGradient id="paint2_linear_23046_43079" x1="16.5517" y1="11.5075" x2="1.76354" y2="-3.65988" gradientUnits="userSpaceOnUse">
<stop stop-color="#FF3A44"/>
<stop offset="1" stop-color="#C31162"/>
</linearGradient>
<linearGradient id="paint3_linear_23046_43079" x1="4.86523" y1="25.8852" x2="11.4688" y2="19.1124" gradientUnits="userSpaceOnUse">
<stop stop-color="#32A071"/>
<stop offset="0.0685" stop-color="#2DA771"/>
<stop offset="0.4762" stop-color="#15CF74"/>
<stop offset="0.8009" stop-color="#06E775"/>
<stop offset="1" stop-color="#00F076"/>
</linearGradient>
</defs>
</svg>
