<svg width="25" height="25" viewBox="0 0 25 25" fill="none" xmlns="http://www.w3.org/2000/svg">
<path d="M15.8852 21.212C16.8475 21.5147 17.8446 21.6678 18.8467 21.6666C20.4581 21.6692 22.0487 21.2711 23.4958 20.5031C23.5386 19.4076 23.2506 18.3269 22.6754 17.4247C22.1002 16.5225 21.2693 15.8481 20.3084 15.5036C19.3476 15.1591 18.3093 15.1634 17.3509 15.5157C16.3925 15.868 15.5662 16.5492 14.9974 17.4561M15.8852 21.212V21.2083C15.8852 19.848 15.5626 18.5683 14.9974 17.4561M15.8852 21.212V21.3415C13.7141 22.7582 11.2266 23.5046 8.69205 23.5C6.0623 23.5 3.60177 22.7116 1.50113 21.3415L1.5 21.2083C1.49914 19.4782 2.0298 17.797 3.00834 16.4298C3.98687 15.0625 5.35762 14.087 6.90446 13.6569C8.45131 13.2269 10.0863 13.3669 11.5516 14.0548C13.0169 14.7426 14.2292 15.9393 14.9974 17.4561M12.5007 5.625C12.5007 6.71901 12.0996 7.76822 11.3855 8.54181C10.6715 9.31539 9.70301 9.74999 8.69318 9.74999C7.68336 9.74999 6.71489 9.31539 6.00083 8.54181C5.28678 7.76822 4.88562 6.71901 4.88562 5.625C4.88562 4.53098 5.28678 3.48177 6.00083 2.70818C6.71489 1.9346 7.68336 1.5 8.69318 1.5C9.70301 1.5 10.6715 1.9346 11.3855 2.70818C12.0996 3.48177 12.5007 4.53098 12.5007 5.625ZM21.8081 8.37499C21.8081 9.2259 21.4961 10.0419 20.9407 10.6436C20.3853 11.2453 19.6321 11.5833 18.8467 11.5833C18.0612 11.5833 17.308 11.2453 16.7526 10.6436C16.1972 10.0419 15.8852 9.2259 15.8852 8.37499C15.8852 7.52409 16.1972 6.70804 16.7526 6.10636C17.308 5.50468 18.0612 5.16666 18.8467 5.16666C19.6321 5.16666 20.3853 5.50468 20.9407 6.10636C21.4961 6.70804 21.8081 7.52409 21.8081 8.37499Z" stroke="white" stroke-width="1.5" stroke-linecap="round" stroke-linejoin="round"/>
</svg>
