<svg width="16" height="16" viewBox="0 0 16 16" fill="none" xmlns="http://www.w3.org/2000/svg">
<path d="M10.3081 13.94C10.9642 14.1464 11.6441 14.2507 12.3273 14.25C13.426 14.2517 14.5105 13.9803 15.4972 13.4567C15.5263 12.7097 15.33 11.9729 14.9378 11.3578C14.5456 10.7426 13.979 10.2828 13.3239 10.0479C12.6688 9.81303 11.9609 9.81593 11.3074 10.0562C10.654 10.2964 10.0906 10.7608 9.70275 11.3792M10.3081 13.94V13.9375C10.3081 13.01 10.0881 12.1375 9.70275 11.3792M10.3081 13.94V14.0283C8.82777 14.9942 7.13177 15.5031 5.40367 15.5C3.61066 15.5 1.93303 14.9625 0.50077 14.0283L0.500001 13.9375C0.49941 12.7579 0.861229 11.6116 1.52841 10.6794C2.1956 9.74716 3.13019 9.08202 4.18486 8.78882C5.23953 8.49563 6.35427 8.59106 7.35335 9.06007C8.35242 9.52908 9.17899 10.345 9.70275 11.3792M8.0005 3.3125C8.0005 4.05842 7.72699 4.77379 7.24014 5.30123C6.75328 5.82868 6.09296 6.12499 5.40444 6.12499C4.71592 6.12499 4.05561 5.82868 3.56875 5.30123C3.08189 4.77379 2.80838 4.05842 2.80838 3.3125C2.80838 2.56658 3.08189 1.85121 3.56875 1.32376C4.05561 0.796316 4.71592 0.5 5.40444 0.5C6.09296 0.5 6.75328 0.796316 7.24014 1.32376C7.72699 1.85121 8.0005 2.56658 8.0005 3.3125ZM14.3464 5.1875C14.3464 5.76766 14.1337 6.32405 13.755 6.73429C13.3764 7.14453 12.8628 7.37499 12.3273 7.37499C11.7918 7.37499 11.2782 7.14453 10.8995 6.73429C10.5208 6.32405 10.3081 5.76766 10.3081 5.1875C10.3081 4.60733 10.5208 4.05094 10.8995 3.6407C11.2782 3.23047 11.7918 3 12.3273 3C12.8628 3 13.3764 3.23047 13.755 3.6407C14.1337 4.05094 14.3464 4.60733 14.3464 5.1875Z" stroke="white" stroke-linecap="round" stroke-linejoin="round"/>
</svg>
