<svg width="25" height="24" viewBox="0 0 25 24" fill="none" xmlns="http://www.w3.org/2000/svg">
<g id="Chat alt 2">
<path id="Icon" d="M17.3335 8H19.3335C20.4381 8 21.3335 8.89543 21.3335 10V16C21.3335 17.1046 20.4381 18 19.3335 18H17.3335V22L13.3335 18H9.3335C8.78121 18 8.28121 17.7761 7.91928 17.4142M7.91928 17.4142L11.3335 14H15.3335C16.4381 14 17.3335 13.1046 17.3335 12V6C17.3335 4.89543 16.4381 4 15.3335 4H5.3335C4.22893 4 3.3335 4.89543 3.3335 6V12C3.3335 13.1046 4.22893 14 5.3335 14H7.3335V18L7.91928 17.4142Z" stroke="white" stroke-width="2" stroke-linecap="round" stroke-linejoin="round"/>
</g>
</svg>
