<svg width="100" height="22" viewBox="0 0 100 22" fill="none" xmlns="http://www.w3.org/2000/svg">
<path d="M11.0156 0.134766C17.0995 0.134766 22.0312 4.99943 22.0312 11C22.0311 16.8129 17.4032 21.5594 11.583 21.8506L11.0156 21.8652H7.65039V15.8291H11.0156C13.7194 15.829 15.912 13.6667 15.9121 11C15.9121 8.33314 13.7195 6.171 11.0156 6.1709C8.31187 6.17112 6.12012 8.33322 6.12012 11V21.8652H0V11C0 4.9995 4.93184 0.134884 11.0156 0.134766Z" fill="black"/>
<path d="M94.2587 17.3379V6.66308H90.6362V4.66211H99.9997V6.66308H96.3772V17.3379H94.2587Z" fill="black"/>
<path d="M80.416 17.3379L85.1987 4.66211H87.1999L91.9827 17.3379H89.7336L88.6963 14.513H83.7116L82.6926 17.3379H80.416ZM84.3909 12.6207H87.9986L86.5849 8.79081C86.5482 8.6882 86.5053 8.56747 86.4564 8.42864C86.4074 8.28981 86.3585 8.154 86.3095 8.02121C86.2605 7.88238 86.2238 7.75864 86.1993 7.64998C86.1687 7.75864 86.129 7.88238 86.08 8.02121C86.0372 8.154 85.9913 8.28981 85.9423 8.42864C85.8933 8.56747 85.8505 8.6882 85.8138 8.79081L84.3909 12.6207Z" fill="black"/>
<path d="M69.0327 17.3379V4.66211H71.148V9.79582H76.7705V4.66211H78.8858V17.3379H76.7705V11.7787H71.148V17.3379H69.0327Z" fill="black"/>
<path d="M63.0594 17.5788C62.072 17.5788 61.237 17.3916 60.5543 17.0172C59.8717 16.6428 59.3201 16.1416 58.8995 15.5135C58.485 14.8794 58.1833 14.1759 57.9944 13.4029C57.8054 12.6239 57.7109 11.8358 57.7109 11.0387C57.7109 10.2718 57.8085 9.50181 58.0035 8.72883C58.1985 7.95585 58.5064 7.2493 58.9269 6.60918C59.3475 5.96906 59.8991 5.45575 60.5818 5.06926C61.2644 4.67673 62.0903 4.48047 63.0594 4.48047C63.8579 4.48047 64.5467 4.60729 65.1257 4.86092C65.7047 5.11455 66.1832 5.44065 66.5611 5.83922C66.9451 6.23779 67.2346 6.65749 67.4297 7.09833L65.5463 7.98605C65.339 7.6841 65.1226 7.41839 64.8971 7.18891C64.6716 6.95943 64.4095 6.78129 64.1108 6.65447C63.8183 6.52765 63.4678 6.46425 63.0594 6.46425C62.4682 6.46425 61.9684 6.60314 61.56 6.88093C61.1517 7.15872 60.8256 7.52407 60.5818 7.97699C60.344 8.42991 60.1703 8.92509 60.0606 9.46256C59.9509 9.99398 59.896 10.5194 59.896 11.0387C59.896 11.5882 59.957 12.1348 60.0789 12.6783C60.2008 13.2157 60.3898 13.7049 60.6458 14.1457C60.9018 14.5805 61.2278 14.9308 61.624 15.1965C62.0263 15.4562 62.5048 15.586 63.0594 15.586C63.6568 15.586 64.1505 15.438 64.5406 15.1421C64.9367 14.8402 65.2811 14.4507 65.5737 13.9736L67.5028 14.6892C67.2468 15.2388 66.9177 15.7309 66.5154 16.1657C66.1131 16.6005 65.6255 16.9447 65.0526 17.1984C64.4857 17.452 63.8213 17.5788 63.0594 17.5788Z" fill="black"/>
<path d="M52.0056 17.5786C51.0946 17.5786 50.3006 17.412 49.6235 17.0788C48.9464 16.7396 48.4202 16.27 48.0447 15.6703C47.6754 15.0705 47.4907 14.3798 47.4907 13.5983C47.4907 12.841 47.6877 12.1867 48.0816 11.6354C48.4817 11.078 49.0111 10.66 49.6697 10.3813C49.3619 10.2299 49.0819 10.0269 48.8295 9.77247C48.5833 9.51802 48.3863 9.22419 48.2386 8.89098C48.097 8.55171 48.0262 8.17307 48.0262 7.75504C48.0262 7.11891 48.1893 6.54943 48.5156 6.04659C48.8418 5.54374 49.3004 5.14692 49.8913 4.85612C50.4883 4.56532 51.1931 4.41992 52.0056 4.41992C52.8181 4.41992 53.5229 4.56532 54.1199 4.85612C54.7232 5.14692 55.1879 5.54374 55.5141 6.04659C55.8403 6.54943 56.0035 7.11891 56.0035 7.75504C56.0035 8.16701 55.9296 8.54262 55.7819 8.88189C55.6341 9.2151 55.4341 9.50893 55.1817 9.76338C54.9294 10.0118 54.6493 10.2117 54.3415 10.3632C55.0001 10.6418 55.5326 11.0629 55.9388 11.6263C56.3451 12.1897 56.5482 12.8471 56.5482 13.5983C56.5482 14.3798 56.3605 15.0705 55.985 15.6703C55.6095 16.27 55.0802 16.7396 54.3969 17.0788C53.7199 17.412 52.9227 17.5786 52.0056 17.5786ZM52.0056 15.6703C52.4673 15.6703 52.8766 15.5824 53.2336 15.4067C53.5967 15.225 53.8799 14.9736 54.083 14.6525C54.2923 14.3314 54.3969 13.9527 54.3969 13.5165C54.3969 13.1046 54.2954 12.735 54.0922 12.4078C53.8891 12.0807 53.606 11.8232 53.2428 11.6354C52.8858 11.4476 52.4734 11.3537 52.0056 11.3537C51.5317 11.3537 51.1162 11.4476 50.7592 11.6354C50.4022 11.8232 50.1252 12.0807 49.9282 12.4078C49.7312 12.735 49.6328 13.1046 49.6328 13.5165C49.6328 13.9527 49.7312 14.3314 49.9282 14.6525C50.1313 14.9736 50.4114 15.225 50.7684 15.4067C51.1254 15.5824 51.5378 15.6703 52.0056 15.6703ZM52.0056 9.52711C52.5657 9.52711 53.0182 9.37565 53.3628 9.07273C53.7137 8.76375 53.8891 8.37905 53.8891 7.91862C53.8891 7.43395 53.7137 7.04015 53.3628 6.73724C53.012 6.43432 52.5596 6.28286 52.0056 6.28286C51.4516 6.28286 51.0023 6.43432 50.6576 6.73724C50.3129 7.04015 50.1406 7.43395 50.1406 7.91862C50.1406 8.37905 50.3068 8.76375 50.6391 9.07273C50.9777 9.37565 51.4332 9.52711 52.0056 9.52711Z" fill="black"/>
<path d="M38.0049 17.3379V4.66211H40.113V15.3189H46.328V17.3379H38.0049Z" fill="black"/>
<path d="M26.9277 17.3379V4.66211H32.1878C33.2527 4.66211 34.0972 4.85527 34.7214 5.24158C35.3518 5.62185 35.8016 6.11379 36.0709 6.71741C36.3402 7.31498 36.4748 7.9367 36.4748 8.58256C36.4748 9.03527 36.3952 9.491 36.2361 9.94974C36.0831 10.4025 35.8353 10.822 35.4926 11.2083C35.1498 11.5946 34.7061 11.9054 34.1615 12.1409C33.6168 12.3702 32.9589 12.4849 32.1878 12.4849H29.0483V17.3379H26.9277ZM29.0483 10.5292H32.298C32.7937 10.5292 33.1884 10.4326 33.4822 10.2395C33.7759 10.0403 33.9871 9.7928 34.1156 9.49704C34.2441 9.19523 34.3084 8.89041 34.3084 8.58256C34.3084 8.3049 34.2502 8.01517 34.1339 7.71336C34.0238 7.40552 33.8218 7.14597 33.5281 6.93471C33.2343 6.72344 32.8243 6.61781 32.298 6.61781H29.0483V10.5292Z" fill="black"/>
</svg>
