<svg width="22" height="23" viewBox="0 0 22 23" fill="none" xmlns="http://www.w3.org/2000/svg">
<path d="M1 6.41211C1 14.6961 7.716 21.4121 16 21.4121H18.25C18.8467 21.4121 19.419 21.1751 19.841 20.7531C20.2629 20.3311 20.5 19.7588 20.5 19.1621V17.7901C20.5 17.2741 20.149 16.8241 19.648 16.6991L15.225 15.5931C14.785 15.4831 14.323 15.6481 14.052 16.0101L13.082 17.3031C12.8 17.6791 12.313 17.8451 11.872 17.6831C10.2349 17.0812 8.74815 16.1307 7.51478 14.8973C6.28141 13.664 5.33087 12.1772 4.729 10.5401C4.567 10.0991 4.733 9.61211 5.109 9.33011L6.402 8.36011C6.765 8.08911 6.929 7.62611 6.819 7.18711L5.713 2.76411C5.65214 2.5208 5.51172 2.30481 5.31405 2.15045C5.11638 1.99608 4.8728 1.91219 4.622 1.91211H3.25C2.65326 1.91211 2.08097 2.14916 1.65901 2.57112C1.23705 2.99308 1 3.56537 1 4.16211V6.41211Z" stroke="#111827" stroke-width="2" stroke-linecap="round" stroke-linejoin="round"/>
</svg>
