<svg width="22" height="22" viewBox="0 0 22 22" fill="none" xmlns="http://www.w3.org/2000/svg">
<path d="M1 5.61538C1 14.1118 7.88821 21 16.3846 21H18.6923C19.3043 21 19.8913 20.7569 20.3241 20.3241C20.7569 19.8913 21 19.3043 21 18.6923V17.2851C21 16.7559 20.64 16.2944 20.1262 16.1662L15.5897 15.0318C15.1385 14.919 14.6646 15.0882 14.3867 15.4595L13.3918 16.7856C13.1026 17.1713 12.6031 17.3415 12.1508 17.1754C10.4717 16.5581 8.94682 15.5832 7.68183 14.3182C6.41683 13.0532 5.44192 11.5283 4.82462 9.84923C4.65846 9.39692 4.82872 8.89744 5.21436 8.60821L6.54051 7.61333C6.91282 7.33538 7.08103 6.86051 6.96821 6.41026L5.83385 1.87385C5.77142 1.6243 5.62741 1.40277 5.42467 1.24445C5.22193 1.08612 4.97211 1.00009 4.71487 1H3.30769C2.69565 1 2.10868 1.24313 1.67591 1.67591C1.24313 2.10868 1 2.69565 1 3.30769V5.61538Z" stroke="#111827" stroke-width="2" stroke-linecap="round" stroke-linejoin="round"/>
</svg>
