<svg width="120" height="25" viewBox="0 0 120 25" fill="none" xmlns="http://www.w3.org/2000/svg">
<path d="M12.5498 0C19.4809 0 25.0996 5.54178 25.0996 12.3779C25.0996 19.2141 19.4809 24.7559 12.5498 24.7559H8.71484V17.8789H12.5498C15.6301 17.8788 18.1268 15.416 18.127 12.3779C18.1268 9.33983 15.6301 6.87604 12.5498 6.87598C9.46951 6.87606 6.97187 9.33984 6.97168 12.3779V24.7559H0V12.3779C2.09024e-05 5.54179 5.61875 1.57592e-05 12.5498 0Z" fill="white"/>
<path d="M112.959 20.2139V7.27518H108.516V4.84985H120V7.27518H115.557V20.2139H112.959Z" fill="white"/>
<path d="M95.981 20.2139L101.847 4.84985H104.301L110.167 20.2139H107.409L106.136 16.7899H100.023L98.7732 20.2139H95.981ZM100.856 14.4963H105.281L103.547 9.85415C103.502 9.72978 103.449 9.58345 103.389 9.41518C103.329 9.2469 103.269 9.08229 103.209 8.92133C103.149 8.75306 103.104 8.60308 103.074 8.47138C103.037 8.60308 102.988 8.75306 102.928 8.92133C102.875 9.08229 102.819 9.2469 102.759 9.41518C102.699 9.58345 102.646 9.72978 102.601 9.85415L100.856 14.4963Z" fill="white"/>
<path d="M82.02 20.2139V4.84985H84.6144V11.0723H91.5102V4.84985H94.1046V20.2139H91.5102V13.4757H84.6144V20.2139H82.02Z" fill="white"/>
<path d="M74.6938 20.5066C73.4828 20.5066 72.4586 20.2797 71.6214 19.8259C70.7841 19.372 70.1076 18.7645 69.5918 18.0033C69.0834 17.2347 68.7134 16.382 68.4816 15.4451C68.2499 14.5008 68.134 13.5456 68.134 12.5795C68.134 11.6499 68.2536 10.7166 68.4929 9.77971C68.7321 8.8428 69.1096 7.98641 69.6254 7.21053C70.1412 6.43465 70.8178 5.81249 71.655 5.34403C72.4923 4.86826 73.5052 4.63037 74.6938 4.63037C75.6731 4.63037 76.5179 4.78408 77.2281 5.0915C77.9382 5.39893 78.5251 5.79419 78.9885 6.27728C79.4595 6.76037 79.8146 7.26909 80.0538 7.80342L77.7439 8.8794C77.4897 8.51342 77.2243 8.19136 76.9477 7.91321C76.6711 7.63507 76.3497 7.41914 75.9834 7.26543C75.6245 7.11171 75.1947 7.03486 74.6938 7.03486C73.9687 7.03486 73.3557 7.20321 72.8549 7.53991C72.354 7.87661 71.954 8.31945 71.655 8.86842C71.3635 9.41739 71.1504 10.0176 71.0159 10.669C70.8813 11.3132 70.814 11.95 70.814 12.5795C70.814 13.2455 70.8888 13.908 71.0383 14.5667C71.1878 15.2182 71.4195 15.8111 71.7335 16.3454C72.0475 16.8724 72.4474 17.2969 72.9333 17.619C73.4267 17.9337 74.0136 18.0911 74.6938 18.0911C75.4264 18.0911 76.032 17.9118 76.5104 17.5531C76.9963 17.1871 77.4187 16.715 77.7775 16.1368L80.1435 17.0042C79.8295 17.6702 79.4259 18.2668 78.9325 18.7938C78.4391 19.3208 77.841 19.738 77.1383 20.0454C76.4431 20.3529 75.6283 20.5066 74.6938 20.5066Z" fill="white"/>
<path d="M61.1365 20.5065C60.0192 20.5065 59.0454 20.3046 58.2149 19.9007C57.3845 19.4895 56.7391 18.9204 56.2786 18.1934C55.8256 17.4664 55.5991 16.6293 55.5991 15.682C55.5991 14.7641 55.8407 13.9711 56.3239 13.3028C56.8146 12.6273 57.4638 12.1206 58.2716 11.7828C57.8941 11.5992 57.5506 11.3532 57.2411 11.0448C56.9391 10.7364 56.6975 10.3803 56.5164 9.97639C56.3427 9.56517 56.2559 9.10622 56.2559 8.59954C56.2559 7.82851 56.456 7.13825 56.8561 6.52877C57.2562 5.91929 57.8186 5.43831 58.5433 5.08584C59.2756 4.73336 60.14 4.55713 61.1365 4.55713C62.133 4.55713 62.9974 4.73336 63.7297 5.08584C64.4695 5.43831 65.0395 5.91929 65.4396 6.52877C65.8397 7.13825 66.0398 7.82851 66.0398 8.59954C66.0398 9.09888 65.9492 9.55416 65.768 9.96537C65.5868 10.3692 65.3415 10.7254 65.032 11.0338C64.7224 11.3349 64.3789 11.5772 64.0015 11.7608C64.8092 12.0986 65.4623 12.6089 65.9605 13.2918C66.4588 13.9747 66.7079 14.7715 66.7079 15.682C66.7079 16.6293 66.4776 17.4664 66.0171 18.1934C65.5566 18.9204 64.9074 19.4895 64.0694 19.9007C63.239 20.3046 62.2614 20.5065 61.1365 20.5065ZM61.1365 18.1934C61.7027 18.1934 62.2047 18.0869 62.6426 17.874C63.088 17.6537 63.4353 17.3489 63.6844 16.9597C63.9411 16.5706 64.0694 16.1116 64.0694 15.5829C64.0694 15.0836 63.9449 14.6356 63.6957 14.2391C63.4466 13.8426 63.0993 13.5305 62.6539 13.3028C62.2161 13.0752 61.7103 12.9614 61.1365 12.9614C60.5552 12.9614 60.0456 13.0752 59.6078 13.3028C59.1699 13.5305 58.8302 13.8426 58.5886 14.2391C58.3471 14.6356 58.2263 15.0836 58.2263 15.5829C58.2263 16.1116 58.3471 16.5706 58.5886 16.9597C58.8378 17.3489 59.1813 17.6537 59.6191 17.874C60.057 18.0869 60.5628 18.1934 61.1365 18.1934ZM61.1365 10.7474C61.8235 10.7474 62.3784 10.5638 62.8011 10.1967C63.2314 9.82218 63.4466 9.35589 63.4466 8.79781C63.4466 8.21036 63.2314 7.73305 62.8011 7.36589C62.3708 6.99873 61.816 6.81515 61.1365 6.81515C60.4571 6.81515 59.906 6.99873 59.4832 7.36589C59.0605 7.73305 58.8491 8.21036 58.8491 8.79781C58.8491 9.35589 59.0529 9.82218 59.4606 10.1967C59.8758 10.5638 60.4344 10.7474 61.1365 10.7474Z" fill="white"/>
<path d="M43.9648 20.2139V4.84985H46.5504V17.7666H54.1729V20.2139H43.9648Z" fill="white"/>
<path d="M30.3792 20.2139V4.84985H36.8305C38.1365 4.84985 39.1723 5.08397 39.938 5.55221C40.7111 6.01313 41.2627 6.60941 41.593 7.34103C41.9233 8.06533 42.0884 8.81891 42.0884 9.60174C42.0884 10.1505 41.9908 10.7028 41.7957 11.2589C41.608 11.8076 41.304 12.3161 40.8837 12.7843C40.4634 13.2525 39.9192 13.6293 39.2512 13.9147C38.5831 14.1927 37.7762 14.3317 36.8305 14.3317H32.98V20.2139H30.3792ZM32.98 11.9612H36.9656C37.5736 11.9612 38.0577 11.8442 38.418 11.61C38.7783 11.3686 39.0372 11.0686 39.1949 10.7101C39.3525 10.3443 39.4313 9.97487 39.4313 9.60174C39.4313 9.2652 39.36 8.91402 39.2174 8.5482C39.0823 8.17508 38.8346 7.86048 38.4743 7.60441C38.114 7.34834 37.6111 7.22031 36.9656 7.22031H32.98V11.9612Z" fill="white"/>
</svg>
