<svg width="120" height="25" viewBox="0 0 120 25" fill="none" xmlns="http://www.w3.org/2000/svg">
<path d="M12.5498 0C19.4809 0 25.0996 5.54178 25.0996 12.3779C25.0996 19.2141 19.4809 24.7559 12.5498 24.7559H8.71484V17.8789H12.5498C15.6301 17.8788 18.1268 15.416 18.127 12.3779C18.1268 9.33983 15.6301 6.87604 12.5498 6.87598C9.46951 6.87606 6.97187 9.33984 6.97168 12.3779V24.7559H0V12.3779C2.09024e-05 5.54179 5.61875 1.57592e-05 12.5498 0Z" fill="white"/>
<path d="M112.959 20.2139V7.27518H108.516V4.84985H120V7.27518H115.557V20.2139H112.959Z" fill="white"/>
<path d="M95.9805 20.2139L101.846 4.84985H104.301L110.167 20.2139H107.408L106.136 16.7899H100.022L98.7727 20.2139H95.9805ZM100.856 14.4963H105.28L103.546 9.85415C103.501 9.72978 103.449 9.58345 103.389 9.41518C103.329 9.2469 103.269 9.08229 103.209 8.92133C103.149 8.75306 103.104 8.60308 103.074 8.47138C103.036 8.60308 102.987 8.75306 102.927 8.92133C102.875 9.08229 102.818 9.2469 102.758 9.41518C102.698 9.58345 102.646 9.72978 102.601 9.85415L100.856 14.4963Z" fill="white"/>
<path d="M82.0195 20.2139V4.84985H84.6139V11.0723H91.5097V4.84985H94.1041V20.2139H91.5097V13.4757H84.6139V20.2139H82.0195Z" fill="white"/>
<path d="M74.6926 20.5066C73.4816 20.5066 72.4574 20.2797 71.6202 19.8259C70.7829 19.372 70.1064 18.7645 69.5905 18.0033C69.0822 17.2347 68.7122 16.382 68.4804 15.4451C68.2487 14.5008 68.1328 13.5456 68.1328 12.5795C68.1328 11.6499 68.2524 10.7166 68.4916 9.77971C68.7309 8.8428 69.1084 7.98641 69.6242 7.21053C70.14 6.43465 70.8165 5.81249 71.6538 5.34403C72.4911 4.86826 73.504 4.63037 74.6926 4.63037C75.6719 4.63037 76.5167 4.78408 77.2268 5.0915C77.937 5.39893 78.5238 5.79419 78.9873 6.27728C79.4583 6.76037 79.8134 7.26909 80.0526 7.80342L77.7426 8.8794C77.4885 8.51342 77.2231 8.19136 76.9465 7.91321C76.6699 7.63507 76.3485 7.41914 75.9821 7.26543C75.6233 7.11171 75.1935 7.03486 74.6926 7.03486C73.9675 7.03486 73.3545 7.20321 72.8536 7.53991C72.3528 7.87661 71.9528 8.31945 71.6538 8.86842C71.3623 9.41739 71.1492 10.0176 71.0146 10.669C70.8801 11.3132 70.8128 11.95 70.8128 12.5795C70.8128 13.2455 70.8876 13.908 71.0371 14.5667C71.1866 15.2182 71.4183 15.8111 71.7323 16.3454C72.0463 16.8724 72.4462 17.2969 72.9321 17.619C73.4255 17.9337 74.0123 18.0911 74.6926 18.0911C75.4252 18.0911 76.0307 17.9118 76.5092 17.5531C76.9951 17.1871 77.4175 16.715 77.7763 16.1368L80.1423 17.0042C79.8283 17.6702 79.4246 18.2668 78.9313 18.7938C78.4379 19.3208 77.8398 19.738 77.1371 20.0454C76.4419 20.3529 75.6271 20.5066 74.6926 20.5066Z" fill="white"/>
<path d="M61.137 20.5065C60.0197 20.5065 59.0459 20.3046 58.2154 19.9007C57.385 19.4895 56.7396 18.9204 56.279 18.1934C55.8261 17.4664 55.5996 16.6293 55.5996 15.682C55.5996 14.7641 55.8412 13.9711 56.3243 13.3028C56.815 12.6273 57.4643 12.1206 58.2721 11.7828C57.8946 11.5992 57.5511 11.3532 57.2416 11.0448C56.9396 10.7364 56.698 10.3803 56.5168 9.97639C56.3432 9.56517 56.2564 9.10622 56.2564 8.59954C56.2564 7.82851 56.4565 7.13825 56.8566 6.52877C57.2567 5.91929 57.8191 5.43831 58.5438 5.08584C59.2761 4.73336 60.1405 4.55713 61.137 4.55713C62.1335 4.55713 62.9979 4.73336 63.7302 5.08584C64.47 5.43831 65.04 5.91929 65.4401 6.52877C65.8402 7.13825 66.0403 7.82851 66.0403 8.59954C66.0403 9.09888 65.9497 9.55416 65.7685 9.96537C65.5873 10.3692 65.342 10.7254 65.0324 11.0338C64.7229 11.3349 64.3794 11.5772 64.002 11.7608C64.8097 12.0986 65.4628 12.6089 65.961 13.2918C66.4593 13.9747 66.7084 14.7715 66.7084 15.682C66.7084 16.6293 66.4781 17.4664 66.0176 18.1934C65.5571 18.9204 64.9079 19.4895 64.0699 19.9007C63.2395 20.3046 62.2619 20.5065 61.137 20.5065ZM61.137 18.1934C61.7032 18.1934 62.2052 18.0869 62.6431 17.874C63.0885 17.6537 63.4358 17.3489 63.6849 16.9597C63.9416 16.5706 64.0699 16.1116 64.0699 15.5829C64.0699 15.0836 63.9453 14.6356 63.6962 14.2391C63.4471 13.8426 63.0998 13.5305 62.6544 13.3028C62.2166 13.0752 61.7108 12.9614 61.137 12.9614C60.5557 12.9614 60.0461 13.0752 59.6083 13.3028C59.1704 13.5305 58.8307 13.8426 58.5891 14.2391C58.3475 14.6356 58.2268 15.0836 58.2268 15.5829C58.2268 16.1116 58.3475 16.5706 58.5891 16.9597C58.8383 17.3489 59.1817 17.6537 59.6196 17.874C60.0575 18.0869 60.5633 18.1934 61.137 18.1934ZM61.137 10.7474C61.824 10.7474 62.3789 10.5638 62.8016 10.1967C63.2319 9.82218 63.4471 9.35589 63.4471 8.79781C63.4471 8.21036 63.2319 7.73305 62.8016 7.36589C62.3713 6.99873 61.8164 6.81515 61.137 6.81515C60.4576 6.81515 59.9065 6.99873 59.4837 7.36589C59.061 7.73305 58.8496 8.21036 58.8496 8.79781C58.8496 9.35589 59.0534 9.82218 59.4611 10.1967C59.8763 10.5638 60.4349 10.7474 61.137 10.7474Z" fill="white"/>
<path d="M43.9648 20.2139V4.84985H46.5504V17.7666H54.1729V20.2139H43.9648Z" fill="white"/>
<path d="M30.3789 20.2139V4.84985H36.8303C38.1363 4.84985 39.1721 5.08397 39.9377 5.55221C40.7108 6.01313 41.2625 6.60941 41.5928 7.34103C41.923 8.06533 42.0882 8.81891 42.0882 9.60174C42.0882 10.1505 41.9906 10.7028 41.7954 11.2589C41.6078 11.8076 41.3038 12.3161 40.8835 12.7843C40.4631 13.2525 39.9189 13.6293 39.2509 13.9147C38.5829 14.1927 37.776 14.3317 36.8303 14.3317H32.9797V20.2139H30.3789ZM32.9797 11.9612H36.9654C37.5733 11.9612 38.0575 11.8442 38.4178 11.61C38.778 11.3686 39.037 11.0686 39.1946 10.7101C39.3522 10.3443 39.4311 9.97487 39.4311 9.60174C39.4311 9.2652 39.3598 8.91402 39.2171 8.5482C39.082 8.17508 38.8343 7.86048 38.4741 7.60441C38.1138 7.34834 37.6109 7.22031 36.9654 7.22031H32.9797V11.9612Z" fill="white"/>
</svg>
