<svg width="158" height="33" viewBox="0 0 158 33" fill="none" xmlns="http://www.w3.org/2000/svg">
<path d="M16.5234 0C25.6493 0 33.0479 7.2969 33.0479 16.2979C33.0477 25.1581 25.879 32.3668 16.9502 32.5898L16.5234 32.5957H0V16.2979C0 7.29704 7.39776 0.000219616 16.5234 0ZM16.5234 9.05371C12.468 9.05393 9.18012 12.297 9.17969 16.2969V32.5947H11.4746V23.541H16.5234C20.5794 23.541 23.8672 20.2973 23.8672 16.2969C23.8668 12.2968 20.5791 9.05371 16.5234 9.05371Z" fill="white"/>
<path d="M148.729 26.6146V9.5786H142.879V6.38525H158V9.5786H152.15V26.6146H148.729Z" fill="white"/>
<path d="M126.375 26.6146L134.098 6.38525H137.33L145.053 26.6146H141.421L139.746 22.1064H131.697L130.051 26.6146H126.375ZM132.794 19.0864H138.62L136.337 12.9742C136.278 12.8105 136.208 12.6178 136.129 12.3963C136.05 12.1747 135.971 11.958 135.892 11.746C135.813 11.5245 135.754 11.327 135.714 11.1536C135.665 11.327 135.601 11.5245 135.521 11.746C135.452 11.958 135.378 12.1747 135.299 12.3963C135.22 12.6178 135.151 12.8105 135.092 12.9742L132.794 19.0864Z" fill="white"/>
<path d="M107.994 26.6146V6.38525H111.41V14.5781H120.489V6.38525H123.905V26.6146H120.489V17.7426H111.41V26.6146H107.994Z" fill="white"/>
<path d="M98.348 27.0001C96.7534 27.0001 95.405 26.7013 94.3026 26.1038C93.2002 25.5063 92.3094 24.7064 91.6303 23.7041C90.961 22.6922 90.4738 21.5694 90.1686 20.3358C89.8635 19.0926 89.7109 17.8349 89.7109 16.5627C89.7109 15.3388 89.8684 14.11 90.1834 12.8764C90.4984 11.6428 90.9954 10.5152 91.6746 9.49364C92.3537 8.47207 93.2445 7.65289 94.3469 7.03609C95.4493 6.40965 96.783 6.09644 98.348 6.09644C99.6374 6.09644 100.75 6.29882 101.685 6.70359C102.62 7.10837 103.392 7.62879 104.003 8.26487C104.623 8.90094 105.09 9.57074 105.405 10.2743L102.364 11.691C102.029 11.2091 101.68 10.7851 101.316 10.4188C100.951 10.0526 100.528 9.76831 100.046 9.56592C99.5734 9.36354 99.0074 9.26234 98.348 9.26234C97.3932 9.26234 96.5861 9.48401 95.9266 9.92733C95.2672 10.3707 94.7406 10.9537 94.3469 11.6765C93.963 12.3993 93.6825 13.1896 93.5053 14.0473C93.3282 14.8954 93.2396 15.7339 93.2396 16.5627C93.2396 17.4397 93.338 18.3119 93.5348 19.1793C93.7317 20.037 94.0368 20.8177 94.4502 21.5212C94.8636 22.2151 95.3902 22.7741 96.03 23.1981C96.6796 23.6125 97.4523 23.8197 98.348 23.8197C99.3125 23.8197 100.11 23.5836 100.74 23.1114C101.38 22.6295 101.936 22.0079 102.408 21.2465L105.523 22.3886C105.11 23.2656 104.578 24.051 103.929 24.7449C103.279 25.4388 102.492 25.9882 101.567 26.3929C100.651 26.7977 99.5783 27.0001 98.348 27.0001Z" fill="white"/>
<path d="M80.4959 27C79.0249 27 77.7426 26.7341 76.6492 26.2023C75.5558 25.6609 74.706 24.9116 74.0997 23.9544C73.5033 22.9972 73.2051 21.895 73.2051 20.6478C73.2051 19.4392 73.5232 18.395 74.1593 17.5152C74.8054 16.6257 75.6602 15.9586 76.7238 15.5138C76.2268 15.2721 75.7745 14.9482 75.367 14.5421C74.9694 14.136 74.6513 13.6671 74.4128 13.1354C74.1842 12.5939 74.0698 11.9896 74.0698 11.3225C74.0698 10.3073 74.3332 9.39848 74.8601 8.59599C75.3869 7.79351 76.1274 7.16022 77.0816 6.69613C78.0458 6.23204 79.1839 6 80.4959 6C81.808 6 82.9461 6.23204 83.9103 6.69613C84.8844 7.16022 85.6348 7.79351 86.1617 8.59599C86.6885 9.39848 86.9519 10.3073 86.9519 11.3225C86.9519 11.98 86.8326 12.5794 86.594 13.1209C86.3555 13.6526 86.0324 14.1215 85.6249 14.5276C85.2174 14.924 84.7651 15.2431 84.2681 15.4848C85.3317 15.9296 86.1915 16.6015 86.8475 17.5007C87.5035 18.3999 87.8315 19.4489 87.8315 20.6478C87.8315 21.895 87.5284 22.9972 86.922 23.9544C86.3157 24.9116 85.4609 25.6609 84.3576 26.2023C83.2642 26.7341 81.977 27 80.4959 27ZM80.4959 23.9544C81.2414 23.9544 81.9024 23.8142 82.4789 23.5338C83.0654 23.2438 83.5226 22.8425 83.8506 22.3301C84.1886 21.8177 84.3576 21.2134 84.3576 20.5173C84.3576 19.8598 84.1936 19.27 83.8656 18.7479C83.5375 18.2258 83.0803 17.8149 82.4939 17.5152C81.9173 17.2155 81.2514 17.0656 80.4959 17.0656C79.7306 17.0656 79.0596 17.2155 78.4831 17.5152C77.9066 17.8149 77.4593 18.2258 77.1413 18.7479C76.8232 19.27 76.6641 19.8598 76.6641 20.5173C76.6641 21.2134 76.8232 21.8177 77.1413 22.3301C77.4693 22.8425 77.9215 23.2438 78.498 23.5338C79.0746 23.8142 79.7405 23.9544 80.4959 23.9544ZM80.4959 14.1506C81.4005 14.1506 82.131 13.9088 82.6877 13.4254C83.2542 12.9323 83.5375 12.3184 83.5375 11.5836C83.5375 10.8101 83.2542 10.1816 82.6877 9.6982C82.1211 9.21478 81.3905 8.97306 80.4959 8.97306C79.6014 8.97306 78.8758 9.21478 78.3191 9.6982C77.7625 10.1816 77.4842 10.8101 77.4842 11.5836C77.4842 12.3184 77.7526 12.9323 78.2893 13.4254C78.836 13.9088 79.5715 14.1506 80.4959 14.1506Z" fill="white"/>
<path d="M57.8887 26.6146V6.38525H61.293V23.3924H71.3292V26.6146H57.8887Z" fill="white"/>
<path d="M40 26.6146V6.38525H48.4942C50.2138 6.38525 51.5776 6.69351 52.5857 7.31003C53.6036 7.91691 54.33 8.702 54.7648 9.6653C55.1997 10.619 55.4171 11.6112 55.4171 12.6419C55.4171 13.3644 55.2886 14.0917 55.0317 14.8238C54.7846 15.5463 54.3843 16.2158 53.8309 16.8323C53.2775 17.4488 52.561 17.9449 51.6814 18.3206C50.8018 18.6866 49.7394 18.8697 48.4942 18.8697H43.4244V26.6146H40ZM43.4244 15.7486H48.6721C49.4726 15.7486 50.1101 15.5944 50.5844 15.2862C51.0588 14.9683 51.3997 14.5733 51.6073 14.1013C51.8148 13.6197 51.9186 13.1332 51.9186 12.6419C51.9186 12.1988 51.8247 11.7364 51.6369 11.2547C51.459 10.7635 51.1329 10.3492 50.6585 10.0121C50.1842 9.67493 49.522 9.50636 48.6721 9.50636H43.4244V15.7486Z" fill="white"/>
</svg>
