<svg width="158" height="33" viewBox="0 0 158 33" fill="none" xmlns="http://www.w3.org/2000/svg">
<path d="M16.5234 0C25.6493 0 33.0479 7.2969 33.0479 16.2979C33.0477 25.1581 25.879 32.3668 16.9502 32.5898L16.5234 32.5957H0V16.2979C0 7.29704 7.39776 0.000219616 16.5234 0ZM16.5234 9.05371C12.468 9.05393 9.18012 12.297 9.17969 16.2969V32.5947H11.4746V23.541H16.5234C20.5794 23.541 23.8672 20.2973 23.8672 16.2969C23.8668 12.2968 20.5791 9.05371 16.5234 9.05371Z" fill="white"/>
<path d="M148.729 26.6146V9.5786H142.879V6.38525H158V9.5786H152.15V26.6146H148.729Z" fill="white"/>
<path d="M126.375 26.6146L134.099 6.38525H137.33L145.054 26.6146H141.422L139.747 22.1064H131.697L130.052 26.6146H126.375ZM132.794 19.0864H138.62L136.337 12.9742C136.278 12.8105 136.209 12.6178 136.13 12.3963C136.05 12.1747 135.971 11.958 135.892 11.746C135.813 11.5245 135.754 11.327 135.714 11.1536C135.665 11.327 135.601 11.5245 135.522 11.746C135.453 11.958 135.378 12.1747 135.299 12.3963C135.22 12.6178 135.151 12.8105 135.092 12.9742L132.794 19.0864Z" fill="white"/>
<path d="M107.993 26.6146V6.38525H111.409V14.5781H120.489V6.38525H123.905V26.6146H120.489V17.7426H111.409V26.6146H107.993Z" fill="white"/>
<path d="M98.3472 27.0001C96.7527 27.0001 95.4042 26.7013 94.3019 26.1038C93.1995 25.5063 92.3087 24.7064 91.6295 23.7041C90.9602 22.6922 90.473 21.5694 90.1679 20.3358C89.8628 19.0926 89.7102 17.8349 89.7102 16.5627C89.7102 15.3388 89.8677 14.11 90.1827 12.8764C90.4976 11.6428 90.9947 10.5152 91.6738 9.49364C92.353 8.47207 93.2438 7.65289 94.3461 7.03609C95.4485 6.40965 96.7822 6.09644 98.3472 6.09644C99.6366 6.09644 100.749 6.29882 101.684 6.70359C102.619 7.10837 103.392 7.62879 104.002 8.26487C104.622 8.90094 105.09 9.57074 105.404 10.2743L102.363 11.691C102.028 11.2091 101.679 10.7851 101.315 10.4188C100.951 10.0526 100.527 9.76831 100.045 9.56592C99.5726 9.36354 99.0067 9.26234 98.3472 9.26234C97.3925 9.26234 96.5854 9.48401 95.9259 9.92733C95.2664 10.3707 94.7399 10.9537 94.3461 11.6765C93.9623 12.3993 93.6818 13.1896 93.5046 14.0473C93.3274 14.8954 93.2388 15.7339 93.2388 16.5627C93.2388 17.4397 93.3373 18.3119 93.5341 19.1793C93.731 20.037 94.0361 20.8177 94.4495 21.5212C94.8629 22.2151 95.3895 22.7741 96.0293 23.1981C96.6789 23.6125 97.4515 23.8197 98.3472 23.8197C99.3118 23.8197 100.109 23.5836 100.739 23.1114C101.379 22.6295 101.935 22.0079 102.407 21.2465L105.523 22.3886C105.109 23.2656 104.578 24.051 103.928 24.7449C103.278 25.4388 102.491 25.9882 101.566 26.3929C100.65 26.7977 99.5776 27.0001 98.3472 27.0001Z" fill="white"/>
<path d="M80.4969 27C79.0258 27 77.7436 26.7341 76.6502 26.2023C75.5568 25.6609 74.707 24.9116 74.1006 23.9544C73.5042 22.9972 73.2061 21.895 73.2061 20.6478C73.2061 19.4392 73.5241 18.395 74.1603 17.5152C74.8064 16.6257 75.6612 15.9586 76.7248 15.5138C76.2278 15.2721 75.7755 14.9482 75.368 14.5421C74.9704 14.136 74.6523 13.6671 74.4137 13.1354C74.1851 12.5939 74.0708 11.9896 74.0708 11.3225C74.0708 10.3073 74.3342 9.39848 74.861 8.59599C75.3878 7.79351 76.1284 7.16022 77.0826 6.69613C78.0468 6.23204 79.1849 6 80.4969 6C81.809 6 82.9471 6.23204 83.9113 6.69613C84.8854 7.16022 85.6358 7.79351 86.1626 8.59599C86.6894 9.39848 86.9528 10.3073 86.9528 11.3225C86.9528 11.98 86.8336 12.5794 86.595 13.1209C86.3565 13.6526 86.0334 14.1215 85.6259 14.5276C85.2183 14.924 84.7661 15.2431 84.2691 15.4848C85.3327 15.9296 86.1924 16.6015 86.8485 17.5007C87.5045 18.3999 87.8325 19.4489 87.8325 20.6478C87.8325 21.895 87.5294 22.9972 86.923 23.9544C86.3167 24.9116 85.4619 25.6609 84.3585 26.2023C83.2652 26.7341 81.978 27 80.4969 27ZM80.4969 23.9544C81.2424 23.9544 81.9034 23.8142 82.4799 23.5338C83.0664 23.2438 83.5236 22.8425 83.8516 22.3301C84.1896 21.8177 84.3585 21.2134 84.3585 20.5173C84.3585 19.8598 84.1945 19.27 83.8665 18.7479C83.5385 18.2258 83.0813 17.8149 82.4948 17.5152C81.9183 17.2155 81.2524 17.0656 80.4969 17.0656C79.7316 17.0656 79.0606 17.2155 78.4841 17.5152C77.9076 17.8149 77.4603 18.2258 77.1422 18.7479C76.8242 19.27 76.6651 19.8598 76.6651 20.5173C76.6651 21.2134 76.8242 21.8177 77.1422 22.3301C77.4702 22.8425 77.9225 23.2438 78.499 23.5338C79.0755 23.8142 79.7415 23.9544 80.4969 23.9544ZM80.4969 14.1506C81.4014 14.1506 82.132 13.9088 82.6887 13.4254C83.2552 12.9323 83.5385 12.3184 83.5385 11.5836C83.5385 10.8101 83.2552 10.1816 82.6887 9.6982C82.1221 9.21478 81.3915 8.97306 80.4969 8.97306C79.6023 8.97306 78.8767 9.21478 78.3201 9.6982C77.7635 10.1816 77.4852 10.8101 77.4852 11.5836C77.4852 12.3184 77.7535 12.9323 78.2903 13.4254C78.837 13.9088 79.5725 14.1506 80.4969 14.1506Z" fill="white"/>
<path d="M57.8877 26.6146V6.38525H61.292V23.3924H71.3282V26.6146H57.8877Z" fill="white"/>
<path d="M40 26.6146V6.38525H48.4942C50.2138 6.38525 51.5776 6.69351 52.5857 7.31003C53.6036 7.91691 54.33 8.702 54.7648 9.6653C55.1997 10.619 55.4171 11.6112 55.4171 12.6419C55.4171 13.3644 55.2886 14.0917 55.0317 14.8238C54.7846 15.5463 54.3843 16.2158 53.8309 16.8323C53.2775 17.4488 52.561 17.9449 51.6814 18.3206C50.8018 18.6866 49.7394 18.8697 48.4942 18.8697H43.4244V26.6146H40ZM43.4244 15.7486H48.6721C49.4726 15.7486 50.1101 15.5944 50.5844 15.2862C51.0588 14.9683 51.3997 14.5733 51.6073 14.1013C51.8148 13.6197 51.9186 13.1332 51.9186 12.6419C51.9186 12.1988 51.8247 11.7364 51.6369 11.2547C51.459 10.7635 51.1329 10.3492 50.6585 10.0121C50.1842 9.67493 49.522 9.50636 48.6721 9.50636H43.4244V15.7486Z" fill="white"/>
</svg>
