<svg width="18" height="18" viewBox="0 0 18 18" fill="none" xmlns="http://www.w3.org/2000/svg">
<path d="M9 0C13.9705 2.64334e-05 18 3.97459 18 8.87695C17.9998 13.7791 13.9704 17.7529 9 17.7529C8.98699 17.7529 8.97394 17.752 8.96094 17.752H6.25293V12.8223H8.96094C8.97459 12.8224 8.98827 12.8232 9.00195 12.8232C11.211 12.8232 13.0018 11.0566 13.002 8.87793C13.0019 6.6991 11.2111 4.93263 9.00195 4.93262C6.79283 4.93262 5.00196 6.6991 5.00195 8.87793C5.00197 8.89119 5.0028 8.90474 5.00293 8.91797V17.752H0V8.87598C0.000313527 3.97386 4.02966 0 9 0Z" fill="white"/>
</svg>
