<svg width="22" height="22" viewBox="0 0 22 22" fill="none" xmlns="http://www.w3.org/2000/svg">
<path d="M15.1667 15.1667L12.4011 12.4011M12.4011 12.4011C12.7493 12.0529 13.0256 11.6395 13.214 11.1845C13.4025 10.7295 13.4995 10.2419 13.4995 9.74945C13.4995 9.25699 13.4025 8.76935 13.214 8.31437C13.0256 7.8594 12.7493 7.446 12.4011 7.09778C12.0529 6.74956 11.6395 6.47333 11.1845 6.28487C10.7295 6.09642 10.2419 5.99942 9.74945 5.99942C9.25699 5.99942 8.76935 6.09642 8.31437 6.28487C7.8594 6.47333 7.446 6.74956 7.09778 7.09778C6.39436 7.80119 5.99919 8.75522 5.99919 9.75C5.99919 10.7448 6.39436 11.6988 7.09778 12.4022C7.80119 13.1056 8.75522 13.5008 9.75 13.5008C10.7448 13.5008 11.6988 13.1056 12.4022 12.4022L12.4011 12.4011ZM21 11C21 12.3132 20.7413 13.6136 20.2388 14.8268C19.7363 16.0401 18.9997 17.1425 18.0711 18.0711C17.1425 18.9997 16.0401 19.7363 14.8268 20.2388C13.6136 20.7413 12.3132 21 11 21C9.68678 21 8.38642 20.7413 7.17317 20.2388C5.95991 19.7363 4.85752 18.9997 3.92893 18.0711C3.00035 17.1425 2.26375 16.0401 1.7612 14.8268C1.25866 13.6136 1 12.3132 1 11C1 8.34784 2.05357 5.8043 3.92893 3.92893C5.8043 2.05357 8.34784 1 11 1C13.6522 1 16.1957 2.05357 18.0711 3.92893C19.9464 5.8043 21 8.34784 21 11Z" stroke="#002823" stroke-width="2" stroke-linecap="round" stroke-linejoin="round"/>
</svg>
