<svg width="40" height="40" viewBox="0 0 40 40" fill="none" xmlns="http://www.w3.org/2000/svg">
<path d="M27.5 27.5L22.522 22.522M22.522 22.522C23.1488 21.8952 23.646 21.1511 23.9852 20.3321C24.3244 19.5132 24.499 18.6354 24.499 17.749C24.499 16.8626 24.3244 15.9848 23.9852 15.1659C23.646 14.3469 23.1488 13.6028 22.522 12.976C21.8952 12.3492 21.1511 11.852 20.3321 11.5128C19.5132 11.1736 18.6354 10.999 17.749 10.999C16.8626 10.999 15.9848 11.1736 15.1659 11.5128C14.3469 11.852 13.6028 12.3492 12.976 12.976C11.7099 14.2421 10.9985 15.9594 10.9985 17.75C10.9985 19.5406 11.7099 21.2579 12.976 22.524C14.2421 23.7901 15.9594 24.5015 17.75 24.5015C19.5406 24.5015 21.2579 23.7901 22.524 22.524L22.522 22.522ZM38 20C38 22.3638 37.5344 24.7044 36.6298 26.8883C35.7252 29.0722 34.3994 31.0565 32.7279 32.7279C31.0565 34.3994 29.0722 35.7252 26.8883 36.6298C24.7044 37.5344 22.3638 38 20 38C17.6362 38 15.2956 37.5344 13.1117 36.6298C10.9278 35.7252 8.94353 34.3994 7.27208 32.7279C5.60062 31.0565 4.27475 29.0722 3.37017 26.8883C2.46558 24.7044 2 22.3638 2 20C2 15.2261 3.89642 10.6477 7.27208 7.27208C10.6477 3.89642 15.2261 2 20 2C24.7739 2 29.3523 3.89642 32.7279 7.27208C36.1036 10.6477 38 15.2261 38 20Z" stroke="#002823" stroke-width="3" stroke-linecap="round" stroke-linejoin="round"/>
</svg>
