<svg width="17" height="17" viewBox="0 0 17 17" fill="none" xmlns="http://www.w3.org/2000/svg">
<path d="M16 3.25V13.75C16 14.3467 15.8177 14.919 15.4931 15.341C15.1685 15.7629 14.7283 16 14.2692 16H2.73077C2.27174 16 1.83151 15.7629 1.50693 15.341C1.18235 14.919 1 14.3467 1 13.75V3.25M16 3.25C16 2.65326 15.8177 2.08097 15.4931 1.65901C15.1685 1.23705 14.7283 1 14.2692 1H2.73077C2.27174 1 1.83151 1.23705 1.50693 1.65901C1.18235 2.08097 1 2.65326 1 3.25M16 3.25V3.493C16 3.87715 15.9244 4.25491 15.7803 4.5903C15.6363 4.92569 15.4285 5.20754 15.1769 5.409L9.40769 10.024C9.13477 10.2425 8.82054 10.3582 8.5 10.3582C8.17946 10.3582 7.86523 10.2425 7.59231 10.024L1.82308 5.41C1.57148 5.20854 1.36375 4.92669 1.21967 4.5913C1.07559 4.25591 0.999967 3.87815 1 3.494V3.25" stroke="#4B5563" stroke-width="1.5" stroke-linecap="round" stroke-linejoin="round"/>
</svg>
