<svg width="22" height="18" viewBox="0 0 22 18" fill="none" xmlns="http://www.w3.org/2000/svg">
<path d="M20.5 3.75V14.25C20.5 14.8467 20.2629 15.419 19.841 15.841C19.419 16.2629 18.8467 16.5 18.25 16.5H3.25C2.65326 16.5 2.08097 16.2629 1.65901 15.841C1.23705 15.419 1 14.8467 1 14.25V3.75M20.5 3.75C20.5 3.15326 20.2629 2.58097 19.841 2.15901C19.419 1.73705 18.8467 1.5 18.25 1.5H3.25C2.65326 1.5 2.08097 1.73705 1.65901 2.15901C1.23705 2.58097 1 3.15326 1 3.75M20.5 3.75V3.993C20.5 4.37715 20.4017 4.75491 20.2144 5.0903C20.0271 5.42569 19.7571 5.70754 19.43 5.909L11.93 10.524C11.5752 10.7425 11.1667 10.8582 10.75 10.8582C10.3333 10.8582 9.92479 10.7425 9.57 10.524L2.07 5.91C1.74292 5.70854 1.47287 5.42669 1.28557 5.0913C1.09827 4.75591 0.999957 4.37815 1 3.994V3.75" stroke="#4B5563" stroke-width="1.5" stroke-linecap="round" stroke-linejoin="round"/>
</svg>
