<svg width="17" height="17" viewBox="0 0 17 17" fill="none" xmlns="http://www.w3.org/2000/svg">
<path d="M1 4.46154C1 10.8338 6.16615 16 12.5385 16H14.2692C14.7283 16 15.1685 15.8177 15.4931 15.4931C15.8177 15.1685 16 14.7283 16 14.2692V13.2138C16 12.8169 15.73 12.4708 15.3446 12.3746L11.9423 11.5238C11.6038 11.4392 11.2485 11.5662 11.04 11.8446L10.2938 12.8392C10.0769 13.1285 9.70231 13.2562 9.36308 13.1315C8.10375 12.6686 6.96012 11.9374 6.01137 10.9886C5.06262 10.0399 4.33144 8.89625 3.86846 7.63692C3.74385 7.29769 3.87154 6.92308 4.16077 6.70615L5.15538 5.96C5.43462 5.75154 5.56077 5.39538 5.47615 5.05769L4.62538 1.65538C4.57857 1.46823 4.47055 1.30208 4.3185 1.18334C4.16645 1.06459 3.97908 1.00006 3.78615 1H2.73077C2.27174 1 1.83151 1.18235 1.50693 1.50693C1.18235 1.83151 1 2.27174 1 2.73077V4.46154Z" stroke="#4B5563" stroke-width="1.5" stroke-linecap="round" stroke-linejoin="round"/>
</svg>
