<svg width="18" height="18" viewBox="0 0 18 18" fill="none" xmlns="http://www.w3.org/2000/svg">
<path fill-rule="evenodd" clip-rule="evenodd" d="M15.0336 3.7369C15.1042 3.79056 15.1637 3.85764 15.2084 3.93429C15.2531 4.01095 15.2823 4.09567 15.2943 4.18361C15.3062 4.27155 15.3007 4.36099 15.2781 4.4468C15.2554 4.53261 15.2161 4.61311 15.1623 4.6837L7.96226 14.1337C7.90386 14.2102 7.82975 14.2734 7.74493 14.319C7.6601 14.3645 7.56651 14.3914 7.47044 14.3978C7.37437 14.4042 7.27804 14.3899 7.18793 14.356C7.09781 14.3221 7.01599 14.2693 6.94796 14.2012L2.89796 10.1512C2.77873 10.0232 2.71382 9.854 2.7169 9.67913C2.71999 9.50426 2.79083 9.33741 2.9145 9.21374C3.03817 9.09007 3.20502 9.01923 3.37989 9.01614C3.55476 9.01306 3.724 9.07797 3.85196 9.1972L7.35656 12.7009L14.0886 3.8656C14.1969 3.72336 14.3573 3.62992 14.5344 3.60579C14.7116 3.58166 14.8911 3.62881 15.0336 3.7369Z" fill="#034B48"/>
</svg>
