<svg width="40" height="40" viewBox="0 0 40 40" fill="none" xmlns="http://www.w3.org/2000/svg">
<path d="M32 11V17M32 17V23M32 17H38M32 17H26M21.5 8.74999C21.5 10.5402 20.7888 12.2571 19.523 13.523C18.2571 14.7888 16.5402 15.5 14.75 15.5C12.9598 15.5 11.2429 14.7888 9.97703 13.523C8.71116 12.2571 8 10.5402 8 8.74999C8 6.95978 8.71116 5.2429 9.97703 3.97703C11.2429 2.71116 12.9598 2 14.75 2C16.5402 2 18.2571 2.71116 19.523 3.97703C20.7888 5.2429 21.5 6.95978 21.5 8.74999ZM2 34.47V34.25C2 30.8685 3.3433 27.6255 5.73439 25.2344C8.12548 22.8433 11.3685 21.5 14.75 21.5C18.1315 21.5 21.3745 22.8433 23.7656 25.2344C26.1567 27.6255 27.5 30.8685 27.5 34.25V34.468C23.651 36.7862 19.2412 38.0075 14.748 38C10.086 38 5.724 36.71 2 34.468V34.47Z" stroke="#002823" stroke-width="3" stroke-linecap="round" stroke-linejoin="round"/>
</svg>
