<svg width="20" height="21" viewBox="0 0 20 21" fill="none" xmlns="http://www.w3.org/2000/svg">
<path d="M10 12.5C11.1046 12.5 12 11.6046 12 10.5C12 9.39543 11.1046 8.5 10 8.5C8.89544 8.5 8.00001 9.39543 8.00001 10.5C8.00001 11.6046 8.89544 12.5 10 12.5Z" fill="#9CA3AF"/>
<path fill-rule="evenodd" clip-rule="evenodd" d="M0.457764 10.5C1.73202 6.44291 5.52232 3.5 9.99997 3.5C14.4776 3.5 18.2679 6.44288 19.5422 10.5C18.2679 14.5571 14.4776 17.5 9.99995 17.5C5.52232 17.5 1.73204 14.5571 0.457764 10.5ZM14 10.5C14 12.7091 12.2091 14.5 10 14.5C7.79087 14.5 6.00001 12.7091 6.00001 10.5C6.00001 8.29086 7.79087 6.5 10 6.5C12.2091 6.5 14 8.29086 14 10.5Z" fill="#9CA3AF"/>
</svg>
