<svg width="150" height="34" viewBox="0 0 150 34" fill="none" xmlns="http://www.w3.org/2000/svg">
<path d="M16.5234 0.703125C25.6493 0.703125 33.0479 8.00003 33.0479 17.001C33.0477 25.8612 25.879 33.0699 16.9502 33.293L16.5234 33.2988H0V17.001C0 8.00016 7.39776 0.703345 16.5234 0.703125ZM16.5234 9.75684C12.468 9.75706 9.18012 13.0001 9.17969 17V33.2979H11.4746V24.2441H16.5234C20.5794 24.2441 23.8672 21.0004 23.8672 17C23.8668 12.9999 20.5791 9.75684 16.5234 9.75684Z" fill="#002823"/>
<path d="M141.389 26.5081V10.4956H135.955V7.49414H150V10.4956H144.566V26.5081H141.389Z" fill="#002823"/>
<path d="M120.624 26.5081L127.798 7.49414H130.8L137.974 26.5081H134.601L133.045 22.2707H125.568L124.039 26.5081H120.624ZM126.587 19.4322H131.998L129.878 13.6873C129.823 13.5333 129.758 13.3522 129.685 13.144C129.611 12.9357 129.538 12.732 129.465 12.5328C129.391 12.3246 129.336 12.139 129.299 11.976C129.253 12.139 129.194 12.3246 129.12 12.5328C129.056 12.732 128.987 12.9357 128.914 13.144C128.84 13.3522 128.776 13.5333 128.721 13.6873L126.587 19.4322Z" fill="#002823"/>
<path d="M103.55 26.5081V7.49414H106.723V15.1948H115.156V7.49414H118.329V26.5081H115.156V18.1691H106.723V26.5081H103.55Z" fill="#002823"/>
<path d="M94.5897 26.8704C93.1085 26.8704 91.856 26.5896 90.832 26.028C89.808 25.4663 88.9806 24.7145 88.3497 23.7724C87.728 22.8213 87.2755 21.766 86.992 20.6065C86.7086 19.4379 86.5669 18.2558 86.5669 17.0601C86.5669 15.9097 86.7132 14.7547 87.0057 13.5953C87.2983 12.4358 87.76 11.3759 88.3909 10.4158C89.0217 9.45556 89.8491 8.68559 90.8731 8.10585C91.8971 7.51705 93.136 7.22266 94.5897 7.22266C95.7874 7.22266 96.8205 7.41288 97.6891 7.79334C98.5576 8.17379 99.2753 8.66295 99.8422 9.2608C100.418 9.85866 100.852 10.4882 101.145 11.1495L98.3199 12.4811C98.0091 12.0282 97.6845 11.6296 97.3462 11.2854C97.0079 10.9411 96.6148 10.6739 96.1668 10.4837C95.728 10.2935 95.2022 10.1983 94.5897 10.1983C93.7028 10.1983 92.9531 10.4067 92.3406 10.8234C91.728 11.2401 91.2388 11.7881 90.8731 12.4675C90.5166 13.1469 90.256 13.8897 90.0914 14.6959C89.9269 15.493 89.8446 16.2811 89.8446 17.0601C89.8446 17.8844 89.936 18.7042 90.1189 19.5195C90.3017 20.3257 90.5851 21.0594 90.9691 21.7207C91.3531 22.3729 91.8423 22.8983 92.4366 23.2968C93.04 23.6863 93.7577 23.8811 94.5897 23.8811C95.4857 23.8811 96.2262 23.6592 96.8114 23.2153C97.4057 22.7624 97.9222 22.1781 98.3611 21.4625L101.255 22.5359C100.871 23.3602 100.377 24.0985 99.7736 24.7507C99.1702 25.4029 98.4388 25.9193 97.5794 26.2997C96.7291 26.6802 95.7325 26.8704 94.5897 26.8704Z" fill="#002823"/>
<path d="M78.0087 26.8711C76.6422 26.8711 75.4512 26.6212 74.4355 26.1214C73.4199 25.6125 72.6305 24.9082 72.0673 24.0085C71.5133 23.1088 71.2363 22.0728 71.2363 20.9005C71.2363 19.7646 71.5318 18.7831 72.1227 17.9561C72.7228 17.1201 73.5169 16.493 74.5048 16.075C74.0431 15.8478 73.623 15.5434 73.2445 15.1617C72.8752 14.78 72.5797 14.3393 72.3581 13.8395C72.1458 13.3306 72.0396 12.7626 72.0396 12.1355C72.0396 11.1813 72.2843 10.3271 72.7736 9.57283C73.263 8.81856 73.9508 8.22332 74.8372 7.78712C75.7328 7.35091 76.7899 7.13281 78.0087 7.13281C79.2274 7.13281 80.2846 7.35091 81.1802 7.78712C82.085 8.22332 82.7821 8.81856 83.2715 9.57283C83.7608 10.3271 84.0055 11.1813 84.0055 12.1355C84.0055 12.7535 83.8947 13.3169 83.6731 13.8258C83.4515 14.3256 83.1514 14.7664 82.7729 15.1481C82.3943 15.5207 81.9742 15.8206 81.5126 16.0478C82.5005 16.4658 83.2992 17.0974 83.9085 17.9425C84.5179 18.7877 84.8226 19.7737 84.8226 20.9005C84.8226 22.0728 84.541 23.1088 83.9778 24.0085C83.4146 24.9082 82.6205 25.6125 81.5957 26.1214C80.5801 26.6212 79.3844 26.8711 78.0087 26.8711ZM78.0087 24.0085C78.7012 24.0085 79.3152 23.8767 79.8507 23.6132C80.3954 23.3406 80.8201 22.9634 81.1248 22.4818C81.4387 22.0001 81.5957 21.4322 81.5957 20.7778C81.5957 20.1599 81.4433 19.6055 81.1387 19.1148C80.834 18.6241 80.4093 18.2379 79.8645 17.9561C79.329 17.6744 78.7104 17.5336 78.0087 17.5336C77.2978 17.5336 76.6745 17.6744 76.139 17.9561C75.6035 18.2379 75.188 18.6241 74.8926 19.1148C74.5971 19.6055 74.4494 20.1599 74.4494 20.7778C74.4494 21.4322 74.5971 22.0001 74.8926 22.4818C75.1973 22.9634 75.6174 23.3406 76.1529 23.6132C76.6884 23.8767 77.307 24.0085 78.0087 24.0085ZM78.0087 14.7937C78.8489 14.7937 79.5275 14.5665 80.0446 14.1121C80.5708 13.6486 80.834 13.0716 80.834 12.3809C80.834 11.6539 80.5708 11.0632 80.0446 10.6088C79.5183 10.1544 78.8397 9.92725 78.0087 9.92725C77.1777 9.92725 76.5037 10.1544 75.9867 10.6088C75.4696 11.0632 75.2111 11.6539 75.2111 12.3809C75.2111 13.0716 75.4604 13.6486 75.959 14.1121C76.4668 14.5665 77.15 14.7937 78.0087 14.7937Z" fill="#002823"/>
<path d="M57.0076 26.5081V7.49414H60.1698V23.4794H69.4923V26.5081H57.0076Z" fill="#002823"/>
<path d="M40.3918 26.5081V7.49414H48.282C49.8793 7.49414 51.1461 7.78388 52.0825 8.36335C53.028 8.93377 53.7027 9.67169 54.1066 10.5771C54.5106 11.4735 54.7125 12.4061 54.7125 13.3749C54.7125 14.0539 54.5932 14.7375 54.3545 15.4257C54.125 16.1047 53.7532 16.734 53.2391 17.3135C52.7251 17.893 52.0595 18.3592 51.2425 18.7124C50.4255 19.0564 49.4387 19.2285 48.282 19.2285H43.5727V26.5081H40.3918ZM43.5727 16.2949H48.4472C49.1908 16.2949 49.7829 16.15 50.2235 15.8603C50.6642 15.5615 50.9809 15.1903 51.1737 14.7466C51.3664 14.2939 51.4628 13.8366 51.4628 13.3749C51.4628 12.9584 51.3756 12.5238 51.2012 12.0711C51.036 11.6093 50.733 11.22 50.2924 10.9031C49.8518 10.5862 49.2367 10.4277 48.4472 10.4277H43.5727V16.2949Z" fill="#002823"/>
</svg>
