<svg width="124" height="28" viewBox="0 0 124 28" fill="none" xmlns="http://www.w3.org/2000/svg">
<path fillRule="evenodd" clipRule="evenodd" d="M27.1834 13.9994C27.1834 21.4032 21.0982 27.4051 13.5917 27.4051L9.43867 27.4051V19.9575L13.5917 19.9575C16.9279 19.9575 19.6324 17.29 19.6324 13.9994C19.6324 10.7089 16.9279 8.04136 13.5917 8.04136C10.2555 8.04136 7.55094 10.7089 7.55094 13.9994V27.4051L0 27.4051V13.9994C0 6.59568 6.0852 0.59375 13.5917 0.59375C21.0982 0.59375 27.1834 6.59568 27.1834 13.9994Z" fill="#004C3D"/>
<path d="M116.3 21.8197V8.64857H111.83V6.17969H123.383V8.64857H118.913V21.8197H116.3Z" fill="#004C3D"/>
<path d="M99.2201 21.8197L105.121 6.17969H107.59L113.491 21.8197H110.716L109.437 18.3342H103.286L102.029 21.8197H99.2201ZM104.124 15.9994H108.576L106.831 11.2739C106.786 11.1472 106.733 10.9983 106.673 10.827C106.612 10.6557 106.552 10.4881 106.492 10.3243C106.431 10.153 106.386 10.0003 106.356 9.86625C106.318 10.0003 106.269 10.153 106.208 10.3243C106.156 10.4881 106.099 10.6557 106.039 10.827C105.978 10.9983 105.925 11.1472 105.88 11.2739L104.124 15.9994Z" fill="#004C3D"/>
<path d="M85.1753 21.8197V6.17969H87.7852V12.5139H94.7224V6.17969H97.3323V21.8197H94.7224V14.9604H87.7852V21.8197H85.1753Z" fill="#004C3D"/>
<path d="M77.8052 22.1164C76.5869 22.1164 75.5566 21.8854 74.7143 21.4234C73.872 20.9615 73.1914 20.343 72.6725 19.5681C72.1611 18.7858 71.7889 17.9177 71.5558 16.964C71.3226 16.0028 71.2061 15.0304 71.2061 14.0469C71.2061 13.1006 71.3264 12.1506 71.567 11.1969C71.8077 10.2432 72.1875 9.37138 72.7064 8.58157C73.2253 7.79176 73.9059 7.15842 74.7482 6.68155C75.5904 6.19724 76.6094 5.95508 77.8052 5.95508C78.7904 5.95508 79.6402 6.11155 80.3546 6.42449C81.069 6.73744 81.6594 7.13979 82.1257 7.63156C82.5994 8.12333 82.9567 8.64118 83.1973 9.1851L80.8735 10.2804C80.6178 9.90786 80.3508 9.58001 80.0726 9.29687C79.7943 9.01373 79.471 8.79392 79.1025 8.63745C78.7415 8.48098 78.3091 8.40274 77.8052 8.40274C77.0757 8.40274 76.459 8.57412 75.9552 8.91687C75.4513 9.25961 75.049 9.7104 74.7482 10.2692C74.4549 10.8281 74.2405 11.439 74.1052 12.1022C73.9698 12.7579 73.9021 13.4061 73.9021 14.0469C73.9021 14.725 73.9773 15.3993 74.1277 16.0699C74.2781 16.733 74.5113 17.3365 74.8271 17.8805C75.143 18.4169 75.5453 18.8491 76.0341 19.177C76.5305 19.4973 77.1208 19.6575 77.8052 19.6575C78.5422 19.6575 79.1513 19.475 79.6326 19.1099C80.1215 18.7373 80.5464 18.2567 80.9073 17.6681L83.2876 18.5511C82.9717 19.2291 82.5656 19.8364 82.0693 20.3728C81.5729 20.9093 80.9713 21.334 80.2644 21.647C79.565 21.9599 78.7452 22.1164 77.8052 22.1164Z" fill="#004C3D"/>
<path d="M64.1666 22.1166C63.0426 22.1166 62.0629 21.9111 61.2275 21.5C60.3921 21.0814 59.7427 20.502 59.2795 19.762C58.8238 19.022 58.5959 18.1698 58.5959 17.2055C58.5959 16.2712 58.839 15.4639 59.325 14.7836C59.8187 14.0959 60.4718 13.5801 61.2844 13.2363C60.9047 13.0494 60.5591 12.799 60.2478 12.4851C59.944 12.1711 59.701 11.8086 59.5187 11.3974C59.344 10.9788 59.2567 10.5116 59.2567 9.99587C59.2567 9.21099 59.4579 8.50834 59.8604 7.88791C60.263 7.26748 60.8287 6.77786 61.5578 6.41906C62.2945 6.06026 63.1641 5.88086 64.1666 5.88086C65.169 5.88086 66.0386 6.06026 66.7753 6.41906C67.5195 6.77786 68.0929 7.26748 68.4954 7.88791C68.898 8.50834 69.0992 9.21099 69.0992 9.99587C69.0992 10.5042 69.0081 10.9676 68.8258 11.3862C68.6435 11.7974 68.3967 12.1599 68.0853 12.4738C67.774 12.7803 67.4284 13.027 67.0487 13.2139C67.8613 13.5577 68.5182 14.0772 69.0195 14.7724C69.5207 15.4676 69.7713 16.2786 69.7713 17.2055C69.7713 18.1698 69.5397 19.022 69.0764 19.762C68.6132 20.502 67.96 21.0814 67.117 21.5C66.2816 21.9111 65.2981 22.1166 64.1666 22.1166ZM64.1666 19.762C64.7361 19.762 65.2412 19.6536 65.6817 19.4368C66.1297 19.2126 66.4791 18.9024 66.7297 18.5062C66.9879 18.11 67.117 17.6428 67.117 17.1046C67.117 16.5963 66.9917 16.1404 66.7411 15.7367C66.4905 15.333 66.1411 15.0154 65.6931 14.7836C65.2526 14.5519 64.7437 14.436 64.1666 14.436C63.5818 14.436 63.0691 14.5519 62.6287 14.7836C62.1882 15.0154 61.8464 15.333 61.6034 15.7367C61.3604 16.1404 61.2389 16.5963 61.2389 17.1046C61.2389 17.6428 61.3604 18.11 61.6034 18.5062C61.854 18.9024 62.1996 19.2126 62.64 19.4368C63.0805 19.6536 63.5894 19.762 64.1666 19.762ZM64.1666 12.1823C64.8577 12.1823 65.4159 11.9954 65.8412 11.6217C66.274 11.2405 66.4905 10.7658 66.4905 10.1977C66.4905 9.59969 66.274 9.11381 65.8412 8.74006C65.4083 8.36631 64.8501 8.17943 64.1666 8.17943C63.483 8.17943 62.9286 8.36631 62.5033 8.74006C62.078 9.11381 61.8654 9.59969 61.8654 10.1977C61.8654 10.7658 62.0705 11.2405 62.4806 11.6217C62.8983 11.9954 63.4603 12.1823 64.1666 12.1823Z" fill="#004C3D"/>
<path d="M46.8921 21.8197V6.17969H49.4932V19.3284H57.1614V21.8197H46.8921Z" fill="#004C3D"/>
<path d="M33.2249 21.8197V6.17969H39.7149C41.0287 6.17969 42.0708 6.41801 42.841 6.89466C43.6187 7.36386 44.1737 7.97084 44.506 8.7156C44.8382 9.45291 45.0043 10.22 45.0043 11.0169C45.0043 11.5755 44.9062 12.1378 44.7098 12.7038C44.5211 13.2624 44.2152 13.78 43.7924 14.2566C43.3695 14.7333 42.8221 15.1168 42.1501 15.4073C41.478 15.6903 40.6663 15.8318 39.7149 15.8318H35.8413V21.8197H33.2249ZM35.8413 13.4188H39.8508C40.4624 13.4188 40.9495 13.2996 41.3119 13.0613C41.6744 12.8155 41.9349 12.5102 42.0934 12.1452C42.252 11.7728 42.3313 11.3967 42.3313 11.0169C42.3313 10.6743 42.2595 10.3168 42.1161 9.94445C41.9802 9.56463 41.731 9.24438 41.3685 8.98371C41.0061 8.72305 40.5002 8.59271 39.8508 8.59271H35.8413V13.4188Z" fill="#004C3D"/>
</svg>
