<svg width="118" height="39" viewBox="0 0 118 39" fill="none" xmlns="http://www.w3.org/2000/svg">
<path fill-rule="evenodd" clip-rule="evenodd" d="M30.4738 19.5C30.4738 25.6701 25.4288 30.672 19.2055 30.672L15.7624 30.672V23.1058L15.7624 24.4653L19.2055 24.4653C21.9714 24.4653 24.2136 22.2423 24.2136 19.5C24.2136 16.7577 21.9714 14.5347 19.2055 14.5347C16.4396 14.5347 14.1974 16.7577 14.1974 19.5V30.672L7.93726 30.672V19.5C7.93726 13.3299 12.9822 8.328 19.2055 8.328C25.4288 8.328 30.4738 13.3299 30.4738 19.5Z" fill="#363636"/>
<path d="M104.355 26.017V15.0405H100.65V12.983H110.228V15.0405H106.522V26.017H104.355Z" fill="#363636"/>
<path d="M90.1956 26.017L95.0879 12.983H97.1349L102.027 26.017H99.7266L98.6655 23.1123H93.5666L92.5243 26.017H90.1956ZM94.2615 21.1665H97.9519L96.5058 17.2284C96.4682 17.1229 96.4244 16.9987 96.3743 16.856C96.3242 16.7132 96.2742 16.5736 96.2241 16.437C96.174 16.2943 96.1364 16.1671 96.1114 16.0553C96.0801 16.1671 96.0394 16.2943 95.9893 16.437C95.9455 16.5736 95.8985 16.7132 95.8485 16.856C95.7984 16.9987 95.7546 17.1229 95.717 17.2284L94.2615 21.1665Z" fill="#363636"/>
<path d="M78.5518 26.017V12.983H80.7155V18.2618H86.4668V12.983H88.6306V26.017H86.4668V20.3007H80.7155V26.017H78.5518Z" fill="#363636"/>
<path d="M72.4415 26.2652C71.4315 26.2652 70.5773 26.0727 69.879 25.6877C69.1807 25.3027 68.6164 24.7874 68.1862 24.1416C67.7623 23.4896 67.4537 22.7662 67.2604 21.9713C67.0671 21.1703 66.9705 20.36 66.9705 19.5403C66.9705 18.7517 67.0702 17.96 67.2697 17.1652C67.4692 16.3703 67.7841 15.6438 68.2143 14.9856C68.6445 14.3274 69.2088 13.7996 69.9071 13.4022C70.6054 12.9986 71.4502 12.7968 72.4415 12.7968C73.2583 12.7968 73.9628 12.9272 74.5551 13.188C75.1474 13.4488 75.6368 13.7841 76.0234 14.1939C76.4162 14.6037 76.7123 15.0353 76.9119 15.4886L74.9853 16.4014C74.7733 16.0909 74.552 15.8177 74.3213 15.5817C74.0906 15.3458 73.8225 15.1626 73.517 15.0322C73.2177 14.9018 72.8592 14.8366 72.4415 14.8366C71.8367 14.8366 71.3255 14.9794 70.9077 15.265C70.49 15.5507 70.1564 15.9264 69.9071 16.3921C69.6639 16.8578 69.4862 17.367 69.374 17.9196C69.2618 18.4661 69.2056 19.0063 69.2056 19.5403C69.2056 20.1054 69.268 20.6673 69.3927 21.2262C69.5174 21.7788 69.7107 22.2818 69.9725 22.7351C70.2344 23.1822 70.5679 23.5423 70.9732 23.8156C71.3847 24.0826 71.8741 24.2161 72.4415 24.2161C73.0525 24.2161 73.5575 24.0639 73.9566 23.7597C74.3618 23.4492 74.7141 23.0487 75.0134 22.5581L76.9867 23.294C76.7248 23.859 76.3881 24.3651 75.9766 24.8122C75.5651 25.2593 75.0664 25.6132 74.4803 25.874C73.9005 26.1348 73.2209 26.2652 72.4415 26.2652Z" fill="#363636"/>
<path d="M61.1344 26.2653C60.2026 26.2653 59.3904 26.094 58.6978 25.7513C58.0052 25.4025 57.4669 24.9197 57.0828 24.303C56.705 23.6862 56.5161 22.9761 56.5161 22.1725C56.5161 21.3938 56.7176 20.721 57.1206 20.1541C57.5298 19.581 58.0713 19.1512 58.745 18.8646C58.4302 18.7089 58.1437 18.5002 57.8856 18.2385C57.6337 17.9769 57.4322 17.6748 57.2811 17.3321C57.1363 16.9833 57.0639 16.5939 57.0639 16.1641C57.0639 15.51 57.2307 14.9244 57.5644 14.4074C57.8982 13.8903 58.3672 13.4823 58.9717 13.1833C59.5824 12.8842 60.3033 12.7347 61.1344 12.7347C61.9656 12.7347 62.6865 12.8842 63.2972 13.1833C63.9143 13.4823 64.3896 13.8903 64.7233 14.4074C65.057 14.9244 65.2239 15.51 65.2239 16.1641C65.2239 16.5877 65.1483 16.9739 64.9972 17.3228C64.8461 17.6654 64.6415 17.9675 64.3833 18.2292C64.1252 18.4846 63.8387 18.6902 63.5239 18.8459C64.1976 19.1325 64.7422 19.5654 65.1578 20.1448C65.5733 20.7241 65.7811 21.4 65.7811 22.1725C65.7811 22.9761 65.5891 23.6862 65.205 24.303C64.8209 24.9197 64.2795 25.4025 63.5806 25.7513C62.888 26.094 62.0726 26.2653 61.1344 26.2653ZM61.1344 24.303C61.6067 24.303 62.0254 24.2126 62.3906 24.032C62.762 23.8451 63.0517 23.5866 63.2595 23.2564C63.4735 22.9262 63.5806 22.5369 63.5806 22.0884C63.5806 21.6648 63.4767 21.2848 63.2689 20.9484C63.0611 20.612 62.7715 20.3472 62.4 20.1541C62.0348 19.961 61.613 19.8644 61.1344 19.8644C60.6496 19.8644 60.2246 19.961 59.8594 20.1541C59.4943 20.3472 59.2109 20.612 59.0094 20.9484C58.808 21.2848 58.7072 21.6648 58.7072 22.0884C58.7072 22.5369 58.808 22.9262 59.0094 23.2564C59.2172 23.5866 59.5037 23.8451 59.8689 24.032C60.2341 24.2126 60.6559 24.303 61.1344 24.303ZM61.1344 17.9862C61.7074 17.9862 62.1702 17.8305 62.5228 17.519C62.8817 17.2013 63.0611 16.8057 63.0611 16.3323C63.0611 15.8339 62.8817 15.429 62.5228 15.1175C62.1639 14.8061 61.7011 14.6503 61.1344 14.6503C60.5678 14.6503 60.1082 14.8061 59.7556 15.1175C59.403 15.429 59.2267 15.8339 59.2267 16.3323C59.2267 16.8057 59.3967 17.2013 59.7367 17.519C60.083 17.8305 60.5489 17.9862 61.1344 17.9862Z" fill="#363636"/>
<path d="M46.8127 26.017V12.983H48.9692V23.9409H55.3265V26.017H46.8127Z" fill="#363636"/>
<path d="M35.4819 26.017V12.983H40.8625C41.9518 12.983 42.8157 13.1816 43.4542 13.5789C44.099 13.9699 44.5591 14.4757 44.8346 15.0964C45.11 15.7109 45.2478 16.3501 45.2478 17.0143C45.2478 17.4798 45.1664 17.9484 45.0036 18.4201C44.8471 18.8856 44.5936 19.3169 44.243 19.7142C43.8924 20.1114 43.4386 20.431 42.8814 20.6731C42.3243 20.9089 41.6513 21.0269 40.8625 21.0269H37.6511V26.017H35.4819ZM37.6511 19.0159H40.9752C41.4823 19.0159 41.8861 18.9166 42.1865 18.718C42.487 18.5132 42.703 18.2587 42.8345 17.9546C42.9659 17.6442 43.0317 17.3308 43.0317 17.0143C43.0317 16.7288 42.9722 16.4308 42.8532 16.1205C42.7406 15.804 42.534 15.5371 42.2335 15.3198C41.933 15.1026 41.5136 14.994 40.9752 14.994H37.6511V19.0159Z" fill="#363636"/>
</svg>
