<svg width="22" height="22" viewBox="0 0 22 22" fill="none" xmlns="http://www.w3.org/2000/svg">
<path d="M1 5.75C1 14.034 7.716 20.75 16 20.75H18.25C18.8467 20.75 19.419 20.5129 19.841 20.091C20.2629 19.669 20.5 19.0967 20.5 18.5V17.128C20.5 16.612 20.149 16.162 19.648 16.037L15.225 14.931C14.785 14.821 14.323 14.986 14.052 15.348L13.082 16.641C12.8 17.017 12.313 17.183 11.872 17.021C10.2349 16.4191 8.74815 15.4686 7.51478 14.2352C6.28141 13.0018 5.33087 11.5151 4.729 9.878C4.567 9.437 4.733 8.95 5.109 8.668L6.402 7.698C6.765 7.427 6.929 6.964 6.819 6.525L5.713 2.102C5.65214 1.85869 5.51172 1.6427 5.31405 1.48834C5.11638 1.33397 4.8728 1.25008 4.622 1.25H3.25C2.65326 1.25 2.08097 1.48705 1.65901 1.90901C1.23705 2.33097 1 2.90326 1 3.5V5.75Z" stroke="#4B5563" stroke-width="1.5" stroke-linecap="round" stroke-linejoin="round"/>
</svg>
